<svg width="135" height="40" viewBox="0 0 135 40" fill="none" xmlns="http://www.w3.org/2000/svg">
<path d="M0 4C0 1.79086 1.79086 0 4 0H131C133.209 0 135 1.79086 135 4V36C135 38.2091 133.209 40 131 40H4C1.79086 40 0 38.2091 0 36V4Z" fill="white"/>
<path d="M7.67756 27.0164C7.38665 27.0164 7.10665 26.9818 6.83756 26.9127C6.56847 26.8436 6.31392 26.7455 6.07392 26.6182C5.83756 26.4909 5.61756 26.3345 5.41392 26.1491C5.21392 25.9636 5.03937 25.7545 4.89028 25.5218C4.71574 25.2382 4.58119 24.9218 4.48665 24.5727C4.3921 24.2273 4.34483 23.8655 4.34483 23.4873C4.34483 23.2473 4.35937 23.0145 4.38847 22.7891C4.41756 22.5636 4.46301 22.3327 4.52483 22.0964C4.59028 21.86 4.67392 21.6127 4.77574 21.3545C4.88119 21.0964 5.00847 20.8127 5.15756 20.5036L6.38483 21.0873C6.25392 21.3527 6.14483 21.5909 6.05756 21.8018C5.97028 22.0127 5.89938 22.2127 5.84483 22.4018C5.79028 22.5873 5.75028 22.7673 5.72483 22.9418C5.70301 23.1127 5.6921 23.2927 5.6921 23.4818C5.6921 23.7291 5.72301 23.9655 5.78483 24.1909C5.84665 24.42 5.9321 24.6255 6.04119 24.8073C6.21574 25.0655 6.44483 25.2709 6.72847 25.4236C7.01574 25.58 7.3321 25.6582 7.67756 25.6582H8.78483C9.17028 25.6582 9.48301 25.6182 9.72301 25.5382C9.96665 25.4582 10.1557 25.3436 10.2903 25.1945C10.4248 25.0491 10.5157 24.8727 10.563 24.6655C10.6139 24.4582 10.6394 24.2291 10.6394 23.9782V20.3073H11.9976V22.0091C12.0048 22.2491 12.083 22.4291 12.2321 22.5491C12.3848 22.6655 12.5812 22.7236 12.8212 22.7236H13.2576V24.0818H12.8212C12.683 24.0818 12.5412 24.0691 12.3957 24.0436C12.2539 24.0182 12.1212 23.9818 11.9976 23.9345V23.9782C11.9976 24.9927 11.7285 25.7527 11.1903 26.2582C10.6557 26.7636 9.85392 27.0164 8.78483 27.0164H7.67756ZM7.56301 19.9036L8.54483 18.9109L9.54847 19.9145L8.55574 20.9073L7.56301 19.9036ZM12.9778 22.7236H13.6814C13.896 22.7236 14.0687 22.7055 14.1996 22.6691C14.3342 22.6327 14.4378 22.58 14.5105 22.5109C14.5869 22.4382 14.6378 22.3509 14.6633 22.2491C14.6887 22.1473 14.7014 22.0309 14.7014 21.9V20.3127H16.0596V21.8727C16.0596 22.1673 16.1305 22.3818 16.2723 22.5164C16.4142 22.6509 16.6396 22.72 16.9487 22.7236H16.9433C16.9978 22.72 17.0633 22.7091 17.1396 22.6909C17.2196 22.6727 17.296 22.6364 17.3687 22.5818C17.4451 22.5236 17.5087 22.4418 17.5596 22.3364C17.6142 22.2273 17.6414 22.0818 17.6414 21.9V20.3127H18.9942V21.8727C18.9942 22.1709 19.0651 22.3873 19.2069 22.5218C19.3487 22.6564 19.5796 22.7236 19.8996 22.7236C19.9869 22.7236 20.0723 22.7109 20.156 22.6855C20.2433 22.6564 20.3214 22.6109 20.3905 22.5491C20.4596 22.4836 20.516 22.4 20.5596 22.2982C20.6033 22.1964 20.6287 22.0709 20.636 21.9218V21.9273V20.3127H21.9942V21.9273C22.0014 22.2073 22.0869 22.4109 22.2505 22.5382C22.4142 22.6618 22.6651 22.7236 23.0033 22.7236H23.5378V24.0818H23.0033C22.6287 24.0818 22.3033 24.0418 22.0269 23.9618C21.7505 23.8782 21.5123 23.7436 21.3123 23.5582C21.1269 23.7291 20.9087 23.86 20.6578 23.9509C20.4105 24.0382 20.1578 24.0818 19.8996 24.0818C19.5578 24.0818 19.2578 24.04 18.9996 23.9564C18.7451 23.8727 18.5178 23.7382 18.3178 23.5527C18.1287 23.72 17.916 23.8491 17.6796 23.94C17.4469 24.0309 17.2105 24.0782 16.9705 24.0818C16.6287 24.0855 16.3269 24.0418 16.0651 23.9509C15.8069 23.86 15.5833 23.7345 15.3942 23.5745C14.9687 23.9127 14.3978 24.0818 13.6814 24.0818H12.9778V22.7236ZM18.2305 18.0545L17.3033 18.9927L16.376 18.0655L17.3033 17.1273L18.2305 18.0545ZM20.5705 18.0327L19.6542 18.96L18.6996 18.0436L19.6378 17.1055L20.5705 18.0327ZM19.3651 16.4945L18.4923 17.3673L17.6305 16.5055L18.5033 15.6327L19.3651 16.4945ZM29.1701 22.7236V24.0818H28.3628C28.0537 24.0818 27.7719 24.04 27.5174 23.9564C27.2628 23.8727 27.0483 23.7491 26.8737 23.5855C26.6701 23.7564 26.4283 23.8818 26.1483 23.9618C25.8719 24.0418 25.5555 24.0818 25.1992 24.0818H23.3119V22.7236H25.1992C25.421 22.7236 25.5974 22.7036 25.7283 22.6636C25.8628 22.62 25.9628 22.5673 26.0283 22.5055C26.0974 22.4436 26.141 22.3745 26.1592 22.2982C26.181 22.2218 26.1919 22.1473 26.1919 22.0745V20.3073H27.5446V22.0364C27.5446 22.2 27.581 22.3291 27.6537 22.4236C27.7264 22.5145 27.8083 22.5836 27.8992 22.6309C27.9937 22.6745 28.0864 22.7018 28.1774 22.7127C28.2683 22.72 28.3301 22.7236 28.3628 22.7236H29.1701ZM26.9501 27.0818L26.0337 26.1545L26.9392 25.2164L27.8774 26.1545L26.9501 27.0818ZM24.6646 27.0873L23.7483 26.16L24.6483 25.2218L25.5864 26.16L24.6646 27.0873ZM35.9852 24.0818H35.8216C35.5016 24.0818 35.2234 24.0527 34.987 23.9945C34.7507 23.9327 34.5379 23.8491 34.3488 23.7436C34.1597 23.6345 33.9852 23.5055 33.8252 23.3564C33.6688 23.2036 33.5088 23.0345 33.3452 22.8491C33.2579 23.0782 33.1179 23.2727 32.9252 23.4327C32.7361 23.5927 32.5179 23.7218 32.2707 23.82C32.027 23.9182 31.7652 23.9873 31.4852 24.0273C31.2052 24.0709 30.9288 24.0891 30.6561 24.0818H28.9543V22.7236H30.7325C30.9725 22.7236 31.1943 22.7109 31.3979 22.6855C31.6016 22.6564 31.7779 22.6109 31.927 22.5491C32.0761 22.4836 32.1943 22.3982 32.2816 22.2927C32.3688 22.1873 32.4179 22.0582 32.4288 21.9055C32.4288 21.7491 32.3616 21.5509 32.227 21.3109C32.0961 21.0709 31.9234 20.8036 31.7088 20.5091C31.4979 20.2145 31.2579 19.9036 30.9888 19.5764C30.7234 19.2455 30.4543 18.9109 30.1816 18.5727L30.4107 17.4655L35.1452 15.1691L35.7016 16.4127L31.5616 18.3273C31.9034 18.7855 32.2434 19.2418 32.5816 19.6964C32.9234 20.1473 33.2652 20.6018 33.607 21.06C33.807 21.3255 33.9907 21.5618 34.1579 21.7691C34.3252 21.9727 34.4925 22.1455 34.6597 22.2873C34.8307 22.4291 35.0088 22.5382 35.1943 22.6145C35.3797 22.6873 35.5888 22.7236 35.8216 22.7236H35.9852V24.0818ZM41.6974 22.7236V24.0818H40.8902C40.5811 24.0818 40.2992 24.04 40.0447 23.9564C39.7902 23.8727 39.5756 23.7491 39.4011 23.5855C39.1974 23.7564 38.9556 23.8818 38.6756 23.9618C38.3992 24.0418 38.0829 24.0818 37.7265 24.0818H35.8392V22.7236H37.7265C37.9483 22.7236 38.1247 22.7036 38.2556 22.6636C38.3902 22.62 38.4902 22.5673 38.5556 22.5055C38.6247 22.4436 38.6683 22.3745 38.6865 22.2982C38.7083 22.2218 38.7192 22.1473 38.7192 22.0745V20.3073H40.072V22.0364C40.072 22.2 40.1083 22.3291 40.1811 22.4236C40.2538 22.5145 40.3356 22.5836 40.4265 22.6309C40.5211 22.6745 40.6138 22.7018 40.7047 22.7127C40.7956 22.72 40.8574 22.7236 40.8902 22.7236H41.6974ZM39.4774 27.0818L38.5611 26.1545L39.4665 25.2164L40.4047 26.1545L39.4774 27.0818ZM37.192 27.0873L36.2756 26.16L37.1756 25.2218L38.1138 26.16L37.192 27.0873ZM41.5307 22.7236C41.8798 22.7236 42.1507 22.6945 42.3435 22.6364C42.5362 22.5745 42.678 22.4982 42.7689 22.4073C42.8635 22.3164 42.9198 22.2164 42.938 22.1073C42.9598 21.9982 42.9707 21.8945 42.9707 21.7964V16.2164H44.3235V21.7964C44.3235 22.0364 44.3944 22.2436 44.5362 22.4182C44.6816 22.5927 44.8853 22.6945 45.1471 22.7236H45.278V24.0818H45.1416C44.9598 24.0782 44.7998 24.0655 44.6616 24.0436C44.5271 24.0218 44.4035 23.9873 44.2907 23.94C44.178 23.8891 44.0689 23.8236 43.9635 23.7436C43.8616 23.6636 43.7544 23.5655 43.6416 23.4491C43.5471 23.5655 43.4344 23.6655 43.3035 23.7491C43.1762 23.8291 43.0253 23.8945 42.8507 23.9455C42.6798 23.9927 42.4853 24.0273 42.2671 24.0491C42.0489 24.0709 41.8035 24.0818 41.5307 24.0818V22.7236ZM49.1272 19.5C49.1344 19.5255 49.149 19.5855 49.1708 19.68C49.1963 19.7745 49.2235 19.8909 49.2526 20.0291C49.2817 20.1636 49.3108 20.3145 49.3399 20.4818C49.3726 20.6491 49.4017 20.8182 49.4272 20.9891C49.4563 21.1564 49.4781 21.32 49.4926 21.48C49.5108 21.64 49.5199 21.78 49.5199 21.9C49.5199 22.2745 49.4581 22.6 49.3344 22.8764C49.2108 23.1491 49.049 23.3745 48.849 23.5527C48.649 23.7309 48.4235 23.8636 48.1726 23.9509C47.9253 24.0382 47.6762 24.0818 47.4253 24.0818H45.0744V22.7236H47.4635C47.5072 22.7236 47.569 22.7182 47.649 22.7073C47.7326 22.6927 47.8144 22.6582 47.8944 22.6036C47.9781 22.5491 48.0508 22.4673 48.1126 22.3582C48.1744 22.2455 48.2053 22.0927 48.2053 21.9C48.2053 21.82 48.1981 21.7236 48.1835 21.6109C48.1726 21.4945 48.1562 21.3709 48.1344 21.24C48.1126 21.1091 48.0872 20.9764 48.0581 20.8418C48.0326 20.7036 48.0072 20.5745 47.9817 20.4545C47.9563 20.3309 47.9308 20.22 47.9053 20.1218C47.8799 20.02 47.8599 19.9418 47.8453 19.8873L49.1272 19.5ZM45.3253 25.8764L46.2526 24.9491L47.1799 25.8873L46.2526 26.8145L45.3253 25.8764ZM47.5999 25.8873L48.5381 24.96L49.4653 25.8982L48.5381 26.8255L47.5999 25.8873ZM46.5144 27.4145L47.3763 26.5527L48.249 27.4255L47.3872 28.2873L46.5144 27.4145ZM52.2284 24.0818H50.8702V16.2164H52.2284V24.0818ZM64.2555 20.3127V22.0964C64.2555 22.6345 64.0919 23.0782 63.7646 23.4273C63.3573 23.86 62.7646 24.0782 61.9864 24.0818H55.6919C55.4228 24.0818 55.1682 24.0364 54.9282 23.9455C54.6882 23.8545 54.4755 23.7218 54.2901 23.5473C54.2173 23.4782 54.141 23.3945 54.061 23.2964C53.9846 23.1982 53.9155 23.0818 53.8537 22.9473C53.7919 22.8127 53.741 22.6618 53.701 22.4945C53.661 22.3236 53.641 22.1327 53.641 21.9218C53.641 21.74 53.6591 21.5436 53.6955 21.3327C53.7319 21.1182 53.7719 20.9164 53.8155 20.7273C53.8628 20.5382 53.9064 20.3745 53.9464 20.2364C53.9864 20.0982 54.0119 20.0127 54.0228 19.98L54.6719 20.1873L55.3155 20.3891C55.2828 20.4873 55.2482 20.6055 55.2119 20.7436C55.1755 20.8782 55.141 21.0182 55.1082 21.1636C55.0755 21.3055 55.0482 21.4436 55.0264 21.5782C55.0046 21.7127 54.9937 21.8291 54.9937 21.9273C54.9937 22.1018 55.0173 22.2436 55.0646 22.3527C55.1155 22.4582 55.1755 22.54 55.2446 22.5982C55.3173 22.6527 55.3955 22.6891 55.4791 22.7073C55.5628 22.7255 55.6373 22.7345 55.7028 22.7345H61.9482C62.1482 22.7345 62.3191 22.7164 62.461 22.68C62.6028 22.64 62.7082 22.5836 62.7773 22.5109C62.861 22.4164 62.9028 22.28 62.9028 22.1018V20.3127H64.2555ZM57.9555 25.9036L58.9373 24.9109L59.941 25.9145L58.9482 26.9073L57.9555 25.9036ZM65.6037 25.6527C65.8946 25.6527 66.1528 25.6418 66.3783 25.62C66.6074 25.6018 66.8092 25.5727 66.9837 25.5327C67.1619 25.4964 67.3164 25.4473 67.4474 25.3855C67.5819 25.3273 67.6983 25.2564 67.7964 25.1727C67.9492 25.0491 68.0637 24.9055 68.1401 24.7418C68.2201 24.5782 68.2674 24.3582 68.2819 24.0818H67.4419C67.2601 24.0818 67.0746 24.0673 66.8855 24.0382C66.6964 24.0091 66.5146 23.96 66.3401 23.8909C66.1655 23.8182 66.0001 23.7255 65.8437 23.6127C65.691 23.5 65.5564 23.3618 65.4401 23.1982C65.3274 23.0309 65.2364 22.8345 65.1674 22.6091C65.1019 22.3836 65.0692 22.1255 65.0692 21.8345C65.0692 21.5836 65.091 21.3618 65.1346 21.1691C65.1783 20.9727 65.2328 20.8 65.2983 20.6509C65.3674 20.5018 65.4437 20.3727 65.5274 20.2636C65.611 20.1509 65.691 20.0527 65.7674 19.9691C65.9855 19.7509 66.2328 19.5836 66.5092 19.4673C66.7855 19.3473 67.0837 19.2873 67.4037 19.2873C67.8001 19.2873 68.1383 19.3564 68.4183 19.4945C68.7019 19.6291 68.9328 19.8164 69.111 20.0564C69.2928 20.2964 69.4255 20.5818 69.5092 20.9127C69.5928 21.24 69.6346 21.5964 69.6346 21.9818V23.9182C69.6346 24.46 69.5528 24.9145 69.3892 25.2818C69.2255 25.6527 68.9764 25.9709 68.6419 26.2364C68.4746 26.3673 68.2928 26.48 68.0964 26.5745C67.9001 26.6727 67.6801 26.7545 67.4364 26.82C67.1928 26.8855 66.9201 26.9327 66.6183 26.9618C66.3201 26.9945 65.9819 27.0109 65.6037 27.0109V25.6527ZM67.4037 20.6455C67.0946 20.6455 66.8492 20.7418 66.6674 20.9345C66.4855 21.1273 66.3946 21.4273 66.3946 21.8345C66.3946 21.9945 66.4255 22.1309 66.4874 22.2436C66.5528 22.3564 66.6346 22.4491 66.7328 22.5218C66.8346 22.5909 66.9474 22.6418 67.071 22.6745C67.1946 22.7073 67.3183 22.7236 67.4419 22.7236H68.2819V21.9818C68.2819 21.7745 68.2655 21.5982 68.2328 21.4527C68.2001 21.3036 68.1564 21.18 68.1019 21.0818C68.051 20.9836 67.991 20.9055 67.9219 20.8473C67.8564 20.7891 67.791 20.7455 67.7255 20.7164C67.6637 20.6873 67.6037 20.6691 67.5455 20.6618C67.4874 20.6509 67.4401 20.6455 67.4037 20.6455ZM80.9904 24.0818H80.8377C80.5541 24.0818 80.2813 24.0545 80.0195 24C79.7577 23.9491 79.5159 23.8709 79.2941 23.7655C79.0723 23.6564 78.8741 23.5182 78.6995 23.3509C78.5286 23.1836 78.3886 22.9855 78.2795 22.7564C78.1923 22.8909 78.0795 23.0109 77.9413 23.1164C77.8068 23.2182 77.6595 23.3036 77.4995 23.3727C77.3395 23.4418 77.1741 23.4945 77.0032 23.5309C76.8323 23.5636 76.6686 23.58 76.5123 23.58C76.2213 23.58 75.945 23.5291 75.6832 23.4273C75.425 23.3255 75.1977 23.1818 75.0013 22.9964C74.805 22.8073 74.6486 22.5782 74.5323 22.3091C74.4195 22.04 74.3632 21.7364 74.3632 21.3982C74.3632 21.0055 74.4377 20.66 74.5868 20.3618C74.7359 20.0636 74.9341 19.8036 75.1813 19.5818C75.4286 19.3564 75.7123 19.1655 76.0323 19.0091C76.3559 18.8491 76.6904 18.7109 77.0359 18.5945L76.905 18.0709L78.2359 17.76L79.2286 21.6218C79.2868 21.8582 79.3813 22.0491 79.5123 22.1945C79.6432 22.3364 79.785 22.4473 79.9377 22.5273C80.0941 22.6036 80.2523 22.6564 80.4123 22.6855C80.5759 22.7109 80.7177 22.7236 80.8377 22.7236H80.9904V24.0818ZM77.6304 21.3709C77.6523 21.2691 77.6595 21.1673 77.6523 21.0655C77.645 20.96 77.6286 20.8491 77.6032 20.7327C77.5777 20.6164 77.5432 20.4909 77.4995 20.3564C77.4595 20.2218 77.4159 20.0709 77.3686 19.9036C76.7868 20.0891 76.345 20.3 76.0432 20.5364C75.745 20.7691 75.5959 21.0582 75.5959 21.4036C75.5959 21.5382 75.625 21.6582 75.6832 21.7636C75.745 21.8691 75.8232 21.9564 75.9177 22.0255C76.0159 22.0945 76.1232 22.1455 76.2395 22.1782C76.3595 22.2073 76.4795 22.2127 76.5995 22.1945C76.8723 22.1545 77.0995 22.0745 77.2813 21.9545C77.4632 21.8309 77.5795 21.6364 77.6304 21.3709ZM88.1544 21.9109C88.1362 21.9218 88.078 21.9618 87.9798 22.0309C87.8817 22.0964 87.7489 22.1818 87.5817 22.2873C87.618 22.3964 87.6744 22.4818 87.7508 22.5436C87.8271 22.6018 87.9053 22.6455 87.9853 22.6745C88.0653 22.7 88.1398 22.7145 88.2089 22.7182C88.2817 22.7218 88.3326 22.7236 88.3617 22.7236H89.3598V24.0818H88.3617C87.9289 24.0782 87.5398 23.9836 87.1944 23.7982C86.8526 23.6091 86.5853 23.3273 86.3926 22.9527C86.1126 23.0909 85.8108 23.2291 85.4871 23.3673C85.1635 23.5018 84.8253 23.6218 84.4726 23.7273C84.1198 23.8327 83.758 23.9182 83.3871 23.9836C83.0162 24.0491 82.6453 24.0818 82.2744 24.0818H80.6489V22.7236H82.2744C82.6308 22.7236 83.0108 22.6873 83.4144 22.6145C83.818 22.5418 84.2162 22.4491 84.6089 22.3364C85.0017 22.22 85.3744 22.0909 85.7271 21.9491C86.0835 21.8073 86.3926 21.6673 86.6544 21.5291C86.4908 21.4782 86.3108 21.4236 86.1144 21.3655C85.918 21.3036 85.718 21.2436 85.5144 21.1855C85.3108 21.1236 85.1089 21.0655 84.9089 21.0109C84.7089 20.9527 84.5217 20.9018 84.3471 20.8582C84.1726 20.8145 84.0162 20.78 83.878 20.7545C83.7398 20.7291 83.6308 20.7164 83.5508 20.7164C83.4671 20.7164 83.3926 20.7273 83.3271 20.7491C83.2653 20.7673 83.2089 20.8 83.158 20.8473C83.1071 20.8909 83.0598 20.9491 83.0162 21.0218C82.9726 21.0945 82.9271 21.1818 82.8798 21.2836L81.6308 20.9073C81.6998 20.6891 81.7835 20.4855 81.8817 20.2964C81.9835 20.1036 82.1053 19.9364 82.2471 19.7945C82.3926 19.6527 82.5598 19.5418 82.7489 19.4618C82.938 19.3782 83.1544 19.3364 83.398 19.3364C83.4926 19.3364 83.6271 19.3564 83.8017 19.3964C83.9762 19.4364 84.1744 19.4891 84.3962 19.5545C84.618 19.62 84.8544 19.6945 85.1053 19.7782C85.3598 19.8618 85.6144 19.9491 85.8689 20.04C86.1235 20.1309 86.3708 20.22 86.6108 20.3073C86.8508 20.3945 87.0671 20.4745 87.2598 20.5473C87.4526 20.6164 87.6144 20.6745 87.7453 20.7218C87.8762 20.7691 87.9598 20.7982 87.9962 20.8091L88.1544 21.9109ZM82.2635 17.1218L83.2453 16.1291L84.2489 17.1327L83.2562 18.1255L82.2635 17.1218ZM88.9973 22.7236H89.701C89.9155 22.7236 90.0882 22.7055 90.2191 22.6691C90.3537 22.6327 90.4573 22.58 90.5301 22.5109C90.6064 22.4382 90.6573 22.3509 90.6828 22.2491C90.7082 22.1473 90.721 22.0309 90.721 21.9V20.3127H92.0791V21.8727C92.0791 22.1673 92.1501 22.3818 92.2919 22.5164C92.4337 22.6509 92.6591 22.72 92.9682 22.7236H92.9628C93.0173 22.72 93.0828 22.7091 93.1591 22.6909C93.2391 22.6727 93.3155 22.6364 93.3882 22.5818C93.4646 22.5236 93.5282 22.4418 93.5791 22.3364C93.6337 22.2273 93.661 22.0818 93.661 21.9V20.3127H95.0137V21.8727C95.0137 22.1709 95.0846 22.3873 95.2264 22.5218C95.3682 22.6564 95.5991 22.7236 95.9191 22.7236C96.0064 22.7236 96.0919 22.7109 96.1755 22.6855C96.2628 22.6564 96.341 22.6109 96.4101 22.5491C96.4791 22.4836 96.5355 22.4 96.5791 22.2982C96.6228 22.1964 96.6482 22.0709 96.6555 21.9218V21.9273V20.3127H98.0137V21.9273C98.021 22.2073 98.1064 22.4109 98.2701 22.5382C98.4337 22.6618 98.6846 22.7236 99.0228 22.7236H99.5573V24.0818H99.0228C98.6482 24.0818 98.3228 24.0418 98.0464 23.9618C97.7701 23.8782 97.5319 23.7436 97.3319 23.5582C97.1464 23.7291 96.9282 23.86 96.6773 23.9509C96.4301 24.0382 96.1773 24.0818 95.9191 24.0818C95.5773 24.0818 95.2773 24.04 95.0191 23.9564C94.7646 23.8727 94.5373 23.7382 94.3373 23.5527C94.1482 23.72 93.9355 23.8491 93.6991 23.94C93.4664 24.0309 93.2301 24.0782 92.9901 24.0818C92.6482 24.0855 92.3464 24.0418 92.0846 23.9509C91.8264 23.86 91.6028 23.7345 91.4137 23.5745C90.9882 23.9127 90.4173 24.0818 89.701 24.0818H88.9973V22.7236ZM102.413 19.5C102.421 19.5255 102.435 19.5855 102.457 19.68C102.482 19.7745 102.51 19.8909 102.539 20.0291C102.568 20.1636 102.597 20.3145 102.626 20.4818C102.659 20.6491 102.688 20.8182 102.713 20.9891C102.742 21.1564 102.764 21.32 102.779 21.48C102.797 21.64 102.806 21.78 102.806 21.9C102.806 22.2745 102.744 22.6 102.621 22.8764C102.497 23.1491 102.335 23.3745 102.135 23.5527C101.935 23.7309 101.71 23.8636 101.459 23.9509C101.211 24.0382 100.962 24.0818 100.711 24.0818H99.2605V22.7236H100.75C100.793 22.7236 100.855 22.7182 100.935 22.7073C101.019 22.6927 101.101 22.6582 101.181 22.6036C101.264 22.5491 101.337 22.4673 101.399 22.3582C101.461 22.2455 101.491 22.0927 101.491 21.9C101.491 21.82 101.484 21.7236 101.47 21.6109C101.459 21.4945 101.442 21.3709 101.421 21.24C101.399 21.1091 101.373 20.9764 101.344 20.8418C101.319 20.7036 101.293 20.5745 101.268 20.4545C101.242 20.3309 101.217 20.22 101.191 20.1218C101.166 20.02 101.146 19.9418 101.131 19.8873L102.413 19.5ZM100.101 17.3073L101.082 16.3145L102.086 17.3182L101.093 18.3109L100.101 17.3073Z" fill="#424750"/>
<path fill-rule="evenodd" clip-rule="evenodd" d="M122.311 8.33325C122.461 9.70067 121.912 11.0714 121.097 12.0593C120.282 13.0451 118.945 13.8127 117.636 13.7105C117.459 12.3705 118.12 10.9748 118.875 10.1003C119.716 9.1146 121.138 8.38101 122.311 8.33325ZM126.538 16.2988C126.299 16.4467 124.007 17.8662 124.035 20.7312C124.065 24.1846 127 25.3832 127.16 25.4484C127.163 25.4498 127.166 25.4511 127.166 25.4511C127.165 25.4553 127.162 25.4636 127.158 25.4758C127.089 25.6984 126.617 27.2103 125.55 28.7693C124.577 30.1911 123.57 31.6062 121.98 31.6358C121.216 31.6501 120.705 31.4291 120.174 31.1994C119.619 30.959 119.041 30.709 118.128 30.709C117.17 30.709 116.566 30.9667 115.983 31.215C115.479 31.4299 114.991 31.6377 114.305 31.6651C112.771 31.722 111.602 30.1299 110.622 28.7124C108.617 25.8166 107.086 20.527 109.144 16.9563C110.163 15.1826 111.99 14.0604 113.97 14.031C114.824 14.0155 115.652 14.3438 116.376 14.6311C116.929 14.8506 117.422 15.0462 117.82 15.0462C118.178 15.0462 118.658 14.8569 119.218 14.6362C120.099 14.2889 121.177 13.8639 122.288 13.9764C123.048 14.0082 125.183 14.2829 126.554 16.2886C126.551 16.2907 126.545 16.2941 126.538 16.2988Z" fill="#424750"/>
<path d="M4 1H131V-1H4V1ZM134 4V36H136V4H134ZM131 39H4V41H131V39ZM1 36V4H-1V36H1ZM4 39C2.34315 39 1 37.6569 1 36H-1C-1 38.7614 1.23858 41 4 41V39ZM134 36C134 37.6569 132.657 39 131 39V41C133.761 41 136 38.7614 136 36H134ZM131 1C132.657 1 134 2.34315 134 4H136C136 1.23858 133.761 -1 131 -1V1ZM4 -1C1.23858 -1 -1 1.23858 -1 4H1C1 2.34315 2.34315 1 4 1V-1Z" fill="#DDDDDD"/>
</svg>
