<svg width="151" height="44" viewBox="0 0 151 44" fill="none" xmlns="http://www.w3.org/2000/svg">
<rect x="1" y="0.5" width="149" height="43" rx="3.5" fill="white" stroke="#E0E0E0"/>
<path fill-rule="evenodd" clip-rule="evenodd" d="M31.31 10.5L30.72 11.1L31.31 11.7L31.91 11.1L31.31 10.5ZM31.56 15.39C31.6562 15.1268 31.7102 14.8501 31.72 14.57V12.5H30.91V14.5C30.9102 14.6922 30.8867 14.8836 30.84 15.07C30.7974 15.2092 30.7219 15.3361 30.62 15.44C30.5142 15.5425 30.3831 15.615 30.24 15.65C30.0634 15.6931 29.8819 15.7133 29.7 15.71H29.29V16.53H29.7C29.9828 16.5324 30.2637 16.485 30.53 16.39C30.7623 16.306 30.9738 16.173 31.15 16C31.3257 15.8258 31.4651 15.6185 31.56 15.39Z" fill="black"/>
<path d="M33.43 14.77H32.61V10.06H33.43V14.77Z" fill="black"/>
<path fill-rule="evenodd" clip-rule="evenodd" d="M36.86 9.44C36.5839 9.44 36.36 9.66386 36.36 9.94C36.3669 10.0642 36.4248 10.18 36.52 10.26C36.7282 10.4347 37.0318 10.4347 37.24 10.26C37.3206 10.1733 37.3637 10.0583 37.36 9.94C37.36 9.66386 37.1362 9.44 36.86 9.44ZM36.41 14.72H37.26V10.92H36.41V14.72Z" fill="black"/>
<path fill-rule="evenodd" clip-rule="evenodd" d="M42.01 13.62C42.1893 13.2034 42.2779 12.7535 42.27 12.3V12C42.2826 11.5387 42.1903 11.0805 42 10.66C41.8416 10.3079 41.5846 10.0092 41.26 9.8C40.5743 9.39927 39.7258 9.39927 39.04 9.8C38.7123 10.017 38.4523 10.322 38.29 10.68C38.1108 11.0966 38.0222 11.5466 38.03 12V12.33C38.0218 12.7781 38.1141 13.2223 38.3 13.63C38.4566 13.9864 38.7183 14.2865 39.05 14.49C39.7358 14.8907 40.5843 14.8907 41.27 14.49C41.5988 14.2813 41.8568 13.978 42.01 13.62ZM41.06 10.7C41.295 11.0913 41.4065 11.5444 41.38 12V12.29C41.4092 12.7491 41.2975 13.2061 41.06 13.6C40.8629 13.901 40.5192 14.0729 40.16 14.05C39.7945 14.0657 39.4468 13.8918 39.24 13.59C39.001 13.2 38.886 12.7467 38.91 12.29V12C38.8864 11.542 39.0051 11.0878 39.25 10.7C39.4472 10.399 39.7909 10.2272 40.15 10.25C40.5106 10.2337 40.8542 10.4036 41.06 10.7Z" fill="black"/>
<path d="M45.7401 13.41C45.7515 13.2076 45.6615 13.0127 45.5001 12.89C45.2416 12.716 44.9535 12.5906 44.6501 12.52C44.3 12.4237 43.9639 12.2825 43.6501 12.1C43.2241 11.8784 42.955 11.4401 42.9501 10.96C42.9485 10.5662 43.134 10.195 43.4501 9.96002C43.826 9.67665 44.2899 9.53501 44.7601 9.56002C45.088 9.55157 45.4134 9.62006 45.7101 9.76002C45.9779 9.88161 46.2065 10.0756 46.3701 10.32C46.5212 10.5594 46.6009 10.8369 46.6001 11.12H45.7201C45.7315 10.8838 45.6403 10.6541 45.4701 10.49C45.2655 10.3302 45.009 10.2518 44.7501 10.27C44.5131 10.2554 44.2778 10.3186 44.0801 10.45C43.9213 10.5749 43.8321 10.7682 43.8401 10.97C43.8371 11.1617 43.9361 11.3406 44.1001 11.44C44.3617 11.6081 44.6487 11.7331 44.9501 11.81C45.2999 11.8977 45.6363 12.0322 45.9501 12.21C46.1662 12.3378 46.3481 12.5163 46.4801 12.73C46.5947 12.9417 46.6532 13.1793 46.6501 13.42C46.6589 13.8132 46.4762 14.1861 46.1601 14.42C45.7698 14.6869 45.3021 14.817 44.8301 14.79C44.4868 14.7898 44.147 14.7218 43.8301 14.59C43.5419 14.4658 43.2905 14.2695 43.1001 14.02C42.9296 13.7737 42.842 13.4795 42.8501 13.18H43.7401C43.724 13.4348 43.8275 13.6824 44.0201 13.85C44.2605 14.0238 44.5539 14.1086 44.8501 14.09C45.0983 14.1093 45.3456 14.0422 45.5501 13.9C45.6841 13.7737 45.7539 13.5937 45.7401 13.41Z" fill="black"/>
<path fill-rule="evenodd" clip-rule="evenodd" d="M52.7301 14.77H52.8201V13.92H52.7301H52.4801C52.3815 13.9099 52.2861 13.8792 52.2001 13.83C52.1008 13.7815 52.0124 13.7135 51.9401 13.63C51.8544 13.5337 51.7957 13.4164 51.7701 13.29L51.1701 10.97L50.3801 11.16L50.4501 11.47C50.2492 11.543 50.0523 11.6265 49.8601 11.72C49.6731 11.8109 49.4983 11.9252 49.3401 12.06C49.1985 12.1965 49.0803 12.3553 48.9901 12.53C48.8958 12.723 48.8479 12.9353 48.8501 13.15C48.8478 13.339 48.8853 13.5264 48.9601 13.7C49.0238 13.8547 49.1192 13.9944 49.2401 14.11C49.3567 14.2249 49.4965 14.3135 49.6501 14.37C49.8063 14.4306 49.9725 14.4611 50.1401 14.46H50.4401C50.5397 14.4406 50.637 14.4104 50.7301 14.37C50.8267 14.3287 50.9175 14.2749 51.0001 14.21C51.079 14.1528 51.1468 14.0816 51.2001 14C51.2614 14.1368 51.346 14.262 51.4501 14.37C51.5567 14.4711 51.6781 14.5554 51.8101 14.62C51.9472 14.6862 52.0915 14.7366 52.2401 14.77C52.403 14.7853 52.5671 14.7853 52.7301 14.77ZM50.8201 12.96C50.8303 13.0229 50.8303 13.0871 50.8201 13.15H50.8101C50.7922 13.2834 50.7243 13.4049 50.6201 13.49C50.4953 13.5661 50.3553 13.6139 50.2101 13.63C50.1409 13.6449 50.0693 13.6449 50.0001 13.63C49.9316 13.6123 49.8672 13.5817 49.8101 13.54C49.7484 13.502 49.6996 13.4462 49.6701 13.38C49.6294 13.3176 49.6085 13.2445 49.6101 13.17C49.6091 12.9628 49.71 12.7684 49.8801 12.65C50.1204 12.4802 50.3874 12.3518 50.6701 12.27C50.7114 12.3216 50.7127 12.3706 50.7139 12.4169C50.7151 12.4603 50.7162 12.5013 50.7501 12.54C50.8201 12.62 50.8201 12.7 50.8201 12.77C50.825 12.8333 50.825 12.8968 50.8201 12.96Z" fill="black"/>
<path fill-rule="evenodd" clip-rule="evenodd" d="M54.17 10.01L53.59 10.6L54.18 11.2L54.78 10.61L54.17 10.01ZM57.01 13.54L57.12 13.47L57.01 12.8H56.86L56.57 12.69L56.18 12.55L55.74 12.39L55.28 12.23L54.85 12.1L54.5 12L54.24 11.91C54.1065 11.9054 53.9736 11.9292 53.85 11.98C53.7379 12.0265 53.636 12.0944 53.55 12.18C53.4626 12.2689 53.3885 12.3699 53.33 12.48C53.2698 12.5989 53.2196 12.7227 53.18 12.85L53.93 13.08C53.9464 13.0221 53.9736 12.9679 54.01 12.92C54.0308 12.8794 54.0578 12.8423 54.09 12.81C54.1207 12.7806 54.1587 12.7599 54.2 12.75H54.33C54.3931 12.7416 54.457 12.7416 54.52 12.75L54.81 12.81L55.14 12.9L55.5 13L55.89 13.18L56.22 13.28C56.0385 13.3745 55.8515 13.458 55.66 13.53C55.4433 13.6246 55.2192 13.7015 54.99 13.76C54.7573 13.8319 54.5201 13.8887 54.28 13.93C54.053 13.9765 53.8218 14 53.59 14H52.59V14.74H53.59C53.8147 14.7403 54.039 14.7203 54.26 14.68C54.48 14.64 54.7 14.59 54.91 14.53C55.117 14.4672 55.3206 14.3937 55.52 14.31L56.06 14.07C56.1683 14.2796 56.3351 14.4533 56.54 14.57C56.7558 14.6835 56.9963 14.7419 57.24 14.74H57.84V13.93H57.15H57.01L56.87 13.85C56.8288 13.8057 56.795 13.7551 56.77 13.7L57.01 13.54Z" fill="black"/>
<path d="M59.08 14C59.112 13.9867 59.148 13.9867 59.18 14C59.1917 14.0289 59.1917 14.0612 59.18 14.09V14.65C59.196 14.6814 59.196 14.7186 59.18 14.75C59.148 14.7633 59.112 14.7633 59.08 14.75H57.72C57.6837 14.7575 57.6461 14.7463 57.62 14.7201C57.5938 14.6939 57.5825 14.6563 57.59 14.62V14.06C57.5814 14.0306 57.5814 13.9994 57.59 13.97C57.622 13.9567 57.658 13.9567 57.69 13.97L59.08 14Z" fill="black"/>
<path d="M60.4401 14C60.4726 13.99 60.5075 13.99 60.5401 14C60.5487 14.0294 60.5487 14.0606 60.5401 14.09V14.65C60.5534 14.682 60.5534 14.718 60.5401 14.75C60.5075 14.76 60.4726 14.76 60.4401 14.75H59.0701C59.0338 14.7575 58.9962 14.7463 58.97 14.7201C58.9438 14.6939 58.9326 14.6563 58.9401 14.62V14.06C58.9314 14.0306 58.9314 13.9994 58.9401 13.97C58.9721 13.9567 59.0081 13.9567 59.0401 13.97L60.4401 14Z" fill="black"/>
<path d="M60.33 14H60.75C60.853 14.0124 60.9571 14.0124 61.06 14C61.1283 13.9771 61.1925 13.9433 61.25 13.9C61.2914 13.854 61.3222 13.7993 61.34 13.74C61.3454 13.6734 61.3454 13.6066 61.34 13.54V12.54H62.15V13.48C62.1396 13.6191 62.1865 13.7564 62.28 13.86C62.3955 13.9534 62.5419 13.9998 62.69 13.99H62.81C62.8619 13.979 62.9101 13.9549 62.95 13.92C62.9989 13.8802 63.0367 13.8286 63.06 13.77C63.095 13.6914 63.1121 13.606 63.11 13.52V12.52H63.92V13.46C63.9054 13.6026 63.9528 13.7447 64.05 13.85C64.1711 13.963 64.3353 14.0178 64.5 14C64.5528 14.0105 64.6072 14.0105 64.66 14C64.7133 13.9871 64.7619 13.9594 64.8 13.92C64.8412 13.8757 64.875 13.8251 64.9 13.77C64.9125 13.6972 64.9125 13.6228 64.9 13.55V12.55H65.71V13.55C65.7025 13.6895 65.7575 13.8251 65.86 13.92C65.9954 14.0014 66.1523 14.0398 66.31 14.03H66.63V14.84H66.31C66.1143 14.8452 65.9189 14.8216 65.73 14.77C65.57 14.7245 65.4227 14.6423 65.3 14.53C65.1875 14.6331 65.0547 14.7115 64.91 14.76C64.7633 14.8163 64.6071 14.8435 64.45 14.84C64.2708 14.8448 64.0919 14.8211 63.92 14.77C63.767 14.7221 63.6268 14.64 63.51 14.53C63.3956 14.6254 63.2675 14.7029 63.13 14.76C62.9922 14.8106 62.8468 14.8376 62.7 14.84C62.5166 14.8475 62.3334 14.8204 62.16 14.76C62.0116 14.7111 61.8728 14.6367 61.75 14.54C61.46 14.7497 61.1076 14.8554 60.75 14.84H60.33L60.33 14Z" fill="black"/>
<path fill-rule="evenodd" clip-rule="evenodd" d="M67.5701 10.09L66.9801 10.68L67.5701 11.28L68.1701 10.69L67.5701 10.09ZM68.3701 12.1V12L67.7301 12.31C67.7331 12.3566 67.7331 12.4034 67.7301 12.45C67.7801 12.51 67.7801 12.58 67.7801 12.65V12.88V13.12V13.34C67.7845 13.3999 67.7845 13.4601 67.7801 13.52C67.7981 13.6091 67.7981 13.7009 67.7801 13.79C67.7448 13.8465 67.7009 13.8971 67.6501 13.94C67.6039 13.9685 67.5531 13.9888 67.5001 14H66.5001V14.74H67.1701C67.3239 14.7435 67.4769 14.7163 67.6201 14.66C67.7699 14.6095 67.9089 14.5315 68.0301 14.43C68.151 14.3122 68.2493 14.1733 68.3201 14.02C68.3948 13.8359 68.4322 13.6387 68.4301 13.44V13.18V12.89L68.3701 12.58C68.3766 12.4901 68.3766 12.3999 68.3701 12.31V12.1Z" fill="black"/>
<path fill-rule="evenodd" clip-rule="evenodd" d="M73.4201 12.24L72.8701 11.69L73.4101 11.12L73.9701 11.69L73.4201 12.24ZM77.3101 12.51V13.51C77.2987 13.5762 77.2987 13.6438 77.3101 13.71C77.3306 13.7592 77.3613 13.8035 77.4001 13.84C77.4313 13.8779 77.4731 13.9057 77.5201 13.92C77.5561 13.945 77.597 13.962 77.6401 13.97H77.7501H78.0301V14.78H77.5901L77.3301 14.73L77.0901 14.64C77.0124 14.6017 76.9415 14.551 76.8801 14.49C76.5951 14.7098 76.239 14.8167 75.8801 14.79H72.1801C72.0234 14.7885 71.868 14.7615 71.7201 14.71C71.5768 14.6599 71.4469 14.5778 71.3401 14.47C71.2919 14.4244 71.2483 14.3742 71.2101 14.32C71.1005 14.1792 71.0252 14.0149 70.9901 13.84C70.9742 13.7272 70.9742 13.6128 70.9901 13.5C70.9764 13.3804 70.9764 13.2596 70.9901 13.14C70.9901 13.02 70.9901 12.9 71.0601 12.78C71.0937 12.7223 71.095 12.6715 71.0962 12.6255C71.0974 12.5757 71.0985 12.5315 71.1401 12.49C71.201 12.4291 71.1691 12.3798 71.1504 12.3509C71.1446 12.3418 71.1401 12.3348 71.1401 12.33L71.5301 12.46L71.9201 12.58C71.9201 12.64 71.9201 12.71 71.8501 12.79L71.7901 13.04V13.3C71.7866 13.3666 71.7866 13.4334 71.7901 13.5C71.772 13.5857 71.772 13.6743 71.7901 13.76C71.8122 13.8164 71.8505 13.8651 71.9001 13.9C71.935 13.9364 71.9804 13.9609 72.0301 13.97H72.1701H75.9101C76.0128 13.9861 76.1173 13.9861 76.2201 13.97C76.2923 13.9574 76.3588 13.9224 76.4101 13.87C76.464 13.8023 76.4891 13.7161 76.4801 13.63V12.51H77.3101ZM74.2401 11.68L74.7901 12.24L75.3501 11.68L74.7801 11.12L74.2401 11.68Z" fill="black"/>
<path d="M79.36 14C79.392 13.9867 79.428 13.9867 79.46 14C79.4717 14.0289 79.4717 14.0612 79.46 14.09V14.65C79.4761 14.6814 79.4761 14.7186 79.46 14.75C79.428 14.7633 79.392 14.7633 79.36 14.75H78C77.9638 14.7575 77.9262 14.7463 77.9 14.7201C77.8738 14.6939 77.8625 14.6563 77.87 14.62V14.06C77.8614 14.0306 77.8614 13.9994 77.87 13.97C77.902 13.9567 77.938 13.9567 77.97 13.97L79.36 14Z" fill="black"/>
<path d="M80.72 14C80.7526 13.99 80.7874 13.99 80.82 14C80.8286 14.0294 80.8286 14.0606 80.82 14.09V14.65C80.8334 14.682 80.8334 14.718 80.82 14.75C80.7874 14.76 80.7526 14.76 80.72 14.75H79.35C79.3138 14.7575 79.2761 14.7463 79.25 14.7201C79.2238 14.6939 79.2125 14.6563 79.22 14.62V14.06C79.2114 14.0306 79.2114 13.9994 79.22 13.97C79.252 13.9567 79.288 13.9567 79.32 13.97L80.72 14Z" fill="black"/>
<path fill-rule="evenodd" clip-rule="evenodd" d="M81.7701 9.86001L82.3501 9.26001L82.9601 9.87001L82.3601 10.46L81.7701 9.86001ZM80.6201 14.77V14H81.9601C82.1132 14.0118 82.2669 14.0118 82.4201 14C82.5224 13.9831 82.6229 13.9563 82.7201 13.92C82.7824 13.8929 82.8398 13.8557 82.8901 13.81C82.9263 13.7751 82.9567 13.7346 82.9801 13.69C82.7209 13.7198 82.4592 13.7198 82.2001 13.69C81.9914 13.6663 81.7902 13.5981 81.6101 13.49C81.4521 13.3935 81.324 13.255 81.2401 13.09C81.1471 12.9076 81.1024 12.7045 81.1101 12.5C81.1065 12.3216 81.1406 12.1444 81.2101 11.98C81.2718 11.8013 81.3706 11.6378 81.5001 11.5C81.6217 11.3746 81.7682 11.2758 81.9301 11.21C82.101 11.1398 82.2856 11.1091 82.4701 11.12C82.6303 11.1269 82.7886 11.1572 82.9401 11.21C83.0671 11.2654 83.1851 11.3395 83.2901 11.43C83.3861 11.5198 83.4671 11.6245 83.5301 11.74C83.5978 11.8601 83.6515 11.9876 83.6901 12.12C83.7296 12.2612 83.7597 12.4048 83.7801 12.55C83.79 12.6998 83.79 12.8502 83.7801 13V13.25C83.7693 13.5093 83.7082 13.7641 83.6001 14C83.5023 14.1867 83.3618 14.3478 83.1901 14.47C83.0152 14.5821 82.8224 14.6633 82.6201 14.71C82.3991 14.7507 82.1748 14.7708 81.9501 14.77H80.6201ZM82.2701 11.93C82.3464 11.9197 82.4237 11.9197 82.5001 11.93C82.6069 11.9215 82.7141 11.9422 82.8101 11.99C82.8808 12.053 82.9356 12.1318 82.9701 12.22C83.0072 12.3169 83.0341 12.4175 83.0501 12.52V12.82C82.769 12.9006 82.4711 12.9006 82.1901 12.82C82.0094 12.7662 81.8867 12.5985 81.8901 12.41C81.8853 12.3334 81.9026 12.257 81.9401 12.19C81.9694 12.1267 82.0141 12.0717 82.0701 12.03C82.1277 11.9811 82.1963 11.9468 82.2701 11.93Z" fill="black"/>
<path d="M86.16 14.77C85.9537 14.7869 85.7463 14.7869 85.54 14.77C85.3912 14.7477 85.2463 14.7039 85.11 14.64C85.001 14.5893 84.9051 14.514 84.83 14.42C84.7559 14.3236 84.6984 14.2154 84.66 14.1C84.6245 13.9691 84.601 13.8352 84.59 13.7C84.59 13.54 84.59 13.38 84.59 13.19V10.06H85.41V13.15C85.3979 13.2898 85.3979 13.4303 85.41 13.57C85.4135 13.6606 85.445 13.7479 85.5 13.82C85.5645 13.8781 85.6444 13.9163 85.73 13.93C85.8731 13.9426 86.017 13.9426 86.16 13.93V14.77Z" fill="black"/>
<path fill-rule="evenodd" clip-rule="evenodd" d="M88.5 12C88.5058 12.0331 88.5058 12.0669 88.5 12.1V12.31V12.58V12.89V13.18V13.44C88.5021 13.6387 88.4647 13.8359 88.39 14.02C88.3192 14.1733 88.2209 14.3122 88.1 14.43C87.9789 14.5315 87.8398 14.6095 87.69 14.66C87.5466 14.7155 87.3938 14.7427 87.24 14.74H86.02V14H87.57C87.6231 13.9888 87.6739 13.9685 87.72 13.94C87.7682 13.8945 87.8118 13.8442 87.85 13.79C87.8849 13.7044 87.9019 13.6125 87.9 13.52C87.9045 13.4601 87.9045 13.3999 87.9 13.34V13.12C87.9048 13.0401 87.9048 12.9599 87.9 12.88V12.65V12.45V12.31L88.5 12ZM86.74 16.52L86.14 16L86.68 15.44L87.24 16L86.74 16.52ZM87.5 16L88.11 16.52L88.6 16L88.04 15.44L87.5 16Z" fill="black"/>
<path d="M91.35 14.57C91.337 14.8506 91.2797 15.1274 91.18 15.39C91.0885 15.6179 90.9525 15.8252 90.78 16C90.6001 16.1732 90.3853 16.3062 90.15 16.39C89.8839 16.4858 89.6028 16.5332 89.32 16.53H88.92V15.71H89.32C89.5051 15.7126 89.6899 15.6925 89.87 15.65C90.0111 15.6172 90.1396 15.5443 90.24 15.44C90.3419 15.3361 90.4174 15.2092 90.46 15.07C90.5016 14.8831 90.5151 14.6909 90.5 14.5V12.5H91.32L91.35 14.57Z" fill="black"/>
<path d="M93.17 14.78H92.92H92.68L92.42 14.72L92.15 14.64L91.76 14.52L91.99 13.74C92.1835 13.8072 92.3804 13.8639 92.58 13.91C92.77 13.9602 92.9641 13.9937 93.16 14.01C93.3156 14.0359 93.4744 14.0359 93.63 14.01C93.7438 13.9961 93.8422 13.9242 93.89 13.82C93.905 13.7849 93.905 13.7451 93.89 13.71C93.875 13.6565 93.8514 13.6059 93.82 13.56L92.6 11.79L93.28 11.34L93.51 11.68V11.75L93.61 11.9L93.78 12.15L94.04 12.54L94.5 13C94.6054 13.1569 94.6769 13.334 94.71 13.52C94.7415 13.7895 94.6621 14.0602 94.49 14.27C94.429 14.3491 94.3545 14.4168 94.27 14.47C94.1002 14.5807 93.9097 14.6555 93.71 14.69C93.533 14.7357 93.3523 14.7658 93.17 14.78Z" fill="black"/>
<path fill-rule="evenodd" clip-rule="evenodd" d="M110.123 13.1269C110.094 13.213 110.077 13.2622 110.077 13.2704L110.619 13.336C111.061 13.3852 111.521 13.4016 111.98 13.4016C113.456 13.3852 114.686 13.0736 115.686 12.4669C116.703 11.8601 117.523 11.0073 118.13 9.87571C118.31 9.53132 118.49 9.15413 118.638 8.74413C118.693 8.60469 118.738 8.48989 118.774 8.39976C118.835 8.24609 118.868 8.16408 118.868 8.15375C118.769 8.12095 118.572 8.08815 118.244 8.05535C117.802 8.00615 117.342 7.98975 116.883 8.00615C115.456 8.03895 114.259 8.35054 113.275 8.92453C112.226 9.53132 111.389 10.4333 110.75 11.6141C110.553 11.9913 110.389 12.3685 110.241 12.7621C110.192 12.9178 110.151 13.0408 110.123 13.1269ZM110.832 19.9615C112.127 19.9615 113.243 20.4207 114.161 21.3391C115.079 22.2575 115.538 23.3726 115.522 24.6518C115.538 25.7998 115.686 26.833 115.998 27.7513C116.276 28.5877 116.752 29.4733 117.392 30.4081L118.359 31.7201C120.163 29.8013 121.098 27.489 121.147 24.7666V24.7338C121.131 21.8311 120.13 19.3711 118.113 17.354C116.096 15.3368 113.669 14.3364 110.815 14.3364C107.962 14.3364 105.535 15.3368 103.518 17.354C101.5 19.3711 100.5 21.8147 100.5 24.6682C100.5 27.5218 101.5 29.9489 103.518 31.9661C105.535 33.9832 107.978 35 110.832 35C112.833 35 114.637 34.4916 116.244 33.4912L113.423 28.6205C112.669 29.1289 111.799 29.3913 110.832 29.3913C109.536 29.3913 108.421 28.9321 107.503 28.0137C106.617 27.1118 106.158 26.0294 106.125 24.7338C106.125 23.389 106.584 22.2575 107.503 21.3391C108.421 20.4207 109.536 19.9615 110.832 19.9615Z" fill="black"/>
<path fill-rule="evenodd" clip-rule="evenodd" d="M68.6711 19.0066L68.6459 19.0065C68.598 19.006 68.5571 19.0041 68.5221 19.0025C68.3405 18.9942 68.3181 18.9932 68.3156 19.2264L68.3155 29.9398C68.3164 30.2343 68.3318 30.2522 68.601 30.2533L91.1498 30.2533L91.1803 30.2529C91.2856 30.2499 91.3621 30.2304 91.4206 30.1908C91.7446 30.1591 92.0694 30.1093 92.3797 30.0163C93.5947 29.6162 94.2171 28.7567 94.2171 27.3639C94.2022 26.9193 94.1874 26.4748 94.1874 26.0303H89.994V26.045L72.5386 26.0451C72.4844 26.0451 72.4385 26.0465 72.3995 26.0478C72.2045 26.054 72.185 26.0546 72.1914 25.8377L72.1978 25.6598C72.2076 25.3931 72.2044 25.1264 72.2011 24.8597C72.1994 24.7263 72.1978 24.5929 72.1978 24.4596V19.2882L72.1975 19.2623C72.1928 19.0612 72.1302 19.0066 71.9311 19.0066C71.2094 19.0165 70.4811 19.0132 69.755 19.0099C69.3928 19.0083 69.0312 19.0066 68.6711 19.0066ZM66.8337 19.2437C66.8337 20.1476 66.8354 21.0515 66.837 21.9554C66.8403 23.7631 66.8436 25.5709 66.8337 27.3787C66.8337 28.7716 66.2114 29.631 64.9963 30.0311C64.5518 30.1644 64.0776 30.2089 63.6183 30.2385C63.4997 30.2459 63.3775 30.2459 63.2552 30.2459H63.2552C63.1329 30.2459 63.0107 30.2459 62.8922 30.2533C62.693 30.2676 62.6168 30.1999 62.611 29.9978L62.6106 29.9718V19.3178C62.6106 19.0659 62.6699 19.0066 62.9218 19.0066C63.7324 19.0165 64.5496 19.0132 65.3646 19.0099C65.7712 19.0083 66.1773 19.0066 66.5818 19.0066C66.7596 18.9918 66.8337 19.0362 66.8337 19.2437ZM38.4724 19.9698C37.4944 19.3919 36.3534 19.0659 35.1384 19.0659C31.518 19.0659 28.5645 21.9802 28.5 25.5857V29.9274L28.5004 29.9533C28.5061 30.1554 28.5824 30.2231 28.7815 30.2089C28.9001 30.2015 29.0223 30.2015 29.1446 30.2015C29.2668 30.2015 29.3891 30.2015 29.5076 30.1941C29.967 30.1644 30.4411 30.12 30.8857 29.9866C31.4487 29.794 31.8933 29.5125 32.1896 29.1272C32.5749 28.6382 32.6934 28.1344 32.7231 27.3342L32.7241 27.2956C32.7291 27.0921 32.724 26.9192 32.7178 26.7111C32.7116 26.502 32.7044 26.2573 32.7053 25.9104L32.7067 25.7046L32.7083 25.7043C32.7083 24.3558 33.8048 23.2741 35.1384 23.2741C36.2349 23.2741 37.1684 24.0002 37.4648 25.0078C37.4944 25.1116 37.5241 25.2301 37.5389 25.3338L37.5599 25.4162C38.0049 27.1139 39.1336 28.5486 40.621 29.4235C41.599 30.0014 42.7399 30.3274 43.955 30.3274L49.0189 30.3273C50.2387 30.327 51.4851 30.3256 52.7285 30.3241H52.7289H52.7292C55.0263 30.3215 57.3132 30.3188 59.4033 30.3231L60.8918 30.3274C61.1437 30.3274 61.2326 30.283 61.2326 30.0014C61.2252 29.2235 61.2215 28.4456 61.2178 27.6676C61.2141 26.8897 61.2104 26.1118 61.2029 25.3338C61.2029 24.7559 61.1881 24.1929 61.0696 23.615C60.8325 22.3851 60.3139 21.3182 59.3655 20.4884C58.2246 19.4808 56.8465 19.1103 55.3795 19.0955H54.6386C53.068 19.0807 51.4973 19.0807 49.9266 19.0807H44.5033C44.4856 19.0807 44.4662 19.0782 44.446 19.0755C44.3814 19.0671 44.3078 19.0575 44.2514 19.1252C44.1921 19.5252 44.2365 19.9105 44.3106 20.3106C44.3847 20.6958 44.4736 21.0367 44.607 21.3626C44.9182 22.1035 45.4368 22.6814 46.2814 23.0074C46.3407 23.0371 46.3851 23.0519 46.4444 23.0667C46.9037 23.2297 47.3779 23.2741 47.8521 23.289C48.3411 23.3186 48.8449 23.3186 49.3339 23.3186H55.2462C56.1797 23.3186 56.728 23.7483 56.965 24.6522C57.0391 24.9274 57.0603 25.2101 57.0718 25.495L57.0836 25.8376C57.0836 26.0599 57.0243 26.1192 56.8021 26.1192H43.9698C42.8733 26.1192 41.9398 25.3931 41.6434 24.3855C41.6138 24.2818 41.5841 24.1632 41.5693 24.0595L41.5473 23.9758C41.0879 22.2786 39.9594 20.8445 38.4724 19.9698ZM70.9383 31.661C71.3383 31.7499 71.694 31.9574 72.0051 32.2389C72.2919 32.5121 72.4277 32.8481 72.5748 33.2123L72.6127 33.3058C73.1313 31.824 74.3167 31.4832 75.2058 31.661C76.256 31.8798 76.9329 32.7448 76.9114 33.7894L76.9098 33.8393C76.895 34.8765 76.1838 35.7063 75.1613 35.9138C74.0648 36.136 73.1609 35.5729 72.6127 34.269C72.1744 35.6568 71.0304 36.0509 70.1746 35.9339L70.1381 35.9286C69.2194 35.7952 68.4192 35.0099 68.3155 34.106C68.197 33.0391 68.76 32.0908 69.7232 31.7351C70.1233 31.6018 70.5234 31.5721 70.9383 31.661ZM51.2602 31.6462C50.0599 31.5425 49.2894 32.1648 48.9042 33.291C48.3114 31.9574 47.452 31.4388 46.311 31.6759C45.3182 31.8833 44.607 32.7724 44.607 33.8096C44.607 34.8617 45.3182 35.7211 46.3555 35.9434C47.1853 36.1212 48.4448 35.7804 48.919 34.3134C49.2598 35.3359 49.9118 35.9434 50.9638 35.973C52.1048 36.0027 52.8309 35.3803 53.1865 34.2986C53.7496 35.5581 54.5794 36.136 55.6018 35.973C56.6242 35.81 57.3948 35.0395 57.4837 34.0912L57.4891 34.0394C57.5843 33.0234 57.0532 32.1293 56.1353 31.7796C55.5277 31.5425 54.9054 31.5721 54.3275 31.8685C53.7496 32.1648 53.3791 32.6687 53.1865 33.3651C52.8753 32.3427 52.253 31.7351 51.2602 31.6462ZM64.7592 35.973C65.9595 35.9582 66.9078 34.9802 66.893 33.7652C66.8782 32.5501 65.9002 31.6166 64.6555 31.6314C63.4849 31.6462 62.5514 32.639 62.5662 33.8244C62.581 35.0395 63.5442 35.9878 64.7592 35.973Z" fill="black"/>
</svg>
