<svg width="66" height="56" viewBox="0 0 66 56" fill="none" xmlns="http://www.w3.org/2000/svg">
<g id="Android_logo_2019_(stacked) 1" clip-path="url(#clip0_5788_61577)">
<g id="Group">
<g id="Group_2">
<path id="Vector" d="M5.39817 46.3101C3.19218 46.3101 0.923828 48.0778 0.923828 51.1719C0.923828 54.0006 2.91823 55.9986 5.39817 55.9986C7.44522 55.9986 8.35756 54.6246 8.35756 54.6246V55.2235C8.35756 55.5066 8.6252 55.8224 8.95648 55.8224H10.4362V46.5214H8.35756V47.7017C8.35756 47.7017 7.43757 46.3101 5.39817 46.3101ZM5.76844 48.2119C7.58443 48.2119 8.53702 49.809 8.53702 51.1713C8.53702 52.6886 7.40601 54.1295 5.77229 54.1296C4.40661 54.1296 3.03859 53.0235 3.03859 51.1512C3.03859 49.4612 4.21586 48.2119 5.76844 48.2119Z" fill="#0C8CE9"/>
<path id="Vector_2" d="M13.325 55.8223C13.0056 55.8223 12.7261 55.5932 12.7261 55.2234V46.5214H14.8047V47.6723C15.2757 46.9644 16.1959 46.3071 17.6084 46.3071C19.917 46.3071 21.1463 48.1474 21.1463 49.8683V55.8223H19.7018C19.323 55.8223 19.0676 55.5052 19.0676 55.1881V50.3263C19.0676 49.3724 18.4832 48.214 17.1316 48.214C15.6731 48.214 14.8047 49.5923 14.8047 50.89V55.8223L13.325 55.8223Z" fill="#0C8CE9"/>
<path id="Vector_3" d="M27.2057 46.31C24.9998 46.31 22.7314 48.0777 22.7314 51.1718C22.7314 54.0005 24.7258 55.9984 27.2057 55.9984C29.2528 55.9984 30.1652 54.6244 30.1652 54.6244V55.2234C30.1652 55.5064 30.4328 55.8223 30.7641 55.8223H32.2438V41.8708H30.1652V47.7016C30.1652 47.7016 29.2452 46.31 27.2057 46.31ZM27.576 48.2118C29.392 48.2118 30.3446 49.8089 30.3446 51.1711C30.3446 52.6884 29.2136 54.1294 27.5799 54.1294C26.2142 54.1294 24.8462 53.0234 24.8462 51.1511C24.8462 49.4611 26.0234 48.2118 27.576 48.2118Z" fill="#0C8CE9"/>
<path id="Vector_4" d="M35.1331 55.8222C34.8137 55.8222 34.5342 55.5931 34.5342 55.2232V46.5212H36.6128V48.0714C36.9706 47.203 37.7426 46.4155 39.1142 46.4155C39.4965 46.4155 39.854 46.486 39.854 46.486V48.6351C39.854 48.6351 39.4076 48.4589 38.8676 48.4589C37.4091 48.4589 36.6128 49.8372 36.6128 51.1349V55.8222H35.1331Z" fill="#0C8CE9"/>
<path id="Vector_5" d="M52.4666 55.8222C52.1472 55.8222 51.8677 55.5931 51.8677 55.2232V46.5212H53.9463V55.8222L52.4666 55.8222Z" fill="#0C8CE9"/>
<path id="Vector_6" d="M60.0412 46.31C57.8352 46.31 55.5669 48.0777 55.5669 51.1718C55.5669 54.0005 57.5613 55.9984 60.0412 55.9984C62.0883 55.9984 63.0006 54.6244 63.0006 54.6244V55.2234C63.0006 55.5064 63.2683 55.8223 63.5995 55.8223H65.0792V41.8708H63.0006V47.7016C63.0006 47.7016 62.0806 46.31 60.0412 46.31ZM60.4115 48.2118C62.2275 48.2118 63.1801 49.8089 63.1801 51.1711C63.1801 52.6884 62.0491 54.1294 60.4153 54.1294C59.0497 54.1294 57.6817 53.0234 57.6817 51.1511C57.6817 49.4611 58.8589 48.2118 60.4115 48.2118Z" fill="#0C8CE9"/>
<path id="Vector_7" d="M52.8925 44.5157C53.6515 44.5157 54.2669 43.9003 54.2669 43.1413C54.2669 42.3822 53.6515 41.7668 52.8925 41.7668C52.1334 41.7668 51.5181 42.3822 51.5181 43.1413C51.5181 43.9003 52.1334 44.5157 52.8925 44.5157Z" fill="#0C8CE9"/>
<path id="Vector_8" d="M45.3357 46.3069C43.0255 46.3069 40.4873 48.0314 40.4873 51.1553C40.4873 54.002 42.6492 55.9988 45.3307 55.9988C48.6354 55.9988 50.249 53.3422 50.249 51.1733C50.249 48.5119 48.1711 46.3069 45.3357 46.3069ZM45.3433 48.248C46.9409 48.248 48.1326 49.5357 48.1326 51.1612C48.1326 52.8149 46.8676 54.091 45.348 54.091C43.9375 54.091 42.5663 52.9431 42.5663 51.189C42.5663 49.4056 43.8704 48.248 45.3433 48.248Z" fill="#0C8CE9"/>
</g>
<path id="Vector_9" d="M48.6581 10.8317L53.9764 1.61887C54.2765 1.1024 54.0951 0.446333 53.5856 0.146218C53.0761 -0.153892 52.413 0.0205874 52.1199 0.537062L46.7318 9.8685C42.6209 7.99104 37.9936 6.94412 33.0173 6.94412C28.041 6.94412 23.4136 7.99103 19.3028 9.8685L13.9147 0.537062C13.6146 0.0205874 12.9585 -0.153892 12.442 0.146218C11.9256 0.446333 11.7511 1.1024 12.0512 1.61887L17.3695 10.8317C8.19855 15.801 1.98688 25.0836 0.960938 35.9504H65.0737C64.0477 25.0835 57.836 15.8009 48.6581 10.8317ZM18.2977 26.9471C16.8111 26.9471 15.6107 25.7396 15.6107 24.26C15.6107 22.7734 16.8181 21.5729 18.2977 21.5729C19.7844 21.5729 20.9848 22.7804 20.9848 24.26C20.9918 25.7396 19.7844 26.9471 18.2977 26.9471ZM47.7299 26.9471C46.2433 26.9471 45.0429 25.7396 45.0429 24.26C45.0429 22.7734 46.2503 21.5729 47.7299 21.5729C49.2165 21.5729 50.417 22.7804 50.417 24.26C50.424 25.7396 49.2165 26.9471 47.7299 26.9471Z" fill="#0C8CE9"/>
</g>
</g>
<defs>
<clipPath id="clip0_5788_61577">
<rect width="64.1554" height="56" fill="white" transform="translate(0.922363)"/>
</clipPath>
</defs>
</svg>
