<svg width="46" height="56" viewBox="0 0 46 56" fill="none" xmlns="http://www.w3.org/2000/svg">
<g id="Apple_logo_black 1" clip-path="url(#clip0_5788_61806)">
<path id="Vector" d="M44.3416 19.0904C44.0168 19.3424 38.2824 22.5736 38.2824 29.7584C38.2824 38.0688 45.5792 41.0088 45.7976 41.0816C45.764 41.2608 44.6384 45.108 41.9504 49.028C39.5536 52.4776 37.0504 55.9216 33.2424 55.9216C29.4344 55.9216 28.4544 53.7096 24.0584 53.7096C19.7744 53.7096 18.2512 55.9944 14.768 55.9944C11.2848 55.9944 8.85441 52.8024 6.06001 48.8824C2.82321 44.2792 0.208008 37.128 0.208008 30.3408C0.208008 19.4544 7.28641 13.6808 14.2528 13.6808C17.9544 13.6808 21.04 16.1112 23.364 16.1112C25.576 16.1112 29.0256 13.5352 33.2368 13.5352C34.8328 13.5352 40.5672 13.6808 44.3416 19.0904ZM31.2376 8.9264C32.9792 6.86 34.2112 3.9928 34.2112 1.1256C34.2112 0.728 34.1776 0.3248 34.1048 0C31.2712 0.1064 27.9 1.8872 25.8672 4.2448C24.2712 6.0592 22.7816 8.9264 22.7816 11.8328C22.7816 12.2696 22.8544 12.7064 22.888 12.8464C23.0672 12.88 23.3584 12.9192 23.6496 12.9192C26.192 12.9192 29.3896 11.2168 31.2376 8.9264Z" fill="#0C8CE9"/>
</g>
<defs>
<clipPath id="clip0_5788_61806">
<rect width="45.584" height="56" fill="white" transform="translate(0.208008)"/>
</clipPath>
</defs>
</svg>
