<svg width="180" height="46" viewBox="0 0 180 46" fill="none" xmlns="http://www.w3.org/2000/svg">
<g id="Vector">
<path d="M27.7317 21.6321C27.7518 20.1091 28.1673 18.6157 28.9395 17.291C29.7117 15.9663 30.8155 14.8533 32.1481 14.0555C31.3015 12.8783 30.1847 11.9094 28.8863 11.2259C27.5878 10.5424 26.1436 10.1631 24.6683 10.1182C21.5213 9.79652 18.4703 11.9519 16.8665 11.9519C15.2319 11.9519 12.7627 10.1501 10.1038 10.2035C8.38399 10.2576 6.70792 10.7445 5.23888 11.6169C3.76983 12.4893 2.55791 13.7172 1.72119 15.1812C-1.9034 21.2914 0.800264 30.2711 4.27221 35.2102C6.00917 37.6287 8.03935 40.3302 10.6958 40.2343C13.2953 40.1294 14.2663 38.6203 17.404 38.6203C20.5128 38.6203 21.4236 40.2343 24.1339 40.1734C26.9234 40.1294 28.6809 37.7443 30.3569 35.3029C31.6051 33.5796 32.5655 31.6749 33.2026 29.6595C31.5821 28.9922 30.1992 27.8751 29.2263 26.4476C28.2534 25.0201 27.7336 23.3453 27.7317 21.6321ZM22.6123 6.87008C24.1333 5.09231 24.8826 2.80727 24.7011 0.500244C22.3775 0.737918 20.2312 1.81926 18.6898 3.52881C17.9362 4.36394 17.3589 5.33553 16.9911 6.38801C16.6233 7.44049 16.4722 8.55324 16.5463 9.66263C17.7085 9.67429 18.8583 9.42901 19.9091 8.94526C20.9599 8.46152 21.884 7.75209 22.6123 6.87008ZM58.919 34.3548H50.3884L48.3399 40.2445H44.7264L52.8066 18.4537H56.5606L64.6406 40.2445H60.9659L58.919 34.3548ZM51.2719 31.6368H58.0337L54.7004 22.0782H54.607L51.2719 31.6368ZM82.0906 32.3019C82.0906 37.2388 79.3767 40.4107 75.2814 40.4107C74.2439 40.4635 73.2122 40.2308 72.3043 39.7393C71.3963 39.2477 70.6489 38.5171 70.1476 37.6311H70.0701V45.5002H66.7207V24.3573H69.9627V26.9998H70.0243C70.5487 26.1181 71.3087 25.3913 72.2236 24.8967C73.1384 24.4021 74.1739 24.1583 75.2197 24.1911C79.3608 24.1911 82.0906 27.3787 82.0906 32.3019ZM78.6481 32.3019C78.6481 29.0854 76.941 26.9707 74.3363 26.9707C71.7772 26.9707 70.0561 29.1298 70.0561 32.3017C70.0561 35.5029 71.7772 37.6467 74.3363 37.6467C76.941 37.6467 78.6481 35.5477 78.6481 32.3019ZM100.05 32.3019C100.05 37.2388 97.3355 40.4107 93.24 40.4107C92.2025 40.4635 91.1708 40.2308 90.2628 39.7393C89.3549 39.2477 88.6075 38.5171 88.1062 37.6311H88.0287V45.5002H84.6795V24.3573H87.9213V26.9998H87.9829C88.5073 26.1181 89.2673 25.3913 90.1822 24.8967C91.097 24.4021 92.1325 24.1583 93.1783 24.1911C97.3196 24.1911 100.05 27.3787 100.05 32.3019ZM96.6068 32.3019C96.6068 29.0854 94.8996 26.9707 92.2949 26.9707C89.7358 26.9707 88.0146 29.1298 88.0146 32.3017C88.0146 35.5029 89.7358 37.6467 92.2949 37.6467C94.8996 37.6467 96.6068 35.5477 96.6068 32.3019ZM111.918 34.1732C112.166 36.334 114.322 37.7529 117.268 37.7529C120.091 37.7529 122.122 36.334 122.122 34.3855C122.122 32.6941 120.897 31.6814 117.997 30.9874L115.096 30.307C110.987 29.3405 109.079 27.4692 109.079 24.4326C109.079 20.6728 112.444 18.0905 117.22 18.0905C121.951 18.0905 125.193 20.6728 125.302 24.4326H121.921C121.719 22.2581 119.873 20.9453 117.175 20.9453C114.477 20.9453 112.63 22.2735 112.63 24.2064C112.63 25.7471 113.81 26.6536 116.694 27.3474L119.16 27.937C123.752 28.9943 125.658 30.7903 125.658 33.9775C125.658 38.0544 122.324 40.6078 117.02 40.6078C112.056 40.6078 108.706 38.1142 108.489 34.173L111.918 34.1732ZM132.889 20.5977V24.3573H135.992V26.9398H132.889V35.6982C132.889 37.0589 133.511 37.6929 134.875 37.6929C135.243 37.6866 135.611 37.6615 135.976 37.6174V40.1847C135.363 40.2962 134.74 40.3466 134.116 40.3352C130.813 40.3352 129.524 39.1273 129.524 36.046V26.9398H127.152V24.3573H129.524V20.5977H132.889ZM137.787 32.3019C137.787 27.303 140.811 24.162 145.526 24.162C150.257 24.162 153.266 27.303 153.266 32.3019C153.266 37.3142 150.272 40.4416 145.526 40.4416C140.781 40.4416 137.787 37.3142 137.787 32.3019ZM149.854 32.3019C149.854 28.8729 148.24 26.8489 145.526 26.8489C142.812 26.8489 141.198 28.8881 141.198 32.3019C141.198 35.7446 142.812 37.7529 145.526 37.7529C148.24 37.7529 149.854 35.7446 149.854 32.3019ZM156.027 24.3573H159.222V27.0614H159.299C159.516 26.2169 160.024 25.4705 160.738 24.9478C161.453 24.4251 162.331 24.1579 163.224 24.1911C163.61 24.1898 163.995 24.2306 164.372 24.3127V27.3631C163.884 27.2181 163.376 27.1515 162.867 27.166C162.38 27.1468 161.895 27.2303 161.445 27.4108C160.995 27.5914 160.59 27.8647 160.258 28.2119C159.927 28.5592 159.676 28.9722 159.524 29.4226C159.372 29.873 159.322 30.3501 159.377 30.8212V40.2445H156.027V24.3573ZM179.813 35.5782C179.363 38.4624 176.478 40.4416 172.788 40.4416C168.041 40.4416 165.095 37.3451 165.095 32.3772C165.095 27.3939 168.057 24.162 172.647 24.162C177.161 24.162 180 27.1814 180 31.9985V33.1157H168.476V33.3128C168.423 33.8975 168.498 34.4865 168.696 35.0408C168.895 35.595 169.212 36.1018 169.627 36.5274C170.043 36.9531 170.546 37.2878 171.104 37.5094C171.663 37.7311 172.263 37.8345 172.865 37.8129C173.657 37.8851 174.451 37.7066 175.13 37.304C175.809 36.9014 176.336 36.2961 176.633 35.5782H179.813ZM168.492 30.8366H176.649C176.679 30.3109 176.597 29.7848 176.409 29.2913C176.22 28.7979 175.929 28.3477 175.553 27.969C175.177 27.5904 174.725 27.2915 174.225 27.0911C173.725 26.8906 173.188 26.793 172.647 26.8043C172.102 26.8012 171.561 26.9032 171.056 27.1045C170.552 27.3059 170.093 27.6026 169.706 27.9775C169.32 28.3523 169.014 28.798 168.805 29.2887C168.597 29.7795 168.49 30.3056 168.492 30.8366Z" fill="white"/>
<path d="M84.1411 5.69621V9.08021C84.1411 9.81621 84.0131 10.4402 83.7571 10.9522C83.5091 11.4642 83.1411 11.8522 82.6531 12.1162C82.1731 12.3882 81.5811 12.5242 80.8771 12.5242H80.1211V11.2282H80.8771C81.4051 11.2282 81.8211 11.1562 82.1251 11.0122C82.4371 10.8762 82.6611 10.6522 82.7971 10.3402C82.9411 10.0282 83.0131 9.60821 83.0131 9.08021V5.69621H84.1411ZM82.7611 3.44021C82.7531 3.20821 82.8331 3.01221 83.0011 2.85221C83.1691 2.70021 83.3611 2.62421 83.5771 2.62421C83.8011 2.63221 83.9931 2.71621 84.1531 2.87621C84.3131 3.02821 84.3931 3.21621 84.3931 3.44021C84.3931 3.67221 84.3131 3.86821 84.1531 4.02821C83.9931 4.18021 83.8011 4.25621 83.5771 4.25621C83.3531 4.25621 83.1611 4.18021 83.0011 4.02821C82.8411 3.86821 82.7611 3.67221 82.7611 3.44021Z" fill="white"/>
<path d="M85.6882 1.64021H86.8162L86.8282 9.50021H85.7002L85.6882 1.64021Z" fill="white"/>
<path d="M91.2742 3.16421H92.5462V9.50021H91.2742V3.16421ZM91.9102 2.18021C91.6862 2.18021 91.5062 2.11621 91.3702 1.98821C91.2422 1.86021 91.1782 1.69621 91.1782 1.49621C91.1782 1.28821 91.2422 1.12021 91.3702 0.992212C91.5062 0.856212 91.6862 0.788212 91.9102 0.788212C92.1342 0.788212 92.3102 0.856212 92.4382 0.992212C92.5742 1.12021 92.6422 1.28821 92.6422 1.49621C92.6422 1.68821 92.5782 1.85221 92.4502 1.98821C92.3222 2.11621 92.1422 2.18021 91.9102 2.18021Z" fill="white"/>
<path d="M97.5264 9.62021C96.8544 9.62021 96.2544 9.45621 95.7264 9.12821C95.1984 8.80021 94.7864 8.33221 94.4904 7.72421C94.1944 7.10821 94.0424 6.39221 94.0344 5.57621V4.98821C94.0344 4.15621 94.1784 3.42821 94.4664 2.80421C94.7624 2.18021 95.1704 1.70021 95.6904 1.36421C96.2184 1.02021 96.8264 0.848212 97.5144 0.848212C98.2184 0.848212 98.8304 1.01621 99.3504 1.35221C99.8784 1.68821 100.286 2.16821 100.574 2.79221C100.862 3.40821 101.006 4.14021 101.006 4.98821V5.48021C101.006 6.32821 100.862 7.06421 100.574 7.68821C100.286 8.31221 99.8784 8.79221 99.3504 9.12821C98.8304 9.45621 98.2224 9.62021 97.5264 9.62021ZM97.5264 8.52821C97.9824 8.52821 98.3704 8.41621 98.6904 8.19221C99.0184 7.96021 99.2664 7.62421 99.4344 7.18421C99.6104 6.73621 99.6984 6.19621 99.6984 5.56421V4.97621C99.6984 4.32821 99.6144 3.78021 99.4464 3.33221C99.2784 2.87621 99.0304 2.53221 98.7024 2.30021C98.3744 2.06821 97.9784 1.95221 97.5144 1.95221C97.0744 1.95221 96.6904 2.06821 96.3624 2.30021C96.0344 2.52421 95.7824 2.85621 95.6064 3.29621C95.4304 3.72821 95.3424 4.24821 95.3424 4.85621V5.48021C95.3424 6.11221 95.4264 6.66021 95.5944 7.12421C95.7704 7.58021 96.0224 7.92821 96.3504 8.16821C96.6784 8.40821 97.0704 8.52821 97.5264 8.52821Z" fill="white"/>
<path d="M105.476 9.59621C104.908 9.59621 104.372 9.49621 103.868 9.29621C103.364 9.08821 102.956 8.78421 102.644 8.38421C102.332 7.98421 102.176 7.50821 102.176 6.95621H103.496C103.496 7.45221 103.672 7.84421 104.024 8.13221C104.376 8.41221 104.86 8.55221 105.476 8.55221C105.836 8.55221 106.14 8.50421 106.388 8.40821C106.636 8.30421 106.824 8.16021 106.952 7.97621C107.088 7.79221 107.156 7.56821 107.156 7.30421C107.156 7.06421 107.108 6.86421 107.012 6.70421C106.924 6.53621 106.772 6.38821 106.556 6.26021C106.396 6.14821 106.22 6.06021 106.028 5.99621C105.844 5.92421 105.596 5.84021 105.284 5.74421C105.02 5.66421 104.78 5.58821 104.564 5.51621C104.356 5.43621 104.148 5.34421 103.94 5.24021C103.428 4.99221 103.052 4.69621 102.812 4.35221C102.572 4.00821 102.452 3.61621 102.452 3.17621C102.452 2.71221 102.58 2.30421 102.836 1.95221C103.092 1.60021 103.444 1.32421 103.892 1.12421C104.348 0.924212 104.856 0.824212 105.416 0.824212C105.976 0.824212 106.488 0.932212 106.952 1.14821C107.416 1.35621 107.784 1.66021 108.056 2.06021C108.328 2.45221 108.464 2.90821 108.464 3.42821H107.156C107.156 3.10821 107.084 2.83221 106.94 2.60021C106.804 2.36821 106.604 2.19221 106.34 2.07221C106.084 1.94421 105.772 1.88021 105.404 1.88021C105.068 1.88021 104.776 1.93221 104.528 2.03621C104.28 2.14021 104.088 2.28821 103.952 2.48021C103.824 2.67221 103.76 2.90021 103.76 3.16421C103.76 3.35621 103.808 3.53221 103.904 3.69221C104.008 3.84421 104.168 3.98821 104.384 4.12421C104.56 4.22821 104.744 4.32021 104.936 4.40021C105.136 4.47221 105.384 4.55221 105.68 4.64021C105.968 4.72821 106.224 4.81621 106.448 4.90421C106.68 4.98421 106.908 5.08421 107.132 5.20421C107.588 5.46021 107.928 5.75621 108.152 6.09221C108.376 6.42821 108.488 6.82821 108.488 7.29221C108.488 7.75621 108.364 8.16421 108.116 8.51621C107.868 8.86021 107.516 9.12821 107.06 9.32021C106.604 9.50421 106.076 9.59621 105.476 9.59621Z" fill="white"/>
<path d="M117.199 6.99221C117.303 7.44021 117.511 7.75621 117.823 7.94021C118.135 8.11621 118.507 8.20421 118.939 8.20421H119.179L119.251 8.84021L119.179 9.50021H118.939C118.315 9.50021 117.731 9.32821 117.187 8.98421C116.651 8.64021 116.287 8.08021 116.095 7.30421C115.767 5.91221 115.439 4.52421 115.111 3.14021L116.215 2.85221L117.199 6.99221ZM116.827 5.60021C116.883 6.11221 116.887 6.54021 116.839 6.88421C116.799 7.22021 116.691 7.54021 116.515 7.84421C116.299 8.22021 116.023 8.51221 115.687 8.72021C115.351 8.92021 114.987 9.02021 114.595 9.02021C114.203 9.02021 113.823 8.91221 113.455 8.69621C113.103 8.49621 112.827 8.21221 112.627 7.84421C112.427 7.47621 112.323 7.08021 112.315 6.65621C112.315 6.23221 112.419 5.84421 112.627 5.49221C112.771 5.25221 112.935 5.04821 113.119 4.88021C113.311 4.71221 113.611 4.52421 114.019 4.31621C114.435 4.10021 115.043 3.83221 115.843 3.51221L116.275 4.71221C115.659 4.91221 115.167 5.10021 114.799 5.27621C114.431 5.44421 114.163 5.60021 113.995 5.74421C113.827 5.88021 113.699 6.02021 113.611 6.16421C113.451 6.42021 113.407 6.68421 113.479 6.95621C113.559 7.22821 113.723 7.44421 113.971 7.60421C114.227 7.75621 114.511 7.80421 114.823 7.74821C115.135 7.68421 115.395 7.52421 115.603 7.26821C115.739 7.10821 115.819 6.92021 115.843 6.70421C115.867 6.48821 115.839 6.17621 115.759 5.76821L116.827 5.60021Z" fill="white"/>
<path d="M126.345 9.50021C125.801 9.50021 125.341 9.34821 124.965 9.04421C124.597 8.74021 124.389 8.29221 124.341 7.70021L125.025 7.25621C125.081 7.56821 125.221 7.80421 125.445 7.96421C125.677 8.12421 125.969 8.20421 126.321 8.20421H127.341L127.425 8.84021L127.341 9.50021H126.345ZM119.013 8.20421H120.489C121.025 8.20421 121.529 8.14421 122.001 8.02421C122.481 7.90421 122.929 7.74421 123.345 7.54421C123.761 7.34421 124.253 7.07621 124.821 6.74021L125.181 6.52421L125.193 6.88421L124.557 6.63221C123.805 6.33621 123.185 6.10821 122.697 5.94821C122.209 5.78021 121.881 5.69621 121.713 5.69621C121.497 5.69621 121.325 5.74821 121.197 5.85221C121.069 5.95621 120.953 6.15621 120.849 6.45221L119.793 6.11621C119.977 5.53221 120.237 5.10421 120.573 4.83221C120.909 4.55221 121.289 4.41221 121.713 4.41221C121.993 4.41221 122.425 4.51621 123.009 4.72421C123.593 4.93221 124.377 5.24021 125.361 5.64821C125.593 5.74421 125.793 5.82821 125.961 5.90021L126.201 7.28021L125.625 7.64021C124.945 8.07221 124.365 8.41221 123.885 8.66021C123.405 8.90821 122.881 9.11221 122.313 9.27221C121.753 9.42421 121.145 9.50021 120.489 9.50021H119.013V8.20421ZM121.065 2.64821C121.057 2.41621 121.137 2.22021 121.305 2.06021C121.473 1.90821 121.665 1.83221 121.881 1.83221C122.105 1.84021 122.297 1.92421 122.457 2.08421C122.617 2.23621 122.697 2.42421 122.697 2.64821C122.697 2.88021 122.617 3.07621 122.457 3.23621C122.297 3.38821 122.105 3.46421 121.881 3.46421C121.657 3.46421 121.465 3.38821 121.305 3.23621C121.145 3.07621 121.065 2.88021 121.065 2.64821Z" fill="white"/>
<path d="M132.486 8.75621C132.326 8.98821 132.114 9.17221 131.85 9.30821C131.594 9.43621 131.31 9.50021 130.998 9.50021C130.71 9.50021 130.422 9.43221 130.134 9.29621C129.846 9.16021 129.626 8.98021 129.474 8.75621C129.298 8.99621 129.078 9.18021 128.814 9.30821C128.558 9.43621 128.274 9.50021 127.962 9.50021H127.206V8.20421H127.986C128.338 8.20421 128.586 8.13621 128.73 8.00021C128.882 7.85621 128.958 7.60821 128.958 7.25621V5.69621H130.098V7.24421C130.098 7.58821 130.17 7.83621 130.314 7.98821C130.458 8.13221 130.69 8.20421 131.01 8.20421C131.338 8.20421 131.574 8.13221 131.718 7.98821C131.862 7.83621 131.934 7.58821 131.934 7.24421V5.69621H133.062V7.24421C133.062 7.58021 133.146 7.82421 133.314 7.97621C133.482 8.12821 133.718 8.20421 134.022 8.20421C134.342 8.20421 134.57 8.13221 134.706 7.98821C134.85 7.83621 134.922 7.58821 134.922 7.24421V5.69621H136.05V7.25621C136.05 7.60821 136.122 7.85621 136.266 8.00021C136.418 8.13621 136.674 8.20421 137.034 8.20421H137.814L137.874 8.85221L137.814 9.50021H137.046C136.742 9.50021 136.458 9.43621 136.194 9.30821C135.93 9.18021 135.71 8.99621 135.534 8.75621C135.39 8.98021 135.17 9.16021 134.874 9.29621C134.586 9.43221 134.302 9.50021 134.022 9.50021C133.726 9.50021 133.446 9.43621 133.182 9.30821C132.926 9.18021 132.694 8.99621 132.486 8.75621Z" fill="white"/>
<path d="M137.694 8.20421H138.954C139.306 8.20421 139.562 8.12821 139.722 7.97621C139.882 7.82421 139.954 7.61621 139.938 7.35221C139.922 7.12821 139.878 6.81221 139.806 6.40421C139.734 5.99621 139.658 5.60821 139.578 5.24021L140.67 4.96421C140.758 5.34021 140.842 5.76421 140.922 6.23621C141.002 6.70821 141.05 7.08821 141.066 7.37621C141.082 7.73621 141.01 8.08021 140.85 8.40821C140.698 8.73621 140.462 9.00021 140.142 9.20021C139.83 9.40021 139.45 9.50021 139.002 9.50021H137.694V8.20421ZM138.75 2.92421C138.742 2.69221 138.822 2.49621 138.99 2.33621C139.158 2.18421 139.35 2.10821 139.566 2.10821C139.79 2.11621 139.982 2.20021 140.142 2.36021C140.302 2.51221 140.382 2.70021 140.382 2.92421C140.382 3.15621 140.302 3.35221 140.142 3.51221C139.982 3.66421 139.79 3.74021 139.566 3.74021C139.342 3.74021 139.15 3.66421 138.99 3.51221C138.83 3.35221 138.75 3.15621 138.75 2.92421Z" fill="white"/>
<path d="M147.29 9.50021C146.794 9.50021 146.362 9.38421 145.994 9.15221C145.626 8.91221 145.354 8.60021 145.178 8.21621C145.01 7.82421 144.958 7.40421 145.022 6.95621C145.086 6.51621 145.214 5.90421 145.406 5.12021L146.45 5.39621L146.402 5.64821C146.226 6.37621 146.126 6.86821 146.102 7.12421C146.062 7.45221 146.142 7.71621 146.342 7.91621C146.55 8.10821 146.866 8.20421 147.29 8.20421H152.486C152.87 8.20421 153.15 8.13221 153.326 7.98821C153.51 7.84421 153.602 7.61221 153.602 7.29221V5.69621H154.73V7.41221C154.73 7.70021 154.802 7.90421 154.946 8.02421C155.09 8.14421 155.318 8.20421 155.63 8.20421H156.038L156.11 8.84021L156.038 9.50021H155.63C155.374 9.50021 155.106 9.44021 154.826 9.32021C154.554 9.20021 154.318 9.02021 154.118 8.78021C153.926 9.01221 153.686 9.19221 153.398 9.32021C153.11 9.44021 152.806 9.50021 152.486 9.50021H147.29ZM148.274 4.78421C148.274 4.64821 148.31 4.52021 148.382 4.40021C148.454 4.28021 148.55 4.18421 148.67 4.11221C148.782 4.04021 148.91 4.00421 149.054 4.00421C149.19 3.99621 149.318 4.03221 149.438 4.11221C149.558 4.18421 149.654 4.27621 149.726 4.38821C149.79 4.52421 149.822 4.65621 149.822 4.78421C149.822 4.99221 149.746 5.17621 149.594 5.33621C149.442 5.48821 149.262 5.56421 149.054 5.56421C148.846 5.56421 148.662 5.48821 148.502 5.33621C148.35 5.17621 148.274 4.99221 148.274 4.78421ZM150.338 4.78421C150.338 4.57621 150.414 4.39621 150.566 4.24421C150.718 4.08421 150.898 4.00421 151.106 4.00421C151.322 4.00421 151.506 4.08421 151.658 4.24421C151.81 4.39621 151.886 4.57621 151.886 4.78421C151.886 4.99221 151.81 5.17621 151.658 5.33621C151.506 5.48821 151.322 5.56421 151.106 5.56421C150.978 5.56421 150.854 5.52821 150.734 5.45621C150.614 5.39221 150.518 5.30021 150.446 5.18021C150.374 5.05221 150.338 4.92021 150.338 4.78421Z" fill="white"/>
<path d="M155.917 8.20421H157.921C158.489 8.19621 158.901 8.15221 159.157 8.07221C159.413 7.98421 159.581 7.84021 159.661 7.64021C159.749 7.43221 159.793 7.10821 159.793 6.66821V5.38421C159.793 5.04021 159.709 4.77221 159.541 4.58021C159.373 4.38821 159.121 4.29221 158.785 4.29221C158.481 4.29221 158.241 4.39221 158.065 4.59221C157.889 4.79221 157.801 5.05621 157.801 5.38421C157.801 5.66421 157.877 5.88021 158.029 6.03221C158.189 6.17621 158.437 6.25621 158.773 6.27221L160.345 6.41621L160.273 7.61621L158.713 7.53221C158.321 7.50821 157.973 7.40821 157.669 7.23221C157.365 7.05621 157.125 6.81221 156.949 6.50021C156.773 6.18021 156.685 5.80821 156.685 5.38421C156.685 4.95221 156.781 4.55621 156.973 4.19621C157.165 3.83621 157.421 3.55621 157.741 3.35621C158.061 3.14821 158.409 3.04421 158.785 3.04421C159.193 3.04421 159.557 3.14821 159.877 3.35621C160.197 3.55621 160.445 3.83621 160.621 4.19621C160.805 4.54821 160.897 4.94421 160.897 5.38421V6.51221C160.897 7.14421 160.805 7.68021 160.621 8.12021C160.437 8.56021 160.121 8.90021 159.673 9.14021C159.225 9.38021 158.621 9.50021 157.861 9.50021H155.917V8.20421ZM157.969 1.46021C157.969 1.22821 158.049 1.03221 158.209 0.872212C158.385 0.720212 158.577 0.644212 158.785 0.644212C159.017 0.644212 159.209 0.724212 159.361 0.884212C159.521 1.04421 159.601 1.23621 159.601 1.46021C159.601 1.68421 159.521 1.87621 159.361 2.03621C159.201 2.19621 159.009 2.27621 158.785 2.27621C158.561 2.27621 158.369 2.19621 158.209 2.03621C158.049 1.87621 157.969 1.68421 157.969 1.46021Z" fill="white"/>
<path d="M164.7 9.50021C164.148 9.50021 163.708 9.39621 163.38 9.18821C163.06 8.97221 162.832 8.67621 162.696 8.30021C162.56 7.91621 162.492 7.45221 162.492 6.90821L162.48 1.64021H163.608L163.62 6.90821C163.62 7.30021 163.644 7.58421 163.692 7.76021C163.74 7.92821 163.836 8.04421 163.98 8.10821C164.124 8.17221 164.364 8.20421 164.7 8.20421H164.964L165.036 8.86421L164.964 9.50021H164.7Z" fill="white"/>
<path d="M164.846 8.20421H166.37C166.794 8.20421 167.094 8.13221 167.27 7.98821C167.446 7.83621 167.526 7.62421 167.51 7.35221C167.494 7.12821 167.45 6.81221 167.378 6.40421C167.314 5.99621 167.242 5.60821 167.162 5.24021L168.254 4.96421C168.342 5.34021 168.426 5.76421 168.506 6.23621C168.586 6.70821 168.634 7.08821 168.65 7.37621C168.658 7.74421 168.582 8.09221 168.422 8.42021C168.262 8.74021 168.01 9.00021 167.666 9.20021C167.33 9.40021 166.91 9.50021 166.406 9.50021H164.846V8.20421ZM164.234 11.8522C164.234 11.7162 164.27 11.5882 164.342 11.4682C164.414 11.3482 164.51 11.2522 164.63 11.1802C164.742 11.1082 164.87 11.0722 165.014 11.0722C165.15 11.0642 165.278 11.0962 165.398 11.1682C165.518 11.2482 165.614 11.3442 165.686 11.4562C165.75 11.5922 165.782 11.7242 165.782 11.8522C165.782 12.0602 165.706 12.2402 165.554 12.3922C165.402 12.5522 165.222 12.6322 165.014 12.6322C164.806 12.6322 164.626 12.5522 164.474 12.3922C164.314 12.2402 164.234 12.0602 164.234 11.8522ZM166.298 11.8522C166.298 11.6442 166.374 11.4602 166.526 11.3002C166.678 11.1482 166.858 11.0722 167.066 11.0722C167.282 11.0722 167.466 11.1482 167.618 11.3002C167.77 11.4602 167.846 11.6442 167.846 11.8522C167.846 12.0602 167.77 12.2402 167.618 12.3922C167.466 12.5522 167.282 12.6322 167.066 12.6322C166.938 12.6322 166.814 12.5962 166.694 12.5242C166.574 12.4602 166.478 12.3642 166.406 12.2362C166.334 12.1162 166.298 11.9882 166.298 11.8522Z" fill="white"/>
<path d="M173.274 5.69621V9.08021C173.274 9.81621 173.146 10.4402 172.89 10.9522C172.642 11.4642 172.274 11.8522 171.786 12.1162C171.306 12.3882 170.714 12.5242 170.01 12.5242H169.254V11.2282H170.01C170.538 11.2282 170.954 11.1562 171.258 11.0122C171.57 10.8762 171.794 10.6522 171.93 10.3402C172.074 10.0282 172.146 9.60821 172.146 9.08021V5.69621H173.274Z" fill="white"/>
<path d="M177.713 4.29221C177.985 4.71621 178.197 5.05221 178.349 5.30021C178.509 5.54021 178.721 5.86421 178.985 6.27221C179.233 6.65621 179.369 7.06821 179.393 7.50821C179.417 7.94821 179.325 8.31621 179.117 8.61221C178.885 8.94021 178.601 9.17221 178.265 9.30821C177.929 9.43621 177.549 9.50021 177.125 9.50021H176.489C176.033 9.50021 175.625 9.43221 175.265 9.29621C174.905 9.16021 174.613 9.00421 174.389 8.82821L174.953 7.76021L175.013 7.79621C175.197 7.90821 175.401 8.00421 175.625 8.08421C175.857 8.16421 176.145 8.20421 176.489 8.20421H177.113C177.393 8.20421 177.617 8.18021 177.785 8.13221C177.961 8.07621 178.097 7.98021 178.193 7.84421C178.265 7.74021 178.289 7.62021 178.265 7.48421C178.241 7.34021 178.165 7.16021 178.037 6.94421C177.309 5.81621 176.697 4.88821 176.201 4.16021L177.161 3.44021L177.713 4.29221Z" fill="white"/>
</g>
</svg>
