<svg width="200" height="48" viewBox="0 0 200 48" fill="none" xmlns="http://www.w3.org/2000/svg">
<g id="Vector">
<path d="M46.0479 15.7145C44.5978 14.8204 42.9938 14.2044 41.3181 13.898C40.5126 13.7095 39.6044 13.521 38.5762 13.3497C37.2738 13.144 35.7657 12.9555 34.0178 12.8013H33.7607C33.418 11.9616 33.0409 11.0876 32.6639 10.1965C32.4412 9.71663 32.2526 9.23679 32.047 8.72269L31.9613 8.53418C31.2682 6.54033 30.2679 4.66697 28.9966 2.98182C28.3313 2.08311 27.4702 1.34758 26.4786 0.830965C25.4869 0.314346 24.3907 0.0301828 23.2729 0C22.1585 0.0286595 21.0649 0.308625 20.0739 0.819004C19.0828 1.32938 18.2197 2.057 17.5492 2.94755C16.2908 4.6409 15.2916 6.51221 14.5845 8.49991C14.5845 8.49991 14.5845 8.61986 14.5845 8.68841C14.3789 9.20252 14.1732 9.68235 13.9676 10.1622L12.8537 12.767H12.6138C10.8658 12.9155 9.3406 13.104 8.0382 13.3325C7.00999 13.4867 6.10173 13.6753 5.31343 13.8638C3.6327 14.1716 2.02336 14.7874 0.566509 15.6803C0.440841 15.77 0.342358 15.8927 0.28189 16.0348C0.221423 16.1769 0.201313 16.3329 0.223771 16.4857L0.446551 18.1994C0.789289 20.7528 1.1663 23.7518 1.78323 26.7678C2.23865 29.1473 2.8687 31.49 3.66829 33.7768C3.96333 34.6968 4.30654 35.6006 4.6965 36.4845C6.05279 39.2192 7.99521 41.6214 10.3855 43.52C12.7758 45.4186 15.5553 46.767 18.526 47.4692C21.6452 48.1773 24.8835 48.1773 28.0027 47.4692C31.0278 46.7591 33.8548 45.3788 36.275 43.4301C38.6953 41.4814 40.6471 39.0141 41.9864 36.2103C42.2949 35.5248 42.5862 34.8222 42.8604 34.1025C44.4787 29.1967 45.5534 24.1281 46.065 18.9877L46.4077 16.4514C46.4157 16.3081 46.3869 16.1651 46.3239 16.0361C46.2609 15.9071 46.1658 15.7964 46.0479 15.7145ZM23.2729 12.2872C21.1308 12.2872 19.1772 12.2872 17.395 12.4071C17.4806 12.1672 17.5835 11.9444 17.6863 11.7216L18.3375 10.145C18.771 8.9707 19.2804 7.82582 19.8627 6.71767C20.1257 6.25033 20.4235 5.8035 20.7538 5.38099C21.0485 4.97706 21.4253 4.63999 21.8594 4.39191C22.2936 4.14383 22.7753 3.99033 23.2729 3.94149C23.7725 3.9826 24.2571 4.13281 24.6923 4.38153C25.1276 4.63025 25.503 4.97142 25.792 5.38099C26.1336 5.79889 26.4376 6.2462 26.7003 6.71767C27.2825 7.82582 27.792 8.9707 28.2255 10.145C28.4311 10.6592 28.6368 11.1904 28.8767 11.7216C28.9624 11.9444 29.0652 12.1672 29.168 12.4071C27.3858 12.4928 25.4322 12.3728 23.2729 12.3728V12.2872Z" fill="url(#paint0_linear_5778_60635)"/>
<path d="M133.001 29.6298C133.02 29.9888 132.955 30.3474 132.812 30.6773C132.67 31.0073 132.453 31.2998 132.178 31.532C131.456 32.0609 130.568 32.3105 129.676 32.2346H128.528L128.871 34.1025H130.362C131.009 34.1272 131.654 34.0042 132.247 33.7426C132.795 33.5006 133.286 33.1442 133.686 32.6973C134.09 32.2368 134.398 31.701 134.594 31.1207C134.818 30.4879 134.928 29.8209 134.92 29.15V23.7861H133.001V29.6298Z" fill="white"/>
<path d="M134.08 19.0563C133.896 19.0501 133.713 19.0818 133.542 19.1497C133.371 19.2175 133.216 19.3199 133.086 19.4505C132.956 19.5795 132.853 19.733 132.783 19.9021C132.712 20.0712 132.676 20.2526 132.676 20.4358C132.676 20.619 132.712 20.8004 132.783 20.9695C132.853 21.1387 132.956 21.2922 133.086 21.4212C133.214 21.556 133.369 21.6634 133.539 21.7367C133.71 21.8101 133.894 21.8479 134.08 21.8479C134.266 21.8479 134.45 21.8101 134.621 21.7367C134.792 21.6634 134.946 21.556 135.074 21.4212C135.329 21.1563 135.471 20.8032 135.471 20.4358C135.471 20.0685 135.329 19.7154 135.074 19.4505C134.945 19.3199 134.789 19.2175 134.618 19.1497C134.447 19.0818 134.264 19.0501 134.08 19.0563Z" fill="white"/>
<path d="M139.53 17.8224H137.782V29.4755H139.53V17.8224Z" fill="white"/>
<path d="M151.56 22.2781C151.713 22.2796 151.865 22.25 152.006 22.1911C152.148 22.1322 152.276 22.0452 152.382 21.9353C152.493 21.8292 152.581 21.7013 152.64 21.5598C152.699 21.4183 152.728 21.2661 152.725 21.1127C152.731 20.9514 152.703 20.7906 152.644 20.6403C152.585 20.49 152.496 20.3533 152.382 20.2388C152.279 20.1233 152.152 20.0314 152.01 19.9693C151.868 19.9072 151.715 19.8763 151.56 19.8789C151.397 19.8755 151.236 19.9058 151.085 19.9677C150.935 20.0296 150.799 20.1219 150.686 20.2388C150.463 20.4746 150.34 20.788 150.343 21.1127C150.346 21.4211 150.469 21.7163 150.686 21.9353C150.922 22.1587 151.235 22.2816 151.56 22.2781Z" fill="white"/>
<path d="M154.782 22.278C154.94 22.2803 155.097 22.2512 155.244 22.1923C155.391 22.1335 155.525 22.0461 155.638 21.9353C155.856 21.7163 155.979 21.4211 155.981 21.1127C155.985 20.7879 155.862 20.4745 155.638 20.2387C155.529 20.1223 155.396 20.0302 155.248 19.9682C155.1 19.9062 154.942 19.8758 154.782 19.8788C154.624 19.8761 154.468 19.9067 154.323 19.9687C154.178 20.0308 154.048 20.1228 153.942 20.2387C153.828 20.3533 153.739 20.4899 153.68 20.6402C153.621 20.7905 153.594 20.9513 153.599 21.1127C153.597 21.266 153.626 21.4182 153.685 21.5598C153.744 21.7013 153.831 21.8291 153.942 21.9353C154.052 22.0456 154.183 22.1328 154.327 22.1917C154.471 22.2506 154.626 22.2799 154.782 22.278Z" fill="white"/>
<path d="M167.154 19.6219C167.337 19.6235 167.517 19.5879 167.685 19.5172C167.853 19.4464 168.005 19.3421 168.131 19.2106C168.262 19.08 168.365 18.9251 168.436 18.7545C168.506 18.584 168.543 18.4012 168.543 18.2166C168.547 18.0339 168.513 17.8523 168.442 17.6839C168.371 17.5154 168.265 17.3641 168.131 17.2398C168.005 17.1083 167.853 17.004 167.685 16.9333C167.517 16.8625 167.337 16.8269 167.154 16.8286C166.967 16.8252 166.781 16.86 166.607 16.9306C166.433 17.0013 166.275 17.1065 166.143 17.2398C166.009 17.3641 165.903 17.5154 165.832 17.6839C165.761 17.8523 165.727 18.0339 165.732 18.2166C165.732 18.4012 165.768 18.584 165.839 18.7545C165.909 18.9251 166.013 19.08 166.143 19.2106C166.275 19.3439 166.433 19.4491 166.607 19.5198C166.781 19.5905 166.967 19.6252 167.154 19.6219Z" fill="white"/>
<path d="M169.811 21.7811C169.535 21.4193 169.184 21.1213 168.782 20.9071C168.336 20.683 167.842 20.5713 167.343 20.5815C166.915 20.571 166.49 20.6468 166.092 20.8043C165.727 20.9477 165.395 21.1634 165.115 21.4383C164.844 21.7146 164.629 22.0404 164.481 22.398C164.327 22.7788 164.251 23.1868 164.258 23.5976C164.233 24.29 164.425 24.973 164.807 25.5512C165.008 25.8119 165.268 26.0209 165.566 26.1609C165.864 26.301 166.191 26.3681 166.52 26.3566L168.868 26.4423C168.884 26.7333 168.806 27.0218 168.645 27.2649C168.496 27.3993 168.318 27.4996 168.126 27.5588C167.934 27.618 167.731 27.6346 167.531 27.6076H162.39C162.015 27.6101 161.645 27.5219 161.311 27.3506C161.143 27.2448 161.009 27.0937 160.924 26.9146C160.839 26.7356 160.807 26.5362 160.831 26.3395V23.7861H158.963V26.2024C158.991 26.5595 158.913 26.917 158.74 27.2306C158.603 27.4534 158.278 27.5562 157.798 27.5562H149.229C148.857 27.5874 148.486 27.484 148.184 27.2649C148.048 27.1249 147.943 26.9581 147.875 26.7751C147.807 26.5922 147.778 26.3972 147.79 26.2024V23.7861H146.076V26.528C146.02 27.3086 146.252 28.0828 146.727 28.7044C146.973 28.9727 147.277 29.1815 147.615 29.3151C147.954 29.4487 148.318 29.5036 148.681 29.4755H158.295C158.932 29.4874 159.548 29.2472 160.008 28.8072C160.334 29.0784 160.723 29.2613 161.139 29.3384C161.579 29.4278 162.027 29.4737 162.476 29.4755H167.926C168.357 29.4882 168.784 29.3815 169.159 29.1671C169.516 28.9793 169.817 28.7017 170.033 28.3616C170.278 28.0036 170.453 27.6023 170.548 27.1792C170.666 26.7202 170.723 26.2478 170.719 25.774V24.4887C170.723 24.0168 170.648 23.5475 170.496 23.1006C170.364 22.6169 170.131 22.167 169.811 21.7811ZM166.966 24.4887C166.696 24.471 166.43 24.4133 166.178 24.3173C166.049 24.263 165.941 24.1686 165.87 24.0483C165.799 23.9279 165.769 23.7879 165.784 23.649C165.77 23.4714 165.798 23.2931 165.864 23.1278C165.93 22.9625 166.034 22.8145 166.166 22.6954C166.298 22.5762 166.456 22.489 166.628 22.4404C166.799 22.3919 166.979 22.3832 167.154 22.4151C167.408 22.4035 167.659 22.4693 167.874 22.6036C168.089 22.7224 168.276 22.8861 168.423 23.0835C168.579 23.2969 168.701 23.5341 168.782 23.7861C168.869 24.0341 168.916 24.2945 168.92 24.5573L166.966 24.4887Z" fill="white"/>
<path d="M177.317 31.4291C177.157 31.426 176.998 31.4565 176.85 31.5185C176.703 31.5804 176.57 31.6726 176.46 31.789C176.35 31.8957 176.263 32.0237 176.204 32.1651C176.145 32.3065 176.116 32.4584 176.117 32.6115C176.116 32.9307 176.239 33.2378 176.46 33.4684C176.57 33.5848 176.703 33.6769 176.85 33.7389C176.998 33.8009 177.157 33.8313 177.317 33.8283C177.474 33.831 177.63 33.8004 177.775 33.7384C177.92 33.6763 178.05 33.5843 178.156 33.4684C178.269 33.3564 178.357 33.2227 178.416 33.0753C178.475 32.928 178.503 32.7702 178.499 32.6115C178.505 32.4578 178.477 32.3046 178.418 32.1626C178.359 32.0206 178.27 31.8931 178.156 31.789C178.05 31.673 177.92 31.581 177.775 31.519C177.63 31.4569 177.474 31.4263 177.317 31.4291Z" fill="white"/>
<path d="M180.95 26.2023C180.959 26.3793 180.959 26.5566 180.95 26.7336C180.926 26.8906 180.861 27.0385 180.761 27.162C180.656 27.2981 180.513 27.3997 180.35 27.4533C180.112 27.5296 179.863 27.5644 179.613 27.5562H176.768C176.413 27.5776 176.059 27.4878 175.757 27.2991C175.61 27.1426 175.5 26.9552 175.435 26.7506C175.369 26.546 175.351 26.3294 175.38 26.1167V17.8224H173.495V26.4937C173.457 26.9106 173.511 27.3308 173.653 27.7246C173.795 28.1184 174.022 28.4763 174.318 28.7729C174.938 29.2679 175.719 29.518 176.511 29.4755H180.093C180.469 29.5048 180.847 29.4474 181.198 29.3078C181.548 29.1681 181.862 28.95 182.115 28.6701C182.586 28.0585 182.823 27.2988 182.783 26.5279V23.786H180.915L180.95 26.2023Z" fill="white"/>
<path d="M180.35 31.4292C180.187 31.4226 180.024 31.4514 179.873 31.5135C179.723 31.5756 179.587 31.6696 179.476 31.7891C179.363 31.8932 179.273 32.0207 179.214 32.1627C179.155 32.3047 179.127 32.4579 179.133 32.6117C179.129 32.7703 179.157 32.9281 179.216 33.0754C179.275 33.2228 179.363 33.3565 179.476 33.4685C179.586 33.5846 179.719 33.6771 179.867 33.7403C180.014 33.8035 180.172 33.8361 180.333 33.8361C180.493 33.8361 180.652 33.8035 180.799 33.7403C180.946 33.6771 181.079 33.5846 181.19 33.4685C181.41 33.238 181.533 32.9308 181.532 32.6117C181.528 32.3023 181.404 32.0066 181.187 31.7863C180.97 31.5659 180.676 31.438 180.367 31.4292H180.35Z" fill="white"/>
<path d="M186.879 29.6298C186.898 29.9888 186.834 30.3474 186.691 30.6773C186.548 31.0073 186.331 31.2998 186.056 31.532C185.333 32.0581 184.446 32.3074 183.554 32.2346H183.092L183.4 34.1025H184.223C184.875 34.1121 185.522 33.9897 186.125 33.7426C186.674 33.5006 187.164 33.1442 187.564 32.6973C187.956 32.2283 188.264 31.6948 188.473 31.1207C188.682 30.4849 188.786 29.8192 188.781 29.15V23.7861H186.879V29.6298Z" fill="white"/>
<path d="M199.56 26.0481C199.396 25.6667 199.164 25.3183 198.875 25.0199L194.813 20.7014L193.597 21.9353L197.675 26.2024C197.773 26.2885 197.853 26.3937 197.909 26.5116C197.965 26.6294 197.996 26.7575 198.001 26.8879C197.998 26.9788 197.977 27.0682 197.939 27.1508C197.901 27.2333 197.846 27.3071 197.778 27.3677C197.688 27.4431 197.585 27.5001 197.473 27.5354C197.361 27.5707 197.244 27.5836 197.127 27.5733H191.18L191.42 29.407H197.093C197.457 29.4341 197.823 29.3858 198.168 29.2649C198.513 29.144 198.83 28.9532 199.098 28.7044C199.327 28.4836 199.506 28.2167 199.625 27.9212C199.743 27.6258 199.797 27.3086 199.783 26.9907C199.764 26.666 199.688 26.3472 199.56 26.0481Z" fill="white"/>
<path d="M82.0183 30.6065C81.0623 30.6065 80.1451 30.2279 79.4675 29.5535C78.7899 28.8791 78.4069 27.9638 78.4024 27.0078V9.06544C78.4654 8.15169 78.8729 7.29589 79.5424 6.67091C80.212 6.04593 81.0938 5.69834 82.0097 5.69834C82.9257 5.69834 83.8075 6.04593 84.477 6.67091C85.1466 7.29589 85.554 8.15169 85.6171 9.06544V27.0078C85.6171 27.9622 85.2379 28.8776 84.563 29.5525C83.8881 30.2274 82.9727 30.6065 82.0183 30.6065Z" fill="white"/>
<path d="M69.4055 34.2053H60.3915C59.4371 34.2053 58.5217 33.8261 57.8468 33.1512C57.1719 32.4763 56.7928 31.561 56.7928 30.6065C56.7928 29.6521 57.1719 28.7367 57.8468 28.0618C58.5217 27.3869 59.4371 27.0078 60.3915 27.0078H67.6062V16.1944C67.6062 15.24 67.9853 14.3246 68.6602 13.6497C69.3351 12.9748 70.2505 12.5956 71.2049 12.5956C72.1594 12.5956 73.0747 12.9748 73.7496 13.6497C74.4245 14.3246 74.8037 15.24 74.8037 16.1944V28.8072C74.8037 29.5161 74.664 30.218 74.3927 30.8729C74.1215 31.5279 73.7238 32.123 73.2226 32.6242C72.7213 33.1255 72.1262 33.5231 71.4713 33.7944C70.8164 34.0657 70.1144 34.2053 69.4055 34.2053Z" fill="white"/>
<path d="M91.0152 41.4199H82.0183C81.5237 41.4541 81.0273 41.3861 80.5601 41.2202C80.0928 41.0544 79.6647 40.7942 79.3022 40.4559C78.9398 40.1176 78.6508 39.7084 78.4532 39.2537C78.2556 38.7989 78.1536 38.3084 78.1536 37.8126C78.1536 37.3168 78.2556 36.8263 78.4532 36.3716C78.6508 35.9169 78.9398 35.5076 79.3022 35.1693C79.6647 34.831 80.0928 34.5708 80.5601 34.405C81.0273 34.2392 81.5237 34.1712 82.0183 34.2053H89.2158V23.3919C89.2788 22.4782 89.6862 21.6224 90.3558 20.9974C91.0254 20.3724 91.9072 20.0248 92.8231 20.0248C93.739 20.0248 94.6208 20.3724 95.2904 20.9974C95.96 21.6224 96.3674 22.4782 96.4304 23.3919V35.9875C96.4304 37.4253 95.8605 38.8045 94.8454 39.8228C93.8303 40.8411 92.453 41.4154 91.0152 41.4199Z" fill="white"/>
<path d="M114.458 34.2053H105.496C104.049 34.2053 102.661 33.6317 101.636 32.6102C100.612 31.5887 100.034 30.2027 100.029 28.7558V12.5785C100.092 11.6648 100.5 10.809 101.169 10.184C101.839 9.55903 102.721 9.21144 103.637 9.21144C104.552 9.21144 105.434 9.55903 106.104 10.184C106.773 10.809 107.181 11.6648 107.244 12.5785V27.0078H114.458C115.413 27.0078 116.328 27.387 117.003 28.0619C117.678 28.7368 118.057 29.6521 118.057 30.6066C118.057 31.561 117.678 32.4764 117.003 33.1513C116.328 33.8262 115.413 34.2053 114.458 34.2053Z" fill="white"/>
<path d="M92.8317 16.1772C94.8192 16.1772 96.4304 14.566 96.4304 12.5785C96.4304 10.591 94.8192 8.97974 92.8317 8.97974C90.8441 8.97974 89.2329 10.591 89.2329 12.5785C89.2329 14.566 90.8441 16.1772 92.8317 16.1772Z" fill="white"/>
<path d="M103.645 45.0187C105.633 45.0187 107.244 43.4075 107.244 41.42C107.244 39.4324 105.633 37.8212 103.645 37.8212C101.658 37.8212 100.046 39.4324 100.046 41.42C100.046 43.4075 101.658 45.0187 103.645 45.0187Z" fill="white"/>
</g>
<defs>
<linearGradient id="paint0_linear_5778_60635" x1="100" y1="0" x2="100" y2="48.0003" gradientUnits="userSpaceOnUse">
<stop stop-color="#9ED900"/>
<stop offset="1" stop-color="#009757"/>
</linearGradient>
</defs>
</svg>
