<svg width="180" height="46" viewBox="0 0 180 46" fill="none" xmlns="http://www.w3.org/2000/svg">
<g id="Vector">
<path d="M17.7319 22.2433L1.02905 39.9724C1.02968 39.976 1.03094 39.9791 1.03152 39.9828C1.54379 41.908 3.3022 43.3255 5.38906 43.3255C6.22328 43.3255 7.00651 43.1 7.6782 42.7041L7.73154 42.6728L26.5338 31.8231L17.7319 22.2433Z" fill="#EB3131"/>
<path d="M34.525 19.0044L34.5089 18.9934L26.3914 14.2876L17.246 22.4255L26.4232 31.6015L34.4979 26.9425C35.9135 26.1783 36.8746 24.6859 36.8746 22.9648C36.8746 21.2562 35.9266 19.7711 34.525 19.0044Z" fill="#F6B60B"/>
<path d="M1.02672 6.32319C0.926312 6.69347 0.873535 7.08132 0.873535 7.48407V38.8129C0.873535 39.2149 0.925689 39.6041 1.02736 39.973L18.3069 22.697L1.02672 6.32319Z" fill="#5778C5"/>
<path d="M17.7491 22.9277L26.3951 14.2843L7.61403 3.39534C6.93137 2.98646 6.13461 2.75049 5.28205 2.75049C3.19519 2.75049 1.43441 4.1706 0.922045 6.09801L0.921416 6.10283L17.7491 22.9277Z" fill="#3BAD49"/>
<path d="M150.803 39.0257H153.602V20.2726H150.803V39.0257ZM176.014 27.0284L172.805 35.1583H172.709L169.379 27.0284H166.364L171.359 38.3912L168.511 44.7121H171.43L179.126 27.0289L176.014 27.0284ZM160.139 36.8956C159.224 36.8956 157.945 36.4367 157.945 35.303C157.945 33.8556 159.538 33.3008 160.912 33.3008C162.142 33.3008 162.722 33.5657 163.47 33.9278C163.252 35.665 161.756 36.8956 160.139 36.8956ZM160.478 26.6182C158.452 26.6182 156.353 27.5111 155.485 29.4894L157.969 30.5265C158.5 29.4894 159.488 29.1519 160.526 29.1519C161.974 29.1519 163.445 30.0197 163.469 31.5642V31.757C162.962 31.4675 161.876 31.0334 160.55 31.0334C157.871 31.0334 155.146 32.5046 155.146 35.2549C155.146 37.764 157.342 39.3805 159.802 39.3805C161.683 39.3805 162.722 38.5361 163.372 37.5466H163.469V38.995H166.172V31.8049C166.172 28.4756 163.685 26.6182 160.478 26.6182ZM143.18 29.3112H139.199V22.8836H143.18C145.273 22.8836 146.46 24.6157 146.46 26.0973C146.46 27.5505 145.272 29.3112 143.18 29.3112ZM143.108 20.273H136.401V39.0261H139.199V31.9217H143.108C146.21 31.9217 149.26 29.6764 149.26 26.098C149.26 22.5203 146.21 20.273 143.108 20.273ZM106.537 36.8987C104.603 36.8987 102.985 35.2791 102.985 33.0567C102.985 30.8085 104.603 29.1661 106.537 29.1661C108.446 29.1661 109.944 30.8086 109.944 33.0567C109.944 35.2791 108.446 36.8987 106.537 36.8987ZM109.751 28.0782H109.654C109.026 27.3292 107.817 26.6525 106.295 26.6525C103.105 26.6525 100.181 29.4562 100.181 33.0567C100.181 36.6328 103.105 39.4118 106.295 39.4118C107.817 39.4118 109.026 38.735 109.654 37.9622H109.751V38.8797C109.751 41.3214 108.446 42.6256 106.343 42.6256C104.628 42.6256 103.565 41.3934 103.129 40.3544L100.689 41.3693C101.389 43.0602 103.25 45.1392 106.343 45.1392C109.631 45.1392 112.41 43.2056 112.41 38.4929V27.039H109.751L109.751 28.0782ZM114.343 39.0251H117.145V20.272H114.343V39.0251ZM121.278 32.8388C121.206 30.3738 123.188 29.1175 124.613 29.1175C125.725 29.1175 126.667 29.6735 126.982 30.4704L121.278 32.8388ZM129.977 30.7118C129.446 29.2869 127.827 26.6525 124.516 26.6525C121.229 26.6525 118.499 29.2382 118.499 33.0322C118.499 36.6088 121.206 39.4119 124.83 39.4119C127.754 39.4119 129.446 37.6242 130.147 36.5847L127.972 35.1346C127.247 36.1981 126.257 36.8988 124.83 36.8988C123.405 36.8988 122.389 36.2462 121.738 34.9653L130.267 31.4374L129.977 30.7118ZM62.0154 28.6101V31.3165H68.4916C68.2983 32.8389 67.7908 33.9503 67.0174 34.7238C66.0746 35.666 64.6005 36.7054 62.0153 36.7054C58.0279 36.7054 54.9107 33.4916 54.9107 29.5042C54.9107 25.5169 58.0279 22.3026 62.0153 22.3026C64.1661 22.3026 65.7365 23.1486 66.8966 24.2361L68.8062 22.3266C67.1866 20.7802 65.0362 19.5961 62.0153 19.5961C56.5531 19.5961 51.9617 24.0427 51.9617 29.5042C51.9617 34.9652 56.5531 39.4119 62.0153 39.4119C64.9631 39.4119 67.1867 38.4451 68.9263 36.6329C70.7147 34.8445 71.2707 32.3314 71.2707 30.3012C71.2707 29.6736 71.2219 29.0936 71.1253 28.6101H62.0154ZM78.6343 36.8987C76.7006 36.8987 75.0331 35.3038 75.0331 33.0322C75.0331 30.7365 76.7006 29.1662 78.6343 29.1662C80.5672 29.1662 82.2348 30.7365 82.2348 33.0322C82.2348 35.3038 80.5672 36.8987 78.6343 36.8987ZM78.6343 26.6525C75.1051 26.6525 72.2299 29.3348 72.2299 33.0322C72.2299 36.7054 75.1051 39.4119 78.6343 39.4119C82.1622 39.4119 85.038 36.7054 85.038 33.0322C85.038 29.3348 82.1622 26.6525 78.6343 26.6525ZM92.6038 36.8987C90.6715 36.8987 89.0034 35.3038 89.0034 33.0322C89.0034 30.7365 90.6716 29.1662 92.6038 29.1662C94.5375 29.1662 96.2045 30.7365 96.2045 33.0322C96.2045 35.3038 94.5375 36.8987 92.6038 36.8987ZM92.6038 26.6525C89.0759 26.6525 86.2007 29.3348 86.2007 33.0322C86.2007 36.7054 89.0759 39.4119 92.6038 39.4119C96.133 39.4119 99.0082 36.7054 99.0082 33.0322C99.0082 29.3348 96.133 26.6525 92.6038 26.6525Z" fill="white"/>
<path d="M65.2271 5.91357V9.29757C65.2271 10.0336 65.0991 10.6576 64.8431 11.1696C64.5951 11.6816 64.2271 12.0696 63.7391 12.3336C63.2591 12.6056 62.6671 12.7416 61.9631 12.7416H61.2071V11.4456H61.9631C62.4911 11.4456 62.9071 11.3736 63.2111 11.2296C63.5231 11.0936 63.7471 10.8696 63.8831 10.5576C64.0271 10.2456 64.0991 9.82557 64.0991 9.29757V5.91357H65.2271ZM63.8471 3.65757C63.8391 3.42557 63.9191 3.22957 64.0871 3.06957C64.2551 2.91757 64.4471 2.84157 64.6631 2.84157C64.8871 2.84957 65.0791 2.93357 65.2391 3.09357C65.3991 3.24557 65.4791 3.43357 65.4791 3.65757C65.4791 3.88957 65.3991 4.08557 65.2391 4.24557C65.0791 4.39757 64.8871 4.47357 64.6631 4.47357C64.4391 4.47357 64.2471 4.39757 64.0871 4.24557C63.9271 4.08557 63.8471 3.88957 63.8471 3.65757Z" fill="white"/>
<path d="M66.7742 1.85757H67.9022L67.9142 9.71757H66.7862L66.7742 1.85757Z" fill="white"/>
<path d="M75.5041 3.64557C75.5921 3.85357 75.8601 4.43357 76.3081 5.38557C76.4601 5.72157 76.6161 6.06157 76.7761 6.40557C76.9681 6.82957 77.0841 7.24557 77.1241 7.65357C77.1721 8.06157 77.0761 8.43357 76.8361 8.76957C76.5801 9.12957 76.2761 9.37757 75.9241 9.51357C75.5721 9.64957 75.1921 9.71757 74.7841 9.71757H74.1721C73.7241 9.71757 73.3241 9.64557 72.9721 9.50157C72.6201 9.35757 72.3281 9.19757 72.0961 9.02157L72.6601 7.95357L72.7201 7.98957C72.9201 8.10157 73.1321 8.20157 73.3561 8.28957C73.5881 8.37757 73.8601 8.42157 74.1721 8.42157H74.7841C75.0641 8.42157 75.2961 8.39357 75.4801 8.33757C75.6641 8.28157 75.8041 8.18157 75.9001 8.03757C75.9881 7.90957 76.0201 7.77357 75.9961 7.62957C75.9721 7.47757 75.8881 7.25357 75.7441 6.95757L74.9281 5.18157C74.7521 4.82157 74.6001 4.49357 74.4721 4.19757L75.5041 3.64557ZM76.7761 6.41757C77.0081 6.92957 77.2041 7.32557 77.3641 7.60557C77.5321 7.88557 77.7081 8.09357 77.8921 8.22957C78.0761 8.35757 78.2881 8.42157 78.5281 8.42157H78.7321L78.7921 9.10557L78.7321 9.71757H78.5281C78.1121 9.71757 77.7401 9.60957 77.4121 9.39357C77.0921 9.16957 76.8041 8.86157 76.5481 8.46957C76.2921 8.06957 76.0241 7.56157 75.7441 6.94557L76.7761 6.41757Z" fill="white"/>
<path d="M78.608 8.42157H80.132C80.556 8.42157 80.856 8.34957 81.032 8.20557C81.208 8.05357 81.288 7.84157 81.272 7.56957C81.256 7.34557 81.212 7.02957 81.14 6.62157C81.076 6.21357 81.004 5.82557 80.924 5.45757L82.016 5.18157C82.104 5.55757 82.188 5.98157 82.268 6.45357C82.348 6.92557 82.396 7.30557 82.412 7.59357C82.42 7.96157 82.344 8.30957 82.184 8.63757C82.024 8.95757 81.772 9.21757 81.428 9.41757C81.092 9.61757 80.672 9.71757 80.168 9.71757H78.608V8.42157ZM77.996 12.0696C77.996 11.9336 78.032 11.8056 78.104 11.6856C78.176 11.5656 78.272 11.4696 78.392 11.3976C78.504 11.3256 78.632 11.2896 78.776 11.2896C78.912 11.2816 79.04 11.3136 79.16 11.3856C79.28 11.4656 79.376 11.5616 79.448 11.6736C79.512 11.8096 79.544 11.9416 79.544 12.0696C79.544 12.2776 79.468 12.4576 79.316 12.6096C79.164 12.7696 78.984 12.8496 78.776 12.8496C78.568 12.8496 78.388 12.7696 78.236 12.6096C78.076 12.4576 77.996 12.2776 77.996 12.0696ZM80.06 12.0696C80.06 11.8616 80.136 11.6776 80.288 11.5176C80.44 11.3656 80.62 11.2896 80.828 11.2896C81.044 11.2896 81.228 11.3656 81.38 11.5176C81.532 11.6776 81.608 11.8616 81.608 12.0696C81.608 12.2776 81.532 12.4576 81.38 12.6096C81.228 12.7696 81.044 12.8496 80.828 12.8496C80.7 12.8496 80.576 12.8136 80.456 12.7416C80.336 12.6776 80.24 12.5816 80.168 12.4536C80.096 12.3336 80.06 12.2056 80.06 12.0696Z" fill="white"/>
<path d="M85.1277 11.4456C85.6797 11.4456 86.0997 11.3856 86.3877 11.2656C86.6837 11.1456 86.8837 10.9576 86.9877 10.7016C87.0997 10.4536 87.1557 10.1096 87.1557 9.66957V7.30557C87.1557 6.84957 87.0517 6.49357 86.8437 6.23757C86.6437 5.98157 86.3357 5.85357 85.9197 5.85357C85.5437 5.85357 85.2517 5.98557 85.0437 6.24957C84.8357 6.51357 84.7317 6.86157 84.7317 7.29357C84.7317 7.69357 84.8277 7.98157 85.0197 8.15757C85.2117 8.32557 85.5157 8.40957 85.9317 8.40957H87.6597V9.68157H85.9317C85.2357 9.68157 84.6757 9.47357 84.2517 9.05757C83.8277 8.64157 83.6157 8.06157 83.6157 7.31757C83.6157 6.80557 83.7117 6.34157 83.9037 5.92557C84.1037 5.50957 84.3797 5.18557 84.7317 4.95357C85.0837 4.71357 85.4797 4.59357 85.9197 4.59357C86.3997 4.59357 86.8157 4.70957 87.1677 4.94157C87.5277 5.16557 87.8037 5.48557 87.9957 5.90157C88.1957 6.30957 88.2957 6.78157 88.2957 7.31757V9.66957C88.2957 10.2776 88.1877 10.8096 87.9717 11.2656C87.7637 11.7216 87.4237 12.0816 86.9517 12.3456C86.4877 12.6096 85.8797 12.7416 85.1277 12.7416H83.7957V11.4456H85.1277Z" fill="white"/>
<path d="M92.9068 5.91357V9.29757C92.9068 10.0336 92.7788 10.6576 92.5228 11.1696C92.2747 11.6816 91.9068 12.0696 91.4188 12.3336C90.9388 12.6056 90.3468 12.7416 89.6428 12.7416H88.8868V11.4456H89.6428C90.1708 11.4456 90.5868 11.3736 90.8908 11.2296C91.2028 11.0936 91.4268 10.8696 91.5628 10.5576C91.7068 10.2456 91.7788 9.82557 91.7788 9.29757V5.91357H92.9068Z" fill="white"/>
<path d="M97.4299 3.64557C97.5179 3.85357 97.7859 4.43357 98.2339 5.38557C98.3859 5.72157 98.5419 6.06157 98.7019 6.40557C98.8939 6.82957 99.0099 7.24557 99.0499 7.65357C99.0979 8.06157 99.0019 8.43357 98.7619 8.76957C98.5059 9.12957 98.2019 9.37757 97.8499 9.51357C97.4979 9.64957 97.1179 9.71757 96.7099 9.71757H96.0979C95.6499 9.71757 95.2499 9.64557 94.8979 9.50157C94.5459 9.35757 94.2539 9.19757 94.0219 9.02157L94.5859 7.95357L94.6459 7.98957C94.8459 8.10157 95.0579 8.20157 95.2819 8.28957C95.5139 8.37757 95.7859 8.42157 96.0979 8.42157H96.7099C96.9899 8.42157 97.2219 8.39357 97.4059 8.33757C97.5899 8.28157 97.7299 8.18157 97.8259 8.03757C97.9139 7.90957 97.9459 7.77357 97.9219 7.62957C97.8979 7.47757 97.8139 7.25357 97.6699 6.95757L96.8539 5.18157C96.6779 4.82157 96.5259 4.49357 96.3979 4.19757L97.4299 3.64557ZM98.7019 6.41757C98.9339 6.92957 99.1299 7.32557 99.2899 7.60557C99.4579 7.88557 99.6339 8.09357 99.8179 8.22957C100.002 8.35757 100.214 8.42157 100.454 8.42157H100.658L100.718 9.10557L100.658 9.71757H100.454C100.038 9.71757 99.6659 9.60957 99.3379 9.39357C99.0179 9.16957 98.7299 8.86157 98.4739 8.46957C98.2179 8.06957 97.9499 7.56157 97.6699 6.94557L98.7019 6.41757Z" fill="white"/>
<path d="M100.534 8.42157H101.794C102.146 8.42157 102.402 8.34557 102.562 8.19357C102.722 8.04157 102.794 7.83357 102.778 7.56957C102.762 7.34557 102.718 7.02957 102.646 6.62157C102.574 6.21357 102.498 5.82557 102.418 5.45757L103.51 5.18157C103.598 5.55757 103.682 5.98157 103.762 6.45357C103.842 6.92557 103.89 7.30557 103.906 7.59357C103.922 7.95357 103.85 8.29757 103.69 8.62557C103.538 8.95357 103.302 9.21757 102.982 9.41757C102.67 9.61757 102.29 9.71757 101.842 9.71757H100.534V8.42157ZM101.59 3.14157C101.582 2.90957 101.662 2.71357 101.83 2.55357C101.998 2.40157 102.19 2.32557 102.406 2.32557C102.63 2.33357 102.822 2.41757 102.982 2.57757C103.142 2.72957 103.222 2.91757 103.222 3.14157C103.222 3.37357 103.142 3.56957 102.982 3.72957C102.822 3.88157 102.63 3.95757 102.406 3.95757C102.182 3.95757 101.99 3.88157 101.83 3.72957C101.67 3.56957 101.59 3.37357 101.59 3.14157Z" fill="white"/>
<path d="M105.505 1.85757H106.633L106.645 9.71757H105.517L105.505 1.85757Z" fill="white"/>
<path d="M115.699 7.20957C115.803 7.65757 116.011 7.97357 116.323 8.15757C116.635 8.33357 117.007 8.42157 117.439 8.42157H117.679L117.751 9.05757L117.679 9.71757H117.439C116.815 9.71757 116.231 9.54557 115.687 9.20157C115.151 8.85757 114.787 8.29757 114.595 7.52157C114.267 6.12957 113.939 4.74157 113.611 3.35757L114.715 3.06957L115.699 7.20957ZM115.327 5.81757C115.383 6.32957 115.387 6.75757 115.339 7.10157C115.299 7.43757 115.191 7.75757 115.015 8.06157C114.799 8.43757 114.523 8.72957 114.187 8.93757C113.851 9.13757 113.487 9.23757 113.095 9.23757C112.703 9.23757 112.323 9.12957 111.955 8.91357C111.603 8.71357 111.327 8.42957 111.127 8.06157C110.927 7.69357 110.823 7.29757 110.815 6.87357C110.815 6.44957 110.919 6.06157 111.127 5.70957C111.271 5.46957 111.435 5.26557 111.619 5.09757C111.811 4.92957 112.111 4.74157 112.519 4.53357C112.935 4.31757 113.543 4.04957 114.343 3.72957L114.775 4.92957C114.159 5.12957 113.667 5.31757 113.299 5.49357C112.931 5.66157 112.663 5.81757 112.495 5.96157C112.327 6.09757 112.199 6.23757 112.111 6.38157C111.951 6.63757 111.907 6.90157 111.979 7.17357C112.059 7.44557 112.223 7.66157 112.471 7.82157C112.727 7.97357 113.011 8.02157 113.323 7.96557C113.635 7.90157 113.895 7.74157 114.103 7.48557C114.239 7.32557 114.319 7.13757 114.343 6.92157C114.367 6.70557 114.339 6.39357 114.259 5.98557L115.327 5.81757Z" fill="white"/>
<path d="M124.845 9.71757C124.301 9.71757 123.841 9.56557 123.465 9.26157C123.097 8.95757 122.889 8.50957 122.841 7.91757L123.525 7.47357C123.581 7.78557 123.721 8.02157 123.945 8.18157C124.177 8.34157 124.469 8.42157 124.821 8.42157H125.841L125.925 9.05757L125.841 9.71757H124.845ZM117.513 8.42157H118.989C119.525 8.42157 120.029 8.36157 120.501 8.24157C120.981 8.12157 121.429 7.96157 121.845 7.76157C122.261 7.56157 122.753 7.29357 123.321 6.95757L123.681 6.74157L123.693 7.10157L123.057 6.84957C122.305 6.55357 121.685 6.32557 121.197 6.16557C120.709 5.99757 120.381 5.91357 120.213 5.91357C119.997 5.91357 119.825 5.96557 119.697 6.06957C119.569 6.17357 119.453 6.37357 119.349 6.66957L118.293 6.33357C118.477 5.74957 118.737 5.32157 119.073 5.04957C119.409 4.76957 119.789 4.62957 120.213 4.62957C120.493 4.62957 120.925 4.73357 121.509 4.94157C122.093 5.14957 122.877 5.45757 123.861 5.86557C124.093 5.96157 124.293 6.04557 124.461 6.11757L124.701 7.49757L124.125 7.85757C123.445 8.28957 122.865 8.62957 122.385 8.87757C121.905 9.12557 121.381 9.32957 120.813 9.48957C120.253 9.64157 119.645 9.71757 118.989 9.71757H117.513V8.42157ZM119.565 2.86557C119.557 2.63357 119.637 2.43757 119.805 2.27757C119.973 2.12557 120.165 2.04957 120.381 2.04957C120.605 2.05757 120.797 2.14157 120.957 2.30157C121.117 2.45357 121.197 2.64157 121.197 2.86557C121.197 3.09757 121.117 3.29357 120.957 3.45357C120.797 3.60557 120.605 3.68157 120.381 3.68157C120.157 3.68157 119.965 3.60557 119.805 3.45357C119.645 3.29357 119.565 3.09757 119.565 2.86557Z" fill="white"/>
<path d="M130.986 8.97357C130.826 9.20557 130.614 9.38957 130.35 9.52557C130.094 9.65357 129.81 9.71757 129.498 9.71757C129.21 9.71757 128.922 9.64957 128.634 9.51357C128.346 9.37757 128.126 9.19757 127.974 8.97357C127.798 9.21357 127.578 9.39757 127.314 9.52557C127.058 9.65357 126.774 9.71757 126.462 9.71757H125.706V8.42157H126.486C126.838 8.42157 127.086 8.35357 127.23 8.21757C127.382 8.07357 127.458 7.82557 127.458 7.47357V5.91357H128.598V7.46157C128.598 7.80557 128.67 8.05357 128.814 8.20557C128.958 8.34957 129.19 8.42157 129.51 8.42157C129.838 8.42157 130.074 8.34957 130.218 8.20557C130.362 8.05357 130.434 7.80557 130.434 7.46157V5.91357H131.562V7.46157C131.562 7.79757 131.646 8.04157 131.814 8.19357C131.982 8.34557 132.218 8.42157 132.522 8.42157C132.842 8.42157 133.07 8.34957 133.206 8.20557C133.35 8.05357 133.422 7.80557 133.422 7.46157V5.91357H134.55V7.47357C134.55 7.82557 134.622 8.07357 134.766 8.21757C134.918 8.35357 135.174 8.42157 135.534 8.42157H136.314L136.374 9.06957L136.314 9.71757H135.546C135.242 9.71757 134.958 9.65357 134.694 9.52557C134.43 9.39757 134.21 9.21357 134.034 8.97357C133.89 9.19757 133.67 9.37757 133.374 9.51357C133.086 9.64957 132.802 9.71757 132.522 9.71757C132.226 9.71757 131.946 9.65357 131.682 9.52557C131.426 9.39757 131.194 9.21357 130.986 8.97357Z" fill="white"/>
<path d="M136.194 8.42157H137.454C137.806 8.42157 138.062 8.34557 138.222 8.19357C138.382 8.04157 138.454 7.83357 138.438 7.56957C138.422 7.34557 138.378 7.02957 138.306 6.62157C138.234 6.21357 138.158 5.82557 138.078 5.45757L139.17 5.18157C139.258 5.55757 139.342 5.98157 139.422 6.45357C139.502 6.92557 139.55 7.30557 139.566 7.59357C139.582 7.95357 139.51 8.29757 139.35 8.62557C139.198 8.95357 138.962 9.21757 138.642 9.41757C138.33 9.61757 137.95 9.71757 137.502 9.71757H136.194V8.42157ZM137.25 3.14157C137.242 2.90957 137.322 2.71357 137.49 2.55357C137.658 2.40157 137.85 2.32557 138.066 2.32557C138.29 2.33357 138.482 2.41757 138.642 2.57757C138.802 2.72957 138.882 2.91757 138.882 3.14157C138.882 3.37357 138.802 3.56957 138.642 3.72957C138.482 3.88157 138.29 3.95757 138.066 3.95757C137.842 3.95757 137.65 3.88157 137.49 3.72957C137.33 3.56957 137.25 3.37357 137.25 3.14157Z" fill="white"/>
<path d="M145.79 9.71757C145.294 9.71757 144.862 9.60157 144.494 9.36957C144.126 9.12957 143.854 8.81757 143.678 8.43357C143.51 8.04157 143.458 7.62157 143.522 7.17357C143.586 6.73357 143.714 6.12157 143.906 5.33757L144.95 5.61357L144.902 5.86557C144.726 6.59357 144.626 7.08557 144.602 7.34157C144.562 7.66957 144.642 7.93357 144.842 8.13357C145.05 8.32557 145.366 8.42157 145.79 8.42157H150.986C151.37 8.42157 151.65 8.34957 151.826 8.20557C152.01 8.06157 152.102 7.82957 152.102 7.50957V5.91357H153.23V7.62957C153.23 7.91757 153.302 8.12157 153.446 8.24157C153.59 8.36157 153.818 8.42157 154.13 8.42157H154.538L154.61 9.05757L154.538 9.71757H154.13C153.874 9.71757 153.606 9.65757 153.326 9.53757C153.054 9.41757 152.818 9.23757 152.618 8.99757C152.426 9.22957 152.186 9.40957 151.898 9.53757C151.61 9.65757 151.306 9.71757 150.986 9.71757H145.79ZM146.774 5.00157C146.774 4.86557 146.81 4.73757 146.882 4.61757C146.954 4.49757 147.05 4.40157 147.17 4.32957C147.282 4.25757 147.41 4.22157 147.554 4.22157C147.69 4.21357 147.818 4.24957 147.938 4.32957C148.058 4.40157 148.154 4.49357 148.226 4.60557C148.29 4.74157 148.322 4.87357 148.322 5.00157C148.322 5.20957 148.246 5.39357 148.094 5.55357C147.942 5.70557 147.762 5.78157 147.554 5.78157C147.346 5.78157 147.162 5.70557 147.002 5.55357C146.85 5.39357 146.774 5.20957 146.774 5.00157ZM148.838 5.00157C148.838 4.79357 148.914 4.61357 149.066 4.46157C149.218 4.30157 149.398 4.22157 149.606 4.22157C149.822 4.22157 150.006 4.30157 150.158 4.46157C150.31 4.61357 150.386 4.79357 150.386 5.00157C150.386 5.20957 150.31 5.39357 150.158 5.55357C150.006 5.70557 149.822 5.78157 149.606 5.78157C149.478 5.78157 149.354 5.74557 149.234 5.67357C149.114 5.60957 149.018 5.51757 148.946 5.39757C148.874 5.26957 148.838 5.13757 148.838 5.00157Z" fill="white"/>
<path d="M154.417 8.42157H156.421C156.989 8.41357 157.401 8.36957 157.657 8.28957C157.913 8.20157 158.081 8.05757 158.161 7.85757C158.249 7.64957 158.293 7.32557 158.293 6.88557V5.60157C158.293 5.25757 158.209 4.98957 158.041 4.79757C157.873 4.60557 157.621 4.50957 157.285 4.50957C156.981 4.50957 156.741 4.60957 156.565 4.80957C156.389 5.00957 156.301 5.27357 156.301 5.60157C156.301 5.88157 156.377 6.09757 156.529 6.24957C156.689 6.39357 156.937 6.47357 157.273 6.48957L158.845 6.63357L158.773 7.83357L157.213 7.74957C156.821 7.72557 156.473 7.62557 156.169 7.44957C155.865 7.27357 155.625 7.02957 155.449 6.71757C155.273 6.39757 155.185 6.02557 155.185 5.60157C155.185 5.16957 155.281 4.77357 155.473 4.41357C155.665 4.05357 155.921 3.77357 156.241 3.57357C156.561 3.36557 156.909 3.26157 157.285 3.26157C157.693 3.26157 158.057 3.36557 158.377 3.57357C158.697 3.77357 158.945 4.05357 159.121 4.41357C159.305 4.76557 159.397 5.16157 159.397 5.60157V6.72957C159.397 7.36157 159.305 7.89757 159.121 8.33757C158.937 8.77757 158.621 9.11757 158.173 9.35757C157.725 9.59757 157.121 9.71757 156.361 9.71757H154.417V8.42157ZM156.469 1.67757C156.469 1.44557 156.549 1.24957 156.709 1.08957C156.885 0.937572 157.077 0.861572 157.285 0.861572C157.517 0.861572 157.709 0.941572 157.861 1.10157C158.021 1.26157 158.101 1.45357 158.101 1.67757C158.101 1.90157 158.021 2.09357 157.861 2.25357C157.701 2.41357 157.509 2.49357 157.285 2.49357C157.061 2.49357 156.869 2.41357 156.709 2.25357C156.549 2.09357 156.469 1.90157 156.469 1.67757Z" fill="white"/>
<path d="M163.2 9.71757C162.648 9.71757 162.208 9.61357 161.88 9.40557C161.56 9.18957 161.332 8.89357 161.196 8.51757C161.06 8.13357 160.992 7.66957 160.992 7.12557L160.98 1.85757H162.108L162.12 7.12557C162.12 7.51757 162.144 7.80157 162.192 7.97757C162.24 8.14557 162.336 8.26157 162.48 8.32557C162.624 8.38957 162.864 8.42157 163.2 8.42157H163.464L163.536 9.08157L163.464 9.71757H163.2Z" fill="white"/>
<path d="M163.346 8.42157H164.87C165.294 8.42157 165.594 8.34957 165.77 8.20557C165.946 8.05357 166.026 7.84157 166.01 7.56957C165.994 7.34557 165.95 7.02957 165.878 6.62157C165.814 6.21357 165.742 5.82557 165.662 5.45757L166.754 5.18157C166.842 5.55757 166.926 5.98157 167.006 6.45357C167.086 6.92557 167.134 7.30557 167.15 7.59357C167.158 7.96157 167.082 8.30957 166.922 8.63757C166.762 8.95757 166.51 9.21757 166.166 9.41757C165.83 9.61757 165.41 9.71757 164.906 9.71757H163.346V8.42157ZM162.734 12.0696C162.734 11.9336 162.77 11.8056 162.842 11.6856C162.914 11.5656 163.01 11.4696 163.13 11.3976C163.242 11.3256 163.37 11.2896 163.514 11.2896C163.65 11.2816 163.778 11.3136 163.898 11.3856C164.018 11.4656 164.114 11.5616 164.186 11.6736C164.25 11.8096 164.282 11.9416 164.282 12.0696C164.282 12.2776 164.206 12.4576 164.054 12.6096C163.902 12.7696 163.722 12.8496 163.514 12.8496C163.306 12.8496 163.126 12.7696 162.974 12.6096C162.814 12.4576 162.734 12.2776 162.734 12.0696ZM164.798 12.0696C164.798 11.8616 164.874 11.6776 165.026 11.5176C165.178 11.3656 165.358 11.2896 165.566 11.2896C165.782 11.2896 165.966 11.3656 166.118 11.5176C166.27 11.6776 166.346 11.8616 166.346 12.0696C166.346 12.2776 166.27 12.4576 166.118 12.6096C165.966 12.7696 165.782 12.8496 165.566 12.8496C165.438 12.8496 165.314 12.8136 165.194 12.7416C165.074 12.6776 164.978 12.5816 164.906 12.4536C164.834 12.3336 164.798 12.2056 164.798 12.0696Z" fill="white"/>
<path d="M171.774 5.91357V9.29757C171.774 10.0336 171.646 10.6576 171.39 11.1696C171.142 11.6816 170.774 12.0696 170.286 12.3336C169.806 12.6056 169.214 12.7416 168.51 12.7416H167.754V11.4456H168.51C169.038 11.4456 169.454 11.3736 169.758 11.2296C170.07 11.0936 170.294 10.8696 170.43 10.5576C170.574 10.2456 170.646 9.82557 170.646 9.29757V5.91357H171.774Z" fill="white"/>
<path d="M176.213 4.50957C176.485 4.93357 176.697 5.26957 176.849 5.51757C177.009 5.75757 177.221 6.08157 177.485 6.48957C177.733 6.87357 177.869 7.28557 177.893 7.72557C177.917 8.16557 177.825 8.53357 177.617 8.82957C177.385 9.15757 177.101 9.38957 176.765 9.52557C176.429 9.65357 176.049 9.71757 175.625 9.71757H174.989C174.533 9.71757 174.125 9.64957 173.765 9.51357C173.405 9.37757 173.113 9.22157 172.889 9.04557L173.453 7.97757L173.513 8.01357C173.697 8.12557 173.901 8.22157 174.125 8.30157C174.357 8.38157 174.645 8.42157 174.989 8.42157H175.613C175.893 8.42157 176.117 8.39757 176.285 8.34957C176.461 8.29357 176.597 8.19757 176.693 8.06157C176.765 7.95757 176.789 7.83757 176.765 7.70157C176.741 7.55757 176.665 7.37757 176.537 7.16157C175.809 6.03357 175.197 5.10557 174.701 4.37757L175.661 3.65757L176.213 4.50957Z" fill="white"/>
</g>
</svg>
