<svg width="220" height="46" viewBox="0 0 220 46" fill="none" xmlns="http://www.w3.org/2000/svg">
<g id="Vector">
<path d="M156.989 26.9426C157.141 27.4198 157.267 27.922 157.419 28.3991C157.47 28.6 157.52 28.826 157.596 29.0269C157.672 29.2278 157.697 29.4789 157.748 29.6798C157.799 29.9058 157.849 30.1067 157.875 30.3327C157.9 30.5336 157.95 30.7345 157.95 30.9103C157.95 30.9605 157.95 31.0358 157.976 31.1112C157.976 31.1865 157.976 31.2618 157.976 31.3623C157.976 31.8143 157.9 32.2663 157.773 32.6932C157.647 33.1201 157.444 33.547 157.217 33.9236C156.989 34.3254 156.686 34.7021 156.357 35.0537C156.028 35.4303 155.674 35.7568 155.269 36.0832C154.889 36.4097 154.459 36.6859 154.029 36.9621C153.599 37.2384 153.169 37.4895 152.714 37.6904L152.031 36.3092C152.587 36.033 153.119 35.7066 153.65 35.355C154.181 35.0034 154.636 34.6017 155.041 34.1748C155.446 33.7479 155.775 33.2959 156.028 32.8187C156.281 32.3416 156.407 31.8394 156.407 31.3372C156.407 31.312 156.407 31.2618 156.407 31.2116C156.407 31.1614 156.407 31.086 156.382 31.0358C156.357 30.8852 156.331 30.6843 156.306 30.5085C156.281 30.3076 156.23 30.1067 156.18 29.9058C156.129 29.7049 156.078 29.504 156.028 29.3031C155.977 29.1022 155.927 28.9013 155.876 28.7256C155.75 28.2736 155.623 27.8467 155.471 27.3946L156.989 26.9426ZM157.369 23.7284L156.078 25.0091L154.763 23.7033L156.053 22.4226L157.369 23.7284Z" fill="white"/>
<path d="M160.733 32.0402C160.809 30.8349 160.86 29.7048 160.885 28.6502C160.91 27.5955 160.91 26.591 160.885 25.687C160.86 24.783 160.834 23.9794 160.784 23.2512C160.733 22.523 160.682 21.9203 160.632 21.418C160.581 20.9158 160.556 20.514 160.505 20.2378C160.48 19.9616 160.455 19.8109 160.455 19.8109L162.023 19.5849C162.023 19.61 162.074 19.9365 162.15 20.5391C162.175 20.8405 162.226 21.1669 162.251 21.5185C162.276 21.8701 162.302 22.2467 162.327 22.6485C162.352 23.0503 162.377 23.427 162.403 23.7785C162.428 24.1301 162.428 24.4817 162.453 24.8081C162.479 25.7874 162.504 26.8672 162.479 28.0977C162.479 29.3282 162.428 30.6591 162.327 32.1156L160.733 32.0402Z" fill="white"/>
<path d="M182.387 30.7595C182.185 30.5084 182.008 30.2322 181.881 29.9058C180.49 31.3622 178.264 32.0905 175.254 32.0905C173.635 32.0905 172.319 31.8896 171.257 31.5129C170.194 31.1362 169.435 30.5587 168.955 29.7551C168.803 29.504 168.676 29.2277 168.6 28.9515C168.525 28.6753 168.474 28.3991 168.449 28.1228C168.423 27.8466 168.423 27.5955 168.449 27.3193C168.474 27.0682 168.525 26.817 168.575 26.5659C168.651 26.3148 168.702 26.0888 168.778 25.8879C168.853 25.687 168.904 25.5112 168.955 25.3606C169.005 25.2099 169.056 25.1095 169.106 25.009C169.157 24.9337 169.182 24.8834 169.182 24.8583L170.548 25.6117C170.548 25.6117 170.523 25.6619 170.472 25.7624C170.422 25.8628 170.371 25.9884 170.321 26.1641C170.27 26.3148 170.194 26.5157 170.144 26.7417C170.093 26.9677 170.042 27.1937 170.042 27.4197C170.017 27.6457 170.042 27.8968 170.093 28.1479C170.144 28.3991 170.22 28.6251 170.346 28.8511C170.675 29.3784 171.231 29.7802 172.066 30.0564C172.901 30.3326 173.963 30.4582 175.254 30.4582C176.417 30.4582 177.429 30.3578 178.239 30.1569C179.048 29.956 179.731 29.6295 180.288 29.2026C180.541 29.0017 180.743 28.8008 180.92 28.5748C181.097 28.3488 181.249 28.1228 181.376 27.8717C181.502 27.6206 181.603 27.3946 181.679 27.1435C181.755 26.8924 181.831 26.6664 181.907 26.4153L183.425 26.817C183.399 26.9175 183.374 27.043 183.349 27.1686C183.323 27.2942 183.273 27.4448 183.247 27.5955C183.172 27.8968 183.146 28.1731 183.172 28.3739C183.172 28.6 183.222 28.826 183.273 29.0771C183.323 29.3282 183.45 29.5542 183.602 29.73C183.981 30.2071 184.614 30.4331 185.499 30.4331C185.727 30.4331 185.904 30.5084 186.055 30.6591C186.207 30.8098 186.283 30.9855 186.283 31.2116C186.283 31.4376 186.207 31.6133 186.055 31.764C185.904 31.9147 185.727 31.99 185.499 31.99H185.423C184.057 32.0402 183.045 31.6133 182.387 30.7595ZM175.557 24.3059L174.267 25.5866L172.952 24.3059L174.242 23.0252L175.557 24.3059ZM178.82 24.3059L177.53 25.5866L176.215 24.2808L177.505 23.0001L178.82 24.3059Z" fill="white"/>
<path d="M184.816 31.2869C184.816 31.0609 184.892 30.8851 185.044 30.7344C185.195 30.5838 185.398 30.5084 185.6 30.5084C186.182 30.5084 186.738 30.4833 187.219 30.4331C187.725 30.3829 188.155 30.3075 188.535 30.2071C188.914 30.1318 189.243 30.0313 189.521 29.9057C189.799 29.8053 190.002 29.7049 190.128 29.6044C190.204 29.5542 190.255 29.504 190.305 29.4537C190.356 29.4035 190.381 29.3533 190.432 29.3031H189.622C189.344 29.3031 189.066 29.278 188.788 29.2277C188.509 29.1775 188.256 29.1273 188.029 29.0268C187.801 28.9264 187.573 28.826 187.371 28.7004C187.169 28.5748 187.017 28.4242 186.865 28.2484C186.789 28.1479 186.713 28.0475 186.637 27.8968C186.561 27.7713 186.511 27.5955 186.46 27.4197C186.41 27.2439 186.384 27.043 186.384 26.817C186.384 26.591 186.384 26.365 186.435 26.0888C186.511 25.687 186.612 25.3103 186.764 24.9839C186.916 24.6574 187.093 24.3561 187.295 24.0799C187.523 23.7785 187.801 23.5274 188.105 23.3768C188.408 23.2261 188.712 23.1507 189.015 23.1507C189.724 23.1507 190.356 23.4521 190.913 24.0799C191.165 24.3561 191.368 24.6574 191.57 25.009C191.747 25.3606 191.899 25.7372 192.026 26.139C192.152 26.5408 192.228 26.9677 192.253 27.3946C192.304 27.8215 192.304 28.2484 192.253 28.6753C192.228 28.8762 192.177 29.1022 192.127 29.3031C192.101 29.3784 192.076 29.4537 192.051 29.5542C192.026 29.6546 191.975 29.7802 191.899 29.9057C191.823 30.0313 191.722 30.182 191.596 30.3326C191.469 30.4833 191.317 30.634 191.115 30.7846C190.862 30.9855 190.533 31.1613 190.154 31.312C189.774 31.4627 189.344 31.5882 188.863 31.6887C188.383 31.7891 187.877 31.8644 187.346 31.9147C186.814 31.9649 186.258 31.99 185.727 31.99H185.6C185.372 31.99 185.195 31.9147 185.044 31.764C184.917 31.6887 184.816 31.5129 184.816 31.2869ZM190.103 20.4638L188.813 21.7445L187.497 20.4387L188.788 19.158L190.103 20.4638ZM189.015 24.7328C188.939 24.7328 188.863 24.7579 188.762 24.8332C188.661 24.9086 188.56 25.009 188.459 25.1597C188.357 25.3103 188.256 25.4861 188.18 25.687C188.105 25.8879 188.029 26.139 187.978 26.3901C187.902 26.7919 187.953 27.0681 188.105 27.269C188.206 27.3946 188.357 27.495 188.56 27.5704C188.762 27.6457 189.015 27.6959 189.293 27.721C189.572 27.721 189.825 27.7462 190.052 27.7462C190.28 27.7462 190.482 27.7462 190.66 27.721C190.634 27.2188 190.533 26.7166 190.356 26.2646C190.204 25.8126 189.977 25.4359 189.698 25.1346C189.622 25.0341 189.496 24.9588 189.369 24.8583C189.319 24.783 189.192 24.7328 189.015 24.7328Z" fill="white"/>
<path d="M198.122 32.0654C197.54 32.0654 197.034 31.9901 196.63 31.8645C196.225 31.7389 195.871 31.5129 195.567 31.2367C195.39 31.0609 195.264 30.8851 195.162 30.6843C195.061 30.4834 195.011 30.2825 194.96 30.0816C194.909 29.8807 194.884 29.7049 194.884 29.5291C194.884 29.3533 194.884 29.2027 194.884 29.0771V28.9264C194.884 28.9264 194.884 28.826 194.884 28.6502C194.884 28.4744 194.884 28.2233 194.884 27.8969C194.884 27.5704 194.884 27.2189 194.884 26.792C194.884 26.3902 194.884 25.9382 194.884 25.4862C194.884 25.0342 194.884 24.557 194.859 24.0799C194.859 23.5777 194.834 23.1257 194.808 22.6486C194.783 22.1966 194.758 21.7697 194.732 21.393C194.707 21.0163 194.656 20.6899 194.606 20.4388L196.174 20.1625C196.225 20.4388 196.275 20.7652 196.301 21.1419C196.326 21.5437 196.377 21.9454 196.402 22.4226C196.427 22.8746 196.453 23.3517 196.453 23.8539C196.453 24.3562 196.478 24.8333 196.478 25.3104C196.478 25.7624 196.478 26.2144 196.478 26.6413C196.478 27.0682 196.478 27.4449 196.478 27.7713C196.478 28.0978 196.478 28.374 196.478 28.6C196.478 28.826 196.478 28.9516 196.478 28.9767V29.1273C196.478 29.3533 196.478 29.5542 196.503 29.73C196.528 29.9058 196.604 30.0565 196.731 30.1569C196.958 30.408 197.414 30.5336 198.072 30.5336H198.147C198.249 30.5336 198.35 30.5587 198.451 30.6089C198.552 30.6591 198.628 30.7094 198.704 30.7847C198.78 30.86 198.83 30.9354 198.881 31.0358C198.932 31.1363 198.957 31.2367 198.957 31.3372C198.957 31.5632 198.881 31.7389 198.729 31.8896C198.603 32.0403 198.35 32.0654 198.122 32.0654Z" fill="white"/>
<path d="M196.933 31.287C196.933 31.061 197.009 30.8852 197.161 30.7345C197.313 30.5838 197.49 30.5085 197.717 30.5085H198.603C198.78 30.5085 198.982 30.5085 199.21 30.5085C199.438 30.5085 199.64 30.4834 199.868 30.4834C200.095 30.4834 200.298 30.4332 200.525 30.3829C200.728 30.3327 200.93 30.2825 201.107 30.2072C201.284 30.1318 201.436 30.0565 201.588 29.9309C201.714 29.8305 201.816 29.7049 201.891 29.5543C201.993 29.3283 202.018 29.0018 201.993 28.6C201.942 28.1731 201.841 27.696 201.664 27.1436C201.613 26.9678 201.537 26.792 201.461 26.5911C201.385 26.3902 201.31 26.2144 201.234 26.0387C201.158 25.8378 201.057 25.6369 200.981 25.436L202.397 24.7329C202.397 24.7329 202.423 24.7831 202.473 24.8835C202.524 24.984 202.574 25.1346 202.65 25.2853C202.726 25.4611 202.802 25.662 202.903 25.888C203.004 26.114 203.08 26.3651 203.156 26.6162C203.662 28.1229 203.713 29.3032 203.333 30.1569C202.954 31.0107 202.296 31.5632 201.335 31.8394C201.183 31.8896 201.006 31.9147 200.778 31.9399C200.551 31.965 200.323 31.9901 200.095 31.9901C199.868 31.9901 199.64 32.0152 199.438 32.0152C199.235 32.0152 199.058 32.0152 198.957 32.0152H197.717C197.49 32.0152 197.313 31.9399 197.161 31.7892C196.984 31.6887 196.933 31.513 196.933 31.287ZM200.753 34.7775L199.463 36.0581L198.147 34.7775L199.438 33.4968L200.753 34.7775ZM204.042 34.8026L202.751 36.0833L201.436 34.7775L202.726 33.4968L204.042 34.8026Z" fill="white"/>
<path d="M208.949 26.9426C209.101 27.4198 209.228 27.922 209.379 28.3991C209.43 28.6 209.481 28.826 209.556 29.0269C209.632 29.2278 209.658 29.4789 209.708 29.6798C209.759 29.9058 209.809 30.1067 209.835 30.3327C209.86 30.5336 209.911 30.7345 209.911 30.9103C209.911 30.9605 209.911 31.0358 209.936 31.1112C209.936 31.1865 209.936 31.2618 209.936 31.3623C209.936 31.8143 209.86 32.2663 209.733 32.6932C209.607 33.1201 209.405 33.547 209.177 33.9236C208.949 34.3254 208.646 34.7021 208.317 35.0537C207.988 35.4303 207.634 35.7568 207.229 36.0832C206.85 36.4097 206.42 36.6859 205.99 36.9621C205.559 37.2384 205.129 37.4895 204.674 37.6904L203.991 36.3092C204.548 36.033 205.079 35.7066 205.61 35.355C206.141 35.0034 206.597 34.6017 207.001 34.1748C207.406 33.7479 207.735 33.2959 207.988 32.8187C208.241 32.3416 208.367 31.8394 208.367 31.3372C208.367 31.312 208.367 31.2618 208.367 31.2116C208.367 31.1614 208.367 31.086 208.342 31.0358C208.317 30.8851 208.292 30.6843 208.266 30.5085C208.241 30.3076 208.19 30.1067 208.14 29.9058C208.089 29.7049 208.039 29.504 207.988 29.3031C207.937 29.1022 207.887 28.9013 207.836 28.7256C207.71 28.2736 207.583 27.8467 207.431 27.3946L208.949 26.9426Z" fill="white"/>
<path d="M215.248 32.0402C214.995 32.0402 214.692 32.0151 214.338 31.9397C213.983 31.8644 213.655 31.7891 213.3 31.6886C212.946 31.5882 212.643 31.4877 212.364 31.3622C212.086 31.2366 211.858 31.1111 211.732 30.9855L212.39 29.5039C212.592 29.6295 212.82 29.755 213.098 29.8806C213.376 30.0061 213.655 30.1066 213.983 30.1819C214.287 30.2573 214.616 30.3326 214.945 30.3828C215.274 30.433 215.602 30.433 215.906 30.4079C216.21 30.3828 216.488 30.3075 216.766 30.207C217.019 30.1066 217.247 29.9308 217.424 29.7299C217.576 29.5793 217.576 29.2528 217.474 28.8259C217.424 28.5748 217.323 28.2986 217.196 28.0223C217.07 27.7461 216.918 27.4699 216.715 27.1685C216.538 26.8923 216.336 26.6161 216.108 26.3399C215.881 26.0636 215.653 25.8125 215.4 25.5865C215.147 25.3605 214.919 25.1596 214.666 24.9838C214.413 24.8081 214.16 24.6574 213.933 24.557L214.565 23.1256C214.869 23.2763 215.198 23.452 215.501 23.678C215.83 23.9041 216.134 24.1552 216.437 24.4314C216.741 24.7076 217.019 25.0341 217.297 25.3605C217.576 25.687 217.829 26.0385 218.031 26.3901C218.259 26.7416 218.436 27.0932 218.613 27.4448C218.765 27.7963 218.891 28.1479 218.967 28.4743C219.043 28.7757 219.068 29.0268 219.068 29.2779C219.068 29.5039 219.043 29.7299 218.992 29.9057C218.942 30.0815 218.891 30.2573 218.815 30.3828C218.739 30.5335 218.663 30.6339 218.587 30.7344C218.107 31.3119 217.424 31.7137 216.538 31.8895C216.336 31.9397 216.134 31.99 215.906 31.99C215.704 32.0402 215.451 32.0402 215.248 32.0402Z" fill="white"/>
<path d="M66.0967 23.5276C66.805 23.5276 67.4121 23.2764 67.918 22.7742C68.0698 22.6235 68.1963 22.4478 68.2975 22.2971C68.3987 22.4729 68.5252 22.6235 68.6517 22.7742C69.1576 23.2764 69.7394 23.5276 70.4478 23.5276C71.1561 23.5276 71.7632 23.2764 72.2438 22.7742C72.7498 22.272 72.9775 21.6693 72.9775 20.9662C72.9775 20.2631 72.7245 19.6604 72.2438 19.1833C71.7632 18.7061 71.1561 18.455 70.4478 18.455C69.7394 18.455 69.1323 18.7061 68.6517 19.1833C68.4999 19.3339 68.3734 19.4846 68.2975 19.6604C68.1963 19.4846 68.0698 19.3339 67.918 19.1833C67.4121 18.681 66.805 18.455 66.0967 18.455C65.4136 18.455 64.7812 18.7061 64.3006 19.2084C63.8199 19.7106 63.5417 20.2882 63.5417 20.9913C63.5417 21.6944 63.7946 22.2971 64.2753 22.7993C64.7812 23.2764 65.3883 23.5276 66.0967 23.5276Z" fill="white"/>
<path d="M118.032 19.2083C117.424 19.2083 116.918 19.4092 116.539 19.8612C116.134 20.2881 115.932 20.8154 115.932 21.4181C115.932 21.845 116.058 22.4979 116.261 23.3517C116.463 24.1803 116.59 24.8332 116.59 25.2852C116.59 26.817 115.477 27.5955 113.276 27.5955H110.695C108.722 27.5955 106.85 26.7417 105.054 25.0341C102.954 22.975 101.563 21.5939 100.83 20.8656C98.2492 18.3796 96.0484 16.4209 94.2017 14.9142C93.8981 14.6631 93.7463 14.3869 93.7463 14.0855C93.7463 13.7842 93.9487 13.5582 94.3029 13.4075C97.9962 11.9761 101.968 10.7708 106.167 9.81656C107.483 9.54033 108.115 8.83721 108.115 7.75741C108.115 6.32606 107.28 5.59782 105.585 5.59782C105.307 5.59782 104.953 5.64805 104.573 5.72338C98.401 7.15474 93.8981 8.76188 91.0143 10.4946C89.7241 11.273 89.0917 12.5537 89.0917 14.3115C89.0917 15.1653 89.2182 15.8433 89.5217 16.3707C90.0277 17.2496 91.672 18.9069 94.48 21.2925C96.9844 23.427 98.2239 24.8835 98.2239 25.6368C98.2239 26.6664 97.1614 27.2691 95.0365 27.4951C94.5811 27.5453 92.8609 27.5453 89.8506 27.5453H88.4846C86.4861 27.5453 85.3477 26.7417 85.0189 25.1346C84.8418 24.2306 84.7406 23.6781 84.69 23.4521C84.4117 22.7992 83.9058 22.4728 83.1469 22.4728C82.4639 22.4728 81.9073 22.8997 81.5279 23.7786C80.8954 25.1848 80.516 26.0135 80.3136 26.2395C78.9982 27.8968 75.5072 28.7255 69.8659 28.7255H67.1338C63.2887 28.7255 60.6578 28.2986 59.2412 27.3946C58.2799 26.7919 57.7992 25.8628 57.7992 24.6324C57.7992 24.2808 57.8751 23.7283 58.0269 23.0252C58.1787 22.297 58.2546 21.7696 58.2546 21.4181C58.2546 20.3383 57.7233 19.8109 56.6356 19.8109C55.6237 19.8109 54.8142 20.6898 54.2829 22.4476C53.9035 23.6781 53.7011 24.9588 53.7011 26.2897C53.7011 31.4125 58.1028 33.9738 66.9062 33.9738C75.3554 33.9738 80.6172 32.668 82.5903 30.0313C83.4504 31.8394 85.1453 32.7434 87.6497 32.7434H89.2435C93.0633 32.7434 95.7448 32.5174 97.3132 32.0402C99.7164 31.312 101.184 29.8053 101.74 27.5453C104.219 31.0107 107.306 32.7434 110.974 32.7434H112.972C115.451 32.7434 117.374 32.0151 118.79 30.5838C120.207 29.1524 120.89 27.1937 120.89 24.7077C120.865 21.0414 119.929 19.2083 118.032 19.2083Z" fill="white"/>
<path d="M114.363 35.4806C113.68 35.4806 113.048 35.7317 112.567 36.2339C112.239 36.5604 112.036 36.937 111.91 37.3388C111.783 36.9119 111.581 36.5604 111.252 36.2339C110.746 35.7317 110.164 35.4806 109.456 35.4806C108.748 35.4806 108.14 35.7317 107.634 36.2088C107.129 36.6859 106.876 37.2886 106.876 37.9917C106.876 38.6948 107.129 39.2975 107.634 39.7997C108.14 40.302 108.748 40.5531 109.456 40.5531C110.164 40.5531 110.771 40.302 111.252 39.7997C111.581 39.4733 111.758 39.0966 111.884 38.6697C112.011 39.0966 112.188 39.4733 112.517 39.7997C113.023 40.302 113.605 40.5531 114.313 40.5531C115.021 40.5531 115.628 40.302 116.134 39.7997C116.64 39.2975 116.893 38.6948 116.893 37.9917C116.893 37.2886 116.64 36.6859 116.134 36.2088C115.628 35.7317 115.097 35.4806 114.363 35.4806Z" fill="white"/>
<path d="M145.732 22.7741C144.821 21.3428 143.506 20.6145 141.811 20.6145C140.394 20.6145 139.003 21.3679 137.586 22.8746C137.308 23.201 136.6 24.1553 135.486 25.7373C134.981 26.4655 134.5 26.9678 134.019 27.1938C133.564 27.4449 132.906 27.5704 132.046 27.5704H131.464C129.112 27.5704 127.973 26.1391 127.973 23.3015V8.41035C127.973 6.42654 127.214 5.44719 125.697 5.44719C124.938 5.44719 124.33 5.77364 123.926 6.40143C123.572 6.95388 123.42 7.63189 123.42 8.41035L123.926 22.4979C124.052 26.0135 124.432 28.374 125.014 29.6547C126 31.7389 127.973 32.7685 130.933 32.7685H132.552C134.196 32.7685 135.588 32.191 136.726 31.0609C138.016 32.5927 139.661 33.3461 141.71 33.3461C143.303 33.3461 144.593 32.7183 145.555 31.4376C146.44 30.2825 146.87 28.9265 146.87 27.2942C146.921 25.4862 146.491 23.9795 145.732 22.7741ZM141.608 29.052C141.102 29.052 140.596 28.9013 139.989 28.6251C139.306 28.2736 138.977 27.8718 138.977 27.4449C138.977 26.8673 139.256 26.3149 139.838 25.8126C140.419 25.3104 141.001 25.0342 141.558 25.0342C142.14 25.0342 142.595 25.3104 142.949 25.8377C143.227 26.2897 143.379 26.8171 143.379 27.4449C143.379 28.5247 142.823 29.052 141.608 29.052Z" fill="white"/>
<path d="M23.5978 45.5001C36.116 45.5001 46.264 35.4265 46.264 23.0002C46.264 10.5738 36.116 0.500244 23.5978 0.500244C11.0796 0.500244 0.931641 10.5738 0.931641 23.0002C0.931641 35.4265 11.0796 45.5001 23.5978 45.5001Z" fill="#0091EA"/>
<path d="M37.5113 20.3385C37.3342 16.0695 33.7927 12.7046 29.4669 12.7046C27.0636 12.7046 24.8881 13.7592 23.4209 15.4166C21.9536 13.7592 19.7781 12.7046 17.3749 12.7046C13.125 12.7046 9.63397 15.9691 9.33041 20.1125C9.33041 20.2129 9.30511 20.3134 9.30511 20.4138V29.4539C9.30511 30.5589 10.2158 31.4629 11.3289 31.4629H11.3795C12.4925 31.4629 13.4032 30.5589 13.4032 29.4539V20.7151C13.4032 18.5304 15.1993 16.7475 17.4002 16.7475C19.601 16.7475 21.3971 18.5304 21.3971 20.7151V28.0979C21.3971 29.2028 22.3078 30.1068 23.4209 30.1068H23.4715C24.5845 30.1068 25.4952 29.2028 25.4952 28.0979V20.7151C25.4952 18.5304 27.2913 16.7475 29.4922 16.7475C31.693 16.7475 33.4891 18.5304 33.4891 20.7151V29.4791C33.4891 30.584 34.3745 31.4629 35.4876 31.4629H35.5382C36.6512 31.4629 37.5366 30.584 37.5366 29.4791V20.5394C37.5113 20.464 37.5113 20.3887 37.5113 20.3385Z" fill="white"/>
<path d="M29.8715 32.2159C29.7704 32.0652 29.4921 32.3666 29.4921 32.3666C28.379 33.5719 26.0517 34.3504 23.6485 34.3504C21.2453 34.3504 18.9432 33.5719 17.8049 32.3666C17.8049 32.3666 17.5013 32.0652 17.4254 32.2159C17.2989 32.3917 17.476 32.6679 17.476 32.6679C18.9179 34.7271 21.0935 35.6311 23.6485 35.6311C26.2035 35.6311 28.379 34.7019 29.8209 32.6679C29.7957 32.693 29.998 32.4168 29.8715 32.2159Z" fill="white"/>
</g>
</svg>
