<svg width="144" height="52" viewBox="0 0 144 52" fill="none" xmlns="http://www.w3.org/2000/svg">
<g id="Vector">
<path d="M51.8782 19.4696L51.5182 18.5184C52.3539 18.2514 52.9953 17.9302 53.4422 17.5547C53.8975 17.1876 54.2078 16.8038 54.3731 16.4033C54.5469 16.0028 54.6338 15.619 54.6338 15.2519C54.6338 15.0183 54.609 14.793 54.5593 14.5761C54.5097 14.3592 54.4228 14.113 54.2986 13.8377C54.1745 13.5624 54.0007 13.2203 53.7773 12.8115L54.6834 12.3484C54.9977 12.8907 55.2212 13.4038 55.3537 13.8878C55.4942 14.3717 55.5647 14.7972 55.5647 15.1643C55.5647 15.69 55.4778 16.1655 55.3041 16.5911C55.1387 17.0166 54.9153 17.392 54.6338 17.7174C54.3607 18.0512 54.0588 18.3348 53.7277 18.5685C53.4049 18.8021 53.0782 18.994 52.7471 19.1442C52.4244 19.2943 52.1349 19.4028 51.8782 19.4696ZM54.0256 10.9091C53.8518 10.9091 53.7028 10.8507 53.5787 10.7339C53.463 10.6088 53.4049 10.4628 53.4049 10.2959C53.4049 10.1291 53.463 9.98302 53.5787 9.85787C53.7028 9.73272 53.8518 9.67014 54.0256 9.67014C54.1909 9.67014 54.3319 9.73272 54.4476 9.85787C54.5717 9.98302 54.6338 10.1291 54.6338 10.2959C54.6338 10.4628 54.5717 10.6088 54.4476 10.7339C54.3319 10.8507 54.1909 10.9091 54.0256 10.9091ZM56.9075 16.5911L56.6592 7.65519H57.6647L57.9129 16.5911H56.9075ZM62.7325 16.5911V10.5712H61.5781V16.5911H62.7325ZM61.3175 8.29347C61.3175 8.75653 61.6899 9.13199 62.1491 9.13199C62.6208 9.13199 62.9932 8.75653 62.9932 8.29347C62.9932 7.81789 62.6208 7.44244 62.1491 7.44244C61.6899 7.44244 61.3175 7.81789 61.3175 8.29347ZM64.9038 12.1482C64.9038 9.83284 66.443 8.65641 68.0814 8.65641C69.7199 8.65641 71.259 9.83284 71.259 12.1482C71.259 14.4635 69.7199 15.6524 68.0814 15.6524C66.443 15.6524 64.9038 14.4635 64.9038 12.1482ZM63.6626 12.1482C63.6626 15.1143 65.872 16.7788 68.0814 16.7788C70.2908 16.7788 72.5003 15.1143 72.5003 12.1482C72.5003 9.18205 70.2908 7.53004 68.0814 7.53004C65.872 7.53004 63.6626 9.18205 63.6626 12.1482ZM79.1024 9.73272C78.9038 8.76905 78.1094 7.53004 76.1234 7.53004C74.4974 7.53004 73.2189 8.78156 73.2189 10.1708C73.2189 11.4974 74.1126 12.3234 75.3662 12.5987L76.6199 12.874C77.5012 13.0618 77.9356 13.6124 77.9356 14.2507C77.9356 15.0267 77.3398 15.6649 76.1234 15.6649C74.7953 15.6649 74.1002 14.7513 74.0133 13.7626L72.8465 14.1381C73.0079 15.4021 74.0133 16.7788 76.1358 16.7788C78.0101 16.7788 79.1769 15.5273 79.1769 14.1506C79.1769 12.9116 78.3577 11.9855 76.893 11.6601L75.5773 11.3722C74.8325 11.2095 74.4477 10.7214 74.4477 10.0831C74.4477 9.25714 75.1552 8.60635 76.1482 8.60635C77.3771 8.60635 77.9108 9.48242 78.0101 10.1207L79.1024 9.73272ZM87.6267 16.6536C87.1799 16.6536 86.7827 16.5911 86.4351 16.4659C86.096 16.3324 85.8229 16.1113 85.6159 15.8026C85.4173 15.4856 85.3056 15.0475 85.2808 14.4885L85.0822 10.1332H86.0876L86.2862 14.2632C86.311 14.6554 86.3815 14.9516 86.4972 15.1518C86.6133 15.3437 86.7747 15.473 86.9813 15.5398C87.1967 15.5982 87.4529 15.6274 87.7508 15.6274C87.9246 15.6274 88.0487 15.6774 88.1232 15.7776C88.2061 15.8693 88.2473 15.982 88.2473 16.1155C88.2473 16.249 88.1897 16.3741 88.0736 16.4909C87.9579 16.5994 87.8089 16.6536 87.6267 16.6536ZM85.7524 15.277C85.2807 15.4271 84.8215 15.5022 84.3746 15.5022C83.9278 15.5022 83.5226 15.4355 83.1582 15.302C82.7943 15.1685 82.5048 14.9766 82.2893 14.7263C82.0743 14.4676 81.9666 14.1589 81.9666 13.8002C81.9666 13.4497 82.0535 13.1202 82.2273 12.8115C82.4095 12.5027 82.6537 12.2274 82.9596 11.9855C83.2744 11.7435 83.6343 11.5433 84.0395 11.3847C84.4535 11.2179 84.892 11.1052 85.3552 11.0468L85.529 12.0981C85.1154 12.1148 84.747 12.1732 84.4243 12.2733C84.11 12.3651 83.8409 12.4861 83.6175 12.6363C83.4025 12.7864 83.2371 12.9491 83.121 13.1243C83.0053 13.2996 82.9472 13.4706 82.9472 13.6375C82.9472 13.821 83.0137 13.9712 83.1458 14.088C83.2784 14.2048 83.4481 14.2966 83.6547 14.3633C83.8617 14.4218 84.0891 14.4593 84.3374 14.476C84.5856 14.4843 84.8259 14.476 85.0573 14.451C85.2892 14.4176 85.4878 14.3717 85.6531 14.3133L85.7524 15.277ZM94.9173 16.6536C94.5698 16.6536 94.251 16.6328 93.9615 16.5911C93.6716 16.541 93.411 16.4534 93.1796 16.3282C92.9477 16.2031 92.7531 16.0237 92.5962 15.7901C92.4388 15.5481 92.3187 15.2311 92.2362 14.8389L92.9685 14.4009C93.0758 14.7346 93.2084 14.9891 93.3657 15.1643C93.5227 15.3395 93.7337 15.4605 93.9988 15.5273C94.2719 15.594 94.6194 15.6274 95.0414 15.6274C95.2152 15.6274 95.3393 15.6774 95.4138 15.7776C95.4963 15.8693 95.5379 15.982 95.5379 16.1155C95.5379 16.249 95.4799 16.3741 95.3642 16.4909C95.248 16.5994 95.0991 16.6536 94.9173 16.6536ZM87.0105 16.6536L87.1222 15.6274C87.5522 15.6274 87.9743 15.594 88.3883 15.5273C88.8019 15.4605 89.2075 15.3646 89.6047 15.2394C90.0019 15.1143 90.3823 14.9641 90.7467 14.7889C91.1191 14.6053 91.4706 14.3967 91.8018 14.1631C91.5863 13.9712 91.3381 13.8043 91.057 13.6625C90.7755 13.5207 90.4652 13.4122 90.1261 13.3371C89.7949 13.2537 89.4434 13.212 89.071 13.212C88.9385 13.212 88.8143 13.2161 88.6986 13.2245C88.5825 13.2328 88.4668 13.2495 88.3511 13.2745C88.2349 13.2912 88.1028 13.3162 87.9539 13.3496L87.7553 12.3985C87.9787 12.3317 88.2021 12.2817 88.4256 12.2483C88.649 12.2066 88.864 12.1857 89.071 12.1857C89.501 12.1857 89.8902 12.2399 90.2378 12.3484C90.5853 12.4485 90.8996 12.5737 91.1811 12.7239C91.4706 12.874 91.7397 13.0242 91.988 13.1744C92.2442 13.3246 92.4924 13.4539 92.7327 13.5624C92.9725 13.6625 93.2208 13.7126 93.4775 13.7126H93.7381L93.825 14.6137C93.469 14.6137 93.1423 14.6637 92.8444 14.7638C92.5465 14.864 92.2526 14.9933 91.9631 15.1518C91.6816 15.302 91.3837 15.4647 91.0694 15.6399C90.7547 15.8068 90.4071 15.9695 90.0268 16.128C89.646 16.2782 89.2076 16.4033 88.711 16.5035C88.2225 16.6036 87.656 16.6536 87.0105 16.6536ZM88.9593 10.8966C88.7855 10.8966 88.6366 10.8382 88.5124 10.7214C88.3963 10.5963 88.3387 10.4502 88.3387 10.2834C88.3387 10.1165 88.3963 9.97051 88.5124 9.84536C88.6366 9.72021 88.7855 9.65763 88.9593 9.65763C89.1246 9.65763 89.2652 9.72021 89.3813 9.84536C89.5054 9.97051 89.5675 10.1165 89.5675 10.2834C89.5675 10.4502 89.5054 10.5963 89.3813 10.7214C89.2652 10.8382 89.1246 10.8966 88.9593 10.8966ZM94.2931 16.6536L94.4173 15.6274C94.6819 15.6274 94.8969 15.6107 95.0627 15.5773C95.2281 15.5356 95.3646 15.4397 95.4723 15.2895C95.588 15.1309 95.6957 14.8848 95.795 14.5511C95.8943 14.2173 96.0101 13.7501 96.1426 13.1494L97.0735 13.4122C97.0239 13.6208 96.9658 13.8711 96.8998 14.1631C96.8333 14.4551 96.8005 14.7221 96.8005 14.9641C96.8005 15.0976 96.8333 15.2144 96.8998 15.3145C96.9658 15.4146 97.0775 15.4939 97.2349 15.5523C97.4003 15.6024 97.6197 15.6274 97.8928 15.6274C98.141 15.6274 98.3436 15.6065 98.501 15.5648C98.6579 15.5231 98.7865 15.423 98.8858 15.2644C98.993 15.1059 99.0884 14.8514 99.1713 14.501C99.2537 14.1506 99.3406 13.6709 99.4319 13.0618L100.375 13.237C100.35 13.3872 100.321 13.5707 100.288 13.7877C100.255 14.0046 100.222 14.2215 100.189 14.4384C100.164 14.647 100.152 14.8223 100.152 14.9641C100.152 15.0809 100.177 15.1935 100.226 15.302C100.284 15.4021 100.392 15.4814 100.549 15.5398C100.714 15.5982 100.959 15.6274 101.281 15.6274C101.695 15.6274 101.993 15.5398 102.175 15.3646C102.365 15.1894 102.461 14.9224 102.461 14.5636C102.461 14.3717 102.456 14.1715 102.448 13.9629C102.44 13.7459 102.423 13.5082 102.399 13.2495C102.382 12.9825 102.353 12.678 102.312 12.3359L103.218 12.2733C103.267 12.9491 103.321 13.504 103.379 13.9378C103.445 14.3717 103.536 14.7138 103.652 14.9641C103.776 15.206 103.942 15.3771 104.149 15.4772C104.355 15.5773 104.628 15.6274 104.968 15.6274C105.142 15.6274 105.266 15.6774 105.34 15.7776C105.423 15.8693 105.464 15.982 105.464 16.1155C105.464 16.249 105.406 16.3741 105.291 16.4909C105.174 16.5994 105.026 16.6536 104.844 16.6536C104.562 16.6536 104.31 16.6161 104.087 16.541C103.871 16.4575 103.681 16.3491 103.516 16.2156C103.358 16.0738 103.226 15.9152 103.118 15.74C103.019 15.5565 102.949 15.3646 102.907 15.1643L103.131 15.2394C103.04 15.6149 102.895 15.9069 102.696 16.1155C102.506 16.3157 102.278 16.4575 102.014 16.541C101.749 16.6161 101.468 16.6536 101.17 16.6536C100.805 16.6536 100.507 16.6077 100.276 16.516C100.044 16.4242 99.8619 16.2865 99.7298 16.103C99.6057 15.9111 99.5228 15.6691 99.4816 15.3771H99.9036C99.7462 15.7359 99.5809 16.007 99.4071 16.1906C99.2333 16.3741 99.0179 16.4993 98.7616 16.566C98.505 16.6244 98.1658 16.6536 97.7438 16.6536C97.5368 16.6536 97.3134 16.6202 97.0735 16.5535C96.8417 16.4868 96.6391 16.3574 96.4653 16.1655C96.2916 15.9653 96.1878 15.6691 96.155 15.277L96.5274 15.2019C96.3864 15.6274 96.2126 15.9444 96.0061 16.153C95.8075 16.3533 95.5672 16.4868 95.2861 16.5535C95.0046 16.6202 94.6735 16.6536 94.2931 16.6536ZM104.218 16.6536L104.342 15.6274C104.748 15.6274 105.07 15.6024 105.311 15.5523C105.55 15.5022 105.724 15.4021 105.832 15.2519C105.939 15.0934 105.993 14.8598 105.993 14.5511C105.993 14.3425 105.96 14.0964 105.894 13.8127C105.827 13.5207 105.741 13.212 105.633 12.8866C105.526 12.5612 105.41 12.2399 105.286 11.9229L106.291 11.5474C106.398 11.8144 106.498 12.119 106.589 12.461C106.688 12.8031 106.771 13.141 106.837 13.4748C106.903 13.8085 106.937 14.1005 106.937 14.3508C106.937 14.6846 106.899 14.9808 106.825 15.2394C106.758 15.4897 106.655 15.7066 106.515 15.8902C106.374 16.0654 106.192 16.2114 105.968 16.3282C105.753 16.4367 105.501 16.5201 105.211 16.5785C104.921 16.6286 104.591 16.6536 104.218 16.6536ZM105.807 10.2458C105.633 10.2458 105.484 10.1874 105.36 10.0706C105.244 9.94548 105.186 9.79945 105.186 9.6326C105.186 9.46574 105.244 9.31972 105.36 9.19457C105.484 9.06941 105.633 9.00684 105.807 9.00684C105.972 9.00684 106.113 9.06941 106.229 9.19457C106.353 9.31972 106.415 9.46574 106.415 9.6326C106.415 9.79945 106.353 9.94548 106.229 10.0706C106.113 10.1874 105.972 10.2458 105.807 10.2458ZM114.254 16.8539L114.577 15.8276C115.082 15.8276 115.616 15.7984 116.178 15.74C116.741 15.6733 117.3 15.5607 117.854 15.4021C118.417 15.2353 118.951 15.01 119.455 14.7263C119.96 14.4426 120.403 14.0839 120.783 13.65L121.565 14.113C121.491 14.3049 121.441 14.4593 121.416 14.5761C121.391 14.6846 121.379 14.7847 121.379 14.8765C121.379 15.0016 121.425 15.1226 121.516 15.2394C121.607 15.3479 121.776 15.4397 122.024 15.5147C122.281 15.5898 122.641 15.6274 123.104 15.6274C123.278 15.6274 123.402 15.6774 123.477 15.7776C123.56 15.8693 123.601 15.982 123.601 16.1155C123.601 16.249 123.543 16.3741 123.427 16.4909C123.311 16.5994 123.162 16.6536 122.98 16.6536C122.451 16.6536 121.983 16.5994 121.578 16.4909C121.18 16.3741 120.883 16.1947 120.684 15.9528C120.494 15.7025 120.432 15.3812 120.498 14.9891L120.721 15.0642C120.39 15.3646 119.993 15.6274 119.53 15.8527C119.075 16.0696 118.566 16.2531 118.003 16.4033C117.449 16.5535 116.853 16.6661 116.215 16.7412C115.587 16.8163 114.933 16.8539 114.254 16.8539ZM114.254 16.8539C113.518 16.8539 112.868 16.8038 112.305 16.7037C111.751 16.6119 111.288 16.4659 110.915 16.2657C110.543 16.0654 110.262 15.8068 110.071 15.4897C109.881 15.1643 109.786 14.7722 109.786 14.3133C109.786 14.1047 109.803 13.8919 109.835 13.675C109.869 13.4497 109.91 13.2245 109.96 12.9992C110.018 12.7739 110.076 12.557 110.133 12.3484L111.064 12.5862C111.031 12.7113 110.994 12.8615 110.953 13.0367C110.911 13.2036 110.874 13.3746 110.841 13.5499C110.816 13.7251 110.804 13.8836 110.804 14.0254C110.804 14.4593 110.911 14.8097 111.126 15.0767C111.35 15.3354 111.735 15.5273 112.281 15.6524C112.827 15.7692 113.592 15.8276 114.577 15.8276L114.825 16.4534L114.254 16.8539ZM116.34 11.5725C116.166 11.5725 116.017 11.514 115.893 11.3972C115.777 11.2721 115.719 11.1261 115.719 10.9592C115.719 10.7924 115.777 10.6463 115.893 10.5212C116.017 10.396 116.166 10.3335 116.34 10.3335C116.505 10.3335 116.646 10.396 116.762 10.5212C116.886 10.6463 116.948 10.7924 116.948 10.9592C116.948 11.1261 116.886 11.2721 116.762 11.3972C116.646 11.514 116.505 11.5725 116.34 11.5725ZM114.639 11.5725C114.465 11.5725 114.316 11.514 114.192 11.3972C114.076 11.2721 114.018 11.1261 114.018 10.9592C114.018 10.7924 114.076 10.6463 114.192 10.5212C114.316 10.396 114.465 10.3335 114.639 10.3335C114.805 10.3335 114.945 10.396 115.061 10.5212C115.185 10.6463 115.247 10.7924 115.247 10.9592C115.247 11.1261 115.185 11.2721 115.061 11.3972C114.945 11.514 114.805 11.5725 114.639 11.5725ZM122.357 16.6536L122.481 15.6274C122.688 15.6274 122.916 15.6274 123.164 15.6274C123.42 15.619 123.677 15.6107 123.933 15.6024C124.198 15.594 124.442 15.5773 124.666 15.5523C124.889 15.5189 125.075 15.4772 125.224 15.4271C125.522 15.3187 125.754 15.1852 125.919 15.0267C126.085 14.8598 126.201 14.6428 126.267 14.3759C126.341 14.1005 126.379 13.7501 126.379 13.3246C126.379 12.9742 126.333 12.6488 126.242 12.3484C126.151 12.048 126.023 11.8061 125.857 11.6225C125.692 11.4389 125.493 11.3472 125.261 11.3472C125.071 11.3472 124.898 11.4223 124.74 11.5725C124.591 11.7143 124.471 11.8979 124.38 12.1231C124.297 12.3484 124.256 12.5737 124.256 12.7989C124.256 12.9742 124.289 13.1243 124.355 13.2495C124.43 13.3746 124.55 13.4748 124.715 13.5499C124.881 13.6166 125.096 13.65 125.361 13.65C125.601 13.65 125.841 13.625 126.081 13.5749C126.329 13.5248 126.54 13.4581 126.714 13.3746L126.763 14.2507C126.631 14.3425 126.482 14.4176 126.317 14.476C126.151 14.5344 125.977 14.5761 125.795 14.6011C125.613 14.6262 125.431 14.6387 125.249 14.6387C124.827 14.6387 124.467 14.572 124.169 14.4384C123.88 14.2966 123.656 14.1089 123.499 13.8753C123.35 13.6333 123.275 13.358 123.275 13.0493C123.275 12.7322 123.325 12.4151 123.424 12.0981C123.524 11.7727 123.664 11.4765 123.846 11.2095C124.029 10.9425 124.248 10.7298 124.504 10.5712C124.761 10.4044 125.046 10.3209 125.361 10.3209C125.808 10.3209 126.176 10.467 126.466 10.759C126.763 11.051 126.983 11.4348 127.123 11.9104C127.272 12.3776 127.347 12.874 127.347 13.3997C127.347 14.0254 127.239 14.5636 127.024 15.0141C126.817 15.4563 126.469 15.8235 125.981 16.1155C125.791 16.224 125.559 16.3157 125.286 16.3908C125.022 16.4575 124.728 16.5118 124.405 16.5535C124.091 16.5952 123.76 16.6202 123.412 16.6286C123.064 16.6453 122.713 16.6536 122.357 16.6536ZM125.125 9.03187C124.951 9.03187 124.802 8.97345 124.678 8.85666C124.562 8.7315 124.504 8.58548 124.504 8.41862C124.504 8.25177 124.562 8.10574 124.678 7.98059C124.802 7.85544 124.951 7.79286 125.125 7.79286C125.29 7.79286 125.431 7.85544 125.547 7.98059C125.671 8.10574 125.733 8.25177 125.733 8.41862C125.733 8.58548 125.671 8.7315 125.547 8.85666C125.431 8.97345 125.29 9.03187 125.125 9.03187ZM130.9 16.6536C130.238 16.6536 129.729 16.5785 129.373 16.4284C129.026 16.2782 128.786 16.0445 128.653 15.7275C128.521 15.4105 128.447 15.0016 128.43 14.501L128.182 7.65519H129.199L129.448 14.1005C129.464 14.5094 129.502 14.8264 129.559 15.0517C129.626 15.2686 129.766 15.4188 129.981 15.5022C130.205 15.5857 130.552 15.6274 131.024 15.6274C131.198 15.6274 131.322 15.6774 131.396 15.7776C131.479 15.8693 131.521 15.982 131.521 16.1155C131.521 16.249 131.463 16.3741 131.347 16.4909C131.231 16.5994 131.082 16.6536 130.9 16.6536ZM130.28 16.6536L130.404 15.6274C130.892 15.6274 131.273 15.6107 131.546 15.5773C131.819 15.5356 132.013 15.4397 132.129 15.2895C132.245 15.1309 132.303 14.8848 132.303 14.5511C132.303 14.3425 132.27 14.0964 132.204 13.8127C132.137 13.5207 132.05 13.212 131.943 12.8866C131.835 12.5612 131.72 12.2399 131.595 11.9229L132.601 11.5474C132.708 11.8144 132.807 12.119 132.899 12.461C132.998 12.8031 133.081 13.141 133.147 13.4748C133.213 13.8085 133.246 14.1005 133.246 14.3508C133.246 14.768 133.188 15.1226 133.073 15.4146C132.965 15.7066 132.791 15.9444 132.551 16.128C132.311 16.3116 132.001 16.445 131.62 16.5285C131.248 16.6119 130.801 16.6536 130.28 16.6536ZM132.576 19.019C132.402 19.019 132.253 18.9564 132.129 18.8313C132.013 18.7145 131.955 18.5726 131.955 18.4058C131.955 18.2389 132.013 18.0929 132.129 17.9677C132.253 17.8426 132.402 17.78 132.576 17.78C132.741 17.78 132.882 17.8426 132.998 17.9677C133.122 18.0929 133.184 18.2389 133.184 18.4058C133.184 18.5726 133.122 18.7145 132.998 18.8313C132.882 18.9564 132.741 19.019 132.576 19.019ZM130.876 19.019C130.702 19.019 130.553 18.9564 130.429 18.8313C130.313 18.7145 130.255 18.5726 130.255 18.4058C130.255 18.2389 130.313 18.0929 130.429 17.9677C130.553 17.8426 130.702 17.78 130.876 17.78C131.041 17.78 131.181 17.8426 131.298 17.9677C131.422 18.0929 131.484 18.2389 131.484 18.4058C131.484 18.5726 131.422 18.7145 131.298 18.8313C131.181 18.9564 131.041 19.019 130.876 19.019ZM133.418 19.4696L133.058 18.5184C133.894 18.2514 134.535 17.9302 134.982 17.5547C135.437 17.1876 135.747 16.8038 135.913 16.4033C136.087 16.0028 136.173 15.619 136.173 15.2519C136.173 15.0183 136.149 14.793 136.099 14.5761C136.049 14.3592 135.962 14.113 135.838 13.8377C135.714 13.5624 135.54 13.2203 135.317 12.8115L136.223 12.3484C136.537 12.8907 136.761 13.4038 136.893 13.8878C137.034 14.3717 137.104 14.7972 137.104 15.1643C137.104 15.69 137.017 16.1655 136.844 16.5911C136.678 17.0166 136.455 17.392 136.173 17.7174C135.9 18.0512 135.598 18.3348 135.267 18.5685C134.945 18.8021 134.618 18.994 134.287 19.1442C133.964 19.2943 133.675 19.4028 133.418 19.4696ZM137.74 16.0279L138.236 15.1643C138.402 15.2728 138.633 15.3771 138.931 15.4772C139.229 15.5773 139.577 15.6274 139.974 15.6274C140.388 15.6274 140.715 15.5857 140.954 15.5022C141.203 15.4188 141.381 15.2978 141.488 15.1393C141.604 14.9724 141.662 14.7805 141.662 14.5636C141.662 14.3967 141.625 14.1923 141.55 13.9503C141.484 13.7 141.335 13.3663 141.103 12.9491C140.872 12.5236 140.516 11.9688 140.036 11.2846L140.892 10.7214C141.331 11.3305 141.679 11.8812 141.935 12.3734C142.2 12.8657 142.386 13.2996 142.494 13.675C142.61 14.0421 142.667 14.3592 142.667 14.6262C142.667 14.9599 142.585 15.2853 142.419 15.6024C142.254 15.9111 141.977 16.1655 141.588 16.3658C141.199 16.566 140.661 16.6661 139.974 16.6661C139.676 16.6661 139.387 16.6411 139.105 16.5911C138.832 16.541 138.58 16.4701 138.348 16.3783C138.116 16.2782 137.913 16.1614 137.74 16.0279Z" fill="white"/>
<path d="M123.244 34.1077C122.15 34.1077 121.263 33.2129 121.263 32.111V29.6969C121.263 29.4086 121.031 29.1744 120.745 29.1744H116.299C116.013 29.1744 115.781 29.4086 115.781 29.6969V32.12C115.781 33.219 114.896 34.1107 113.806 34.1107H112.597C111.507 34.1107 110.623 33.219 110.623 32.12V29.6969C110.623 29.4086 110.39 29.1744 110.104 29.1744H105.733C105.447 29.1744 105.214 29.4086 105.214 29.6969V32.111C105.214 33.2129 104.327 34.1077 103.234 34.1077H85.6283C85.3393 34.1077 85.1039 34.3449 85.1039 34.6362V36.8013C85.1039 38.2602 86.2773 39.4407 87.7216 39.4407H102.633C104.67 39.4407 106.522 38.6535 107.919 37.3716C109.315 38.6508 111.164 39.4407 113.201 39.4407C115.257 39.4407 117.124 38.6388 118.523 37.3385C119.926 38.6388 121.79 39.4407 123.848 39.4407H141.382C142.83 39.4407 144 38.2575 144 36.8013V34.6362C144 34.3449 143.765 34.1077 143.476 34.1077H123.244Z" fill="white"/>
<path d="M117.982 41.2871H110.867C110.664 41.2871 110.501 41.4521 110.501 41.6563V44.8839C110.501 45.0882 110.664 45.2536 110.867 45.2536H115.933C117.278 45.2536 118.372 44.1513 118.372 42.7943V41.6773C118.372 41.461 118.196 41.284 117.982 41.284V41.2871Z" fill="white"/>
<path d="M63.8887 41.9236C63.6861 41.9236 63.5225 42.0886 63.5225 42.2928V45.3586C63.5225 45.6527 63.7579 45.89 64.0527 45.89H67.3371V48.8298C67.3371 49.0457 67.51 49.22 67.7246 49.22H68.7699C70.2199 49.22 71.3934 48.0337 71.3934 46.5748V42.182C71.3934 42.0376 71.2772 41.9236 71.1371 41.9236H63.8887Z" fill="white"/>
<path d="M99.2963 41.6501H96.1572C95.9431 41.6501 95.7702 41.8244 95.7702 42.0403V45.085C95.7702 45.3791 96.0056 45.6165 96.2973 45.6165H99.439C99.6535 45.6165 99.8265 45.4422 99.8265 45.2263V42.1846C99.8265 41.8901 99.588 41.6501 99.2963 41.6501Z" fill="white"/>
<path d="M74.899 34.1076H52.1411C51.8489 34.1076 51.614 34.3448 51.614 34.6391V36.8008C51.614 38.2602 52.787 39.4402 54.2317 39.4402H74.899C75.1938 39.4402 75.4288 39.2002 75.4288 38.9056V34.6451C75.4288 34.3478 75.1907 34.1106 74.899 34.1106V34.1076Z" fill="white"/>
<path d="M82.1705 23.7426H77.9387C77.647 23.7426 77.4085 23.9828 77.4085 24.2771V38.9061C77.4085 39.2002 77.647 39.4403 77.9387 39.4403H80.0768C81.5242 39.4403 82.6976 38.2576 82.6976 36.7982V24.2771C82.6976 23.9828 82.4622 23.7426 82.1674 23.7426H82.1705Z" fill="white"/>
<path d="M17.1294 9.57044C17.8048 3.91857 22.8847 -0.107534 28.4735 0.575529L29.4528 0.694691C29.6217 0.715967 29.744 0.87129 29.7227 1.04154L29.6044 2.03105C28.9292 7.68292 23.8493 11.709 18.2606 11.026L17.2813 10.9068C17.1125 10.8855 16.9922 10.7302 17.0112 10.5599L17.1294 9.57044Z" fill="white"/>
<path fill-rule="evenodd" clip-rule="evenodd" d="M11.4284 14.3308C5.11587 14.3308 0 19.506 0 25.8877V39.9431C0 46.3245 5.11587 51.5 11.4284 51.5H25.3282C31.6405 51.5 36.7566 46.3268 36.7566 39.9431V25.8877C36.7566 19.506 31.6405 14.3308 25.3282 14.3308H11.4284ZM12.0468 22.4511C9.82864 22.4511 8.03046 24.2683 8.03046 26.5112V39.3173C8.03046 41.5602 9.82864 43.3776 12.0468 43.3776H24.7119C26.93 43.3776 28.7284 41.5602 28.7284 39.3173V26.5112C28.7284 24.2683 26.93 22.4511 24.7119 22.4511H12.0468Z" fill="white"/>
</g>
</svg>
