<svg width="156" height="46" viewBox="0 0 156 46" fill="none" xmlns="http://www.w3.org/2000/svg">
<g id="Vector">
<path d="M92.8849 13.5992C93.355 13.5992 93.736 13.2266 93.736 12.7671C93.736 12.3076 93.355 11.935 92.8849 11.935C92.4148 11.935 92.0338 12.3076 92.0338 12.7671C92.0338 13.2266 92.4148 13.5992 92.8849 13.5992Z" fill="white"/>
<path d="M94.6835 13.5992C95.1536 13.5992 95.5346 13.2266 95.5346 12.7671C95.5346 12.3076 95.1536 11.935 94.6835 11.935C94.2134 11.935 93.8324 12.3076 93.8324 12.7671C93.8324 13.2266 94.2134 13.5992 94.6835 13.5992Z" fill="white"/>
<path d="M4.25562 10.3337C4.23281 10.7959 4.13525 11.2516 3.96656 11.6839C3.81337 12.0728 3.57809 12.4259 3.27602 12.72C2.96584 13.0076 2.60004 13.2318 2.20007 13.3794C1.7453 13.531 1.26733 13.6053 0.786888 13.5992H0V12.3746H0.786888C1.12238 12.3834 1.45749 12.3464 1.78254 12.2647C2.03552 12.195 2.26712 12.0656 2.45702 11.8879C2.65116 11.7091 2.79023 11.4807 2.85849 11.2286C2.96207 10.9035 3.01088 10.5642 3.00302 10.2238V6.73859H4.25562V10.3337Z" fill="white"/>
<path d="M6.93746 10.6006H5.68487V2.60968H6.93746V10.6006Z" fill="white"/>
<path d="M14.8545 10.4593H13.361V4.02265H14.8545V10.4593Z" fill="white"/>
<path d="M23.7672 6.37746C23.7861 7.14885 23.6326 7.91498 23.3176 8.62245C23.0478 9.23648 22.5944 9.75639 22.0168 10.1139C21.4335 10.4656 20.7589 10.6454 20.0737 10.632C19.3887 10.6437 18.7146 10.4639 18.1305 10.1139C17.5527 9.75928 17.0946 9.24596 16.8137 8.63815C16.4929 7.93749 16.3339 7.17637 16.348 6.40886V5.92218C16.3359 5.14472 16.4948 4.37378 16.8137 3.66149C17.0749 3.02164 17.5285 2.47425 18.1145 2.09156C18.6985 1.74151 19.3727 1.56177 20.0576 1.57349C20.7338 1.55208 21.401 1.72904 21.9735 2.08158C22.5459 2.43412 22.9972 2.9461 23.2694 3.55159C23.5898 4.26344 23.7487 5.03469 23.7351 5.81229L23.7672 6.37746ZM22.1613 5.90648C22.2147 5.12441 22.0183 4.34543 21.5993 3.67719C21.4143 3.43059 21.1726 3.23006 20.8936 3.09183C20.6145 2.9536 20.3062 2.88157 19.9934 2.88157C19.6806 2.88157 19.3722 2.9536 19.0932 3.09183C18.8142 3.23006 18.5724 3.43059 18.3875 3.67719C17.9623 4.33181 17.76 5.10116 17.8094 5.87508V6.37746C17.7581 7.15935 17.9544 7.93771 18.3714 8.60675C18.5508 8.85822 18.7918 9.06178 19.0723 9.19889C19.3528 9.336 19.6639 9.40229 19.9773 9.39171C20.2897 9.40694 20.601 9.34434 20.8819 9.20978C21.1628 9.07523 21.4041 8.87313 21.5832 8.62245C21.9912 7.94451 22.1814 7.16237 22.1292 6.37746L22.1613 5.90648Z" fill="white"/>
<path d="M29.9981 8.26136C30.0044 8.09075 29.9699 7.92105 29.8975 7.76572C29.825 7.61039 29.7165 7.47371 29.5806 7.36651C29.1192 7.08243 28.6153 6.87056 28.0871 6.73854C27.4822 6.58598 26.9034 6.34799 26.3688 6.03207C26.0035 5.84269 25.6972 5.5604 25.4824 5.21499C25.2676 4.86959 25.1522 4.47388 25.1483 4.06966C25.142 3.73292 25.2173 3.3995 25.368 3.09664C25.5187 2.79377 25.7406 2.53006 26.0155 2.32705C26.68 1.85303 27.4901 1.61488 28.3119 1.65198C28.8648 1.65171 29.4117 1.76399 29.9178 1.98167C30.3825 2.18957 30.7777 2.52152 31.058 2.93932C31.3375 3.34765 31.4832 3.82956 31.4755 4.32085H29.8696C29.8824 4.12122 29.8486 3.92137 29.7707 3.73642C29.6928 3.55147 29.5728 3.38626 29.42 3.2533C29.0705 2.96826 28.6212 2.82748 28.1674 2.86082C27.7522 2.83911 27.341 2.94925 26.9951 3.17481C26.8543 3.27864 26.7413 3.41428 26.6657 3.57012C26.5902 3.72596 26.5545 3.89736 26.5615 4.06966C26.5655 4.23034 26.6101 4.38754 26.6913 4.52726C26.7726 4.66697 26.888 4.78483 27.0272 4.87033C27.488 5.15532 27.9921 5.36727 28.5207 5.4983C29.085 5.65766 29.6251 5.88997 30.1266 6.18906C30.51 6.39786 30.8311 6.7009 31.058 7.06822C31.2599 7.42918 31.3648 7.83428 31.3631 8.24567C31.3911 8.57268 31.3387 8.90149 31.2102 9.20465C31.0817 9.50781 30.8808 9.7765 30.6244 9.98828C29.9426 10.4491 29.1235 10.6755 28.2959 10.6319C27.6835 10.6403 27.0761 10.5226 26.5133 10.2866C26.0092 10.0786 25.5712 9.74249 25.2447 9.31321C24.9388 8.89203 24.781 8.38521 24.795 7.86888H26.4009C26.3875 8.08684 26.4255 8.30489 26.5118 8.50628C26.5981 8.70768 26.7304 8.88705 26.8987 9.03063C27.3183 9.3249 27.8286 9.46904 28.344 9.43881C28.7776 9.47027 29.209 9.35376 29.5645 9.10912C29.7015 9.01264 29.8126 8.8851 29.8881 8.73744C29.9636 8.58979 30.0014 8.42642 29.9981 8.26136Z" fill="white"/>
<path d="M43.4715 10.6006H43.2146C42.9281 10.6012 42.6426 10.5695 42.3635 10.5064C42.0979 10.4435 41.8396 10.3541 41.5927 10.2395C41.3697 10.1146 41.1645 9.96157 40.9824 9.78424C40.8002 9.60229 40.6533 9.38952 40.5488 9.15627C40.4573 9.31668 40.3377 9.46014 40.1955 9.58015C40.0308 9.70297 39.8532 9.80823 39.6656 9.89413C39.4188 9.98862 39.159 10.0468 38.8948 10.0668H38.6699C38.4832 10.0883 38.2946 10.0883 38.1079 10.0668C37.8976 10.0138 37.6972 9.92906 37.5137 9.81564C37.3204 9.68944 37.1472 9.53602 36.9998 9.36036C36.842 9.17506 36.7221 8.96188 36.6465 8.73239C36.5624 8.47881 36.519 8.214 36.518 7.94743C36.5121 7.57809 36.5946 7.21252 36.7589 6.87988C36.9195 6.56609 37.131 6.2798 37.3852 6.03212C37.6554 5.78941 37.9579 5.58346 38.2845 5.41985C38.6262 5.24791 38.9805 5.10098 39.3444 4.98027C39.3387 4.89139 39.3387 4.80226 39.3444 4.71338V4.44649L40.5006 4.17961L41.5124 8.19861C41.5631 8.43591 41.6735 8.65712 41.8335 8.84228C41.9652 8.99333 42.1228 9.12082 42.2992 9.21907C42.4603 9.29929 42.634 9.35237 42.8131 9.37606H43.4715V10.6006ZM39.9386 7.88463C39.9464 7.80107 39.9464 7.717 39.9386 7.63344C39.9386 7.63344 39.9386 7.49215 39.9386 7.38225C39.9386 7.27236 39.9386 7.16246 39.8583 7.00547C39.778 6.84848 39.8583 6.70719 39.7459 6.55019C39.7009 6.4109 39.6634 6.26942 39.6335 6.12631C39.0848 6.26655 38.5747 6.52391 38.14 6.87988C37.9844 7.00388 37.8579 7.15923 37.7692 7.33532C37.6805 7.51142 37.6317 7.70413 37.6261 7.90033C37.6201 8.07835 37.6706 8.25383 37.7706 8.4027C37.8623 8.55155 37.9918 8.67463 38.1466 8.75992C38.3014 8.84522 38.4762 8.88983 38.6539 8.88938C38.813 8.8953 38.9717 8.86856 39.1196 8.81088C39.322 8.74678 39.5044 8.63331 39.6495 8.4812C39.8325 8.32678 39.9569 8.11664 40.0028 7.88463H39.9386Z" fill="white"/>
<path d="M51.3404 8.88935C51.3813 8.9924 51.4475 9.08404 51.5331 9.15624C51.608 9.21653 51.6958 9.25947 51.7901 9.28183H53.3157V10.5064H52.2237C51.9457 10.5055 51.6695 10.4632 51.4047 10.3808C51.1605 10.2986 50.9325 10.1765 50.7302 10.0197C50.5185 9.85551 50.3482 9.64605 50.2324 9.40743H50.1521C49.7388 9.60175 49.3153 9.77468 48.8834 9.9255C48.4148 10.0822 47.9377 10.2132 47.4542 10.318C46.9693 10.4244 46.4737 10.4771 45.9767 10.475H43.2949V9.25043H45.9767C46.2546 9.27315 46.5339 9.27315 46.8118 9.25043L47.6629 9.10914C47.952 9.10914 48.225 8.96785 48.498 8.87365C48.771 8.77946 49.044 8.70096 49.3009 8.60676L50.0397 8.30848C50.243 8.21375 50.4414 8.10895 50.6338 7.99449L47.7914 7.02114C47.6368 7.00242 47.4803 7.00242 47.3257 7.02114C47.2093 6.99601 47.0888 6.99601 46.9724 7.02114C46.8544 7.09816 46.7556 7.2001 46.6833 7.31943C46.5978 7.44155 46.5277 7.57334 46.4746 7.71191L45.3344 7.31943C45.4137 7.06522 45.5271 6.8224 45.6716 6.59726C45.7977 6.37856 45.9669 6.18647 46.1695 6.03209C46.3798 5.87017 46.6282 5.76224 46.8921 5.7181H47.149C47.3725 5.72657 47.5938 5.76352 47.8075 5.828L48.3856 6.01639L48.8995 6.20478L49.4294 6.39317L50.0718 6.62866L50.9229 6.94264L52.0631 7.35083L52.2076 8.38698L51.9025 8.57537L51.3404 8.88935Z" fill="white"/>
<path d="M53.1069 9.37607H53.8135C54.0104 9.4056 54.2108 9.4056 54.4077 9.37607C54.5396 9.34297 54.6611 9.27822 54.761 9.18767C54.8435 9.1097 54.9043 9.01244 54.9376 8.90509C54.946 8.77439 54.946 8.64331 54.9376 8.51261V6.73859H56.1902V8.41841C56.178 8.54973 56.1946 8.68208 56.2389 8.80662C56.2832 8.93116 56.3542 9.04502 56.4472 9.14058C56.6623 9.31544 56.9393 9.40009 57.218 9.37607H57.4428C57.5442 9.35138 57.6379 9.30288 57.7158 9.23477C57.8096 9.13535 57.8807 9.01763 57.9246 8.88939C57.9813 8.73327 58.0085 8.56835 58.0049 8.40271V6.73859H59.2575V8.41841C59.2451 8.54848 59.2601 8.67965 59.3016 8.80384C59.343 8.92803 59.41 9.04263 59.4984 9.14058C59.7257 9.3159 60.0128 9.4001 60.3013 9.37607C60.3971 9.39103 60.4946 9.39103 60.5904 9.37607C60.6942 9.34885 60.7886 9.29459 60.8634 9.21907C60.9492 9.14081 61.0152 9.04405 61.0561 8.93649C61.1163 8.80826 61.1491 8.66936 61.1524 8.52831V6.73859H62.405V8.48121C62.3935 8.60822 62.4138 8.73607 62.4642 8.85369C62.5145 8.97131 62.5935 9.07517 62.6941 9.15628C62.9457 9.31834 63.2446 9.39552 63.5452 9.37607H64.1394V10.6006H63.5452C63.1972 10.6054 62.8506 10.5577 62.5175 10.4593C62.2372 10.3761 61.9831 10.2249 61.7787 10.0197C61.6051 10.2159 61.3844 10.3669 61.1364 10.4593C60.8795 10.5529 60.6076 10.6007 60.3334 10.6006C60.0116 10.6072 59.6911 10.5594 59.386 10.4593C59.1179 10.3679 58.8719 10.2236 58.6633 10.0354C58.4481 10.223 58.197 10.3671 57.9246 10.4593C57.6849 10.5563 57.4291 10.6096 57.1698 10.6163C56.8518 10.6246 56.5352 10.5713 56.2384 10.4593C55.9847 10.3728 55.7503 10.2396 55.5479 10.0668C55.305 10.26 55.0189 10.3945 54.7128 10.4593C54.3803 10.5606 54.0332 10.6083 53.685 10.6006H53.1069V9.37607Z" fill="white"/>
<path d="M67.1264 5.93791C67.1264 5.93791 67.1264 6.01641 67.1264 6.12631C67.1264 6.2362 67.1264 6.3461 67.2227 6.48739C67.3191 6.62868 67.2227 6.78567 67.3191 6.97406C67.4154 7.16246 67.3191 7.31945 67.3994 7.49214C67.4797 7.66483 67.3994 7.85322 67.3994 8.01021C67.3994 8.16721 67.3994 8.3242 67.3994 8.4498C67.4072 8.77892 67.3415 9.10576 67.2067 9.40745C67.092 9.66468 66.9222 9.89488 66.7088 10.0825C66.5121 10.2548 66.2831 10.3881 66.0344 10.475C65.7912 10.5559 65.5364 10.5983 65.2796 10.6006H63.6737V9.37605H65.4884C65.5917 9.3603 65.6903 9.32281 65.7774 9.26616C65.8827 9.19092 65.9703 9.09458 66.0344 8.98357C66.1082 8.8264 66.1413 8.65385 66.1307 8.48119C66.1376 8.37664 66.1376 8.27176 66.1307 8.16721C66.1307 8.04161 66.1307 7.91602 66.1307 7.77473C66.1307 7.63343 66.1307 7.49214 66.1307 7.33515L66.0344 6.91127C66.0286 6.79621 66.0286 6.68094 66.0344 6.56589V6.3304L67.1264 5.93791Z" fill="white"/>
<path d="M83.7955 9.37605V10.6006H82.9444L82.5108 10.4593C82.3728 10.4248 82.2423 10.3663 82.1254 10.2866C81.9942 10.2227 81.8748 10.1378 81.7721 10.0354C81.285 10.4373 80.6579 10.6398 80.0217 10.6006H72.4579C72.1888 10.6035 71.9216 10.5555 71.671 10.4593C71.4184 10.3731 71.1882 10.2337 70.9966 10.0511L70.7717 9.79993C70.6861 9.68913 70.6159 9.56771 70.563 9.43885C70.488 9.29517 70.4339 9.14192 70.4024 8.98357C70.377 8.79074 70.377 8.59553 70.4024 8.4027C70.3794 8.19397 70.3794 7.98345 70.4024 7.77473C70.4024 7.53924 70.4827 7.33515 70.5309 7.13106C70.579 6.92697 70.6272 6.75428 70.6754 6.59728C70.6671 6.5085 70.6671 6.41918 70.6754 6.3304L71.8637 6.70718C71.8399 6.8141 71.8077 6.91907 71.7674 7.02116C71.7674 7.16246 71.7674 7.31945 71.655 7.47644C71.609 7.63574 71.5767 7.79854 71.5586 7.96312C71.5453 8.10936 71.5453 8.25646 71.5586 8.4027C71.549 8.58708 71.5877 8.77082 71.671 8.93647C71.7301 9.05088 71.8187 9.14828 71.928 9.21906C72.0105 9.28638 72.1106 9.32987 72.217 9.34465H79.9575C80.1863 9.3537 80.4149 9.32177 80.6319 9.25046C80.7669 9.20772 80.8885 9.13208 80.9852 9.03067C81.0496 8.95923 81.0939 8.87267 81.1137 8.77948C81.1137 8.68528 81.1137 8.60679 81.1137 8.55969V6.72288H82.3663V8.55969C82.3557 8.71412 82.395 8.86789 82.4787 8.99927C82.5549 9.10285 82.6536 9.18863 82.7678 9.25046C82.869 9.29832 82.9775 9.33011 83.089 9.34465H83.3298L83.7955 9.37605Z" fill="white"/>
<path d="M83.6189 10.6006V9.3761H85.8993C86.2116 9.37952 86.5236 9.35323 86.8307 9.2976C87.0209 9.26872 87.2052 9.21042 87.3767 9.12491C87.493 9.06643 87.5966 8.98646 87.6818 8.88942C87.7329 8.80652 87.7708 8.71654 87.7942 8.62254H87.0716C86.7319 8.6254 86.3929 8.59384 86.0599 8.52834C85.7678 8.47068 85.4898 8.35877 85.2409 8.19866C85.013 8.04287 84.8303 7.83189 84.7109 7.58639C84.5616 7.28888 84.4899 6.9599 84.5021 6.62873C84.4808 6.33132 84.519 6.03269 84.6146 5.74957C84.7255 5.48513 84.8893 5.24496 85.0963 5.04311C85.2887 4.82807 85.531 4.66119 85.8029 4.55643C86.0561 4.44894 86.3298 4.39542 86.6059 4.39944H86.7183C86.988 4.40585 87.2544 4.459 87.5052 4.55643C87.7236 4.64829 87.9245 4.77569 88.0993 4.93321C88.2648 5.0958 88.4054 5.28086 88.5169 5.48269C88.6271 5.69439 88.7185 5.915 88.7899 6.14205C88.8565 6.37889 88.9048 6.6203 88.9344 6.86422C88.9504 7.11517 88.9504 7.36684 88.9344 7.61778V8.38705C88.9442 8.64415 88.9005 8.90052 88.8059 9.14061C88.729 9.34721 88.6148 9.53864 88.4687 9.70578C88.3292 9.87002 88.1606 10.0083 87.9709 10.114C87.7631 10.2283 87.542 10.3179 87.3125 10.3809C87.0726 10.4587 86.825 10.5114 86.5737 10.5378C86.3117 10.5539 86.0489 10.5539 85.7868 10.5378L83.6189 10.6006ZM86.8307 5.63968H86.365C86.2466 5.66599 86.1364 5.71984 86.0438 5.79667C85.9425 5.88426 85.8606 5.99109 85.8029 6.11066C85.749 6.25661 85.7218 6.41074 85.7226 6.56594C85.7168 6.72206 85.7617 6.87598 85.8511 7.00551C85.9355 7.11365 86.0458 7.1999 86.1723 7.2567C86.3168 7.31502 86.4677 7.35716 86.6219 7.3823H87.8585C87.8585 7.2096 87.8585 7.02121 87.8585 6.83282C87.8459 6.63537 87.8082 6.44023 87.746 6.25195C87.685 6.07758 87.5801 5.92102 87.4409 5.79667C87.337 5.72522 87.2197 5.67456 87.0956 5.64762C86.9716 5.62068 86.8434 5.61798 86.7183 5.63968H86.8307Z" fill="white"/>
<path d="M93.463 10.6006C93.1188 10.6023 92.775 10.576 92.4352 10.5221C92.1885 10.4894 91.9494 10.415 91.7287 10.3023C91.5485 10.2181 91.3901 10.0953 91.265 9.94313C91.1399 9.79096 91.0514 9.61326 91.006 9.42316C90.9357 9.20396 90.8926 8.97732 90.8775 8.74809C90.8775 8.4969 90.8775 8.21431 90.8775 7.91603V2.60968H92.1301V7.99452C92.1301 8.30851 92.1301 8.5597 92.1301 8.74809C92.1434 8.90843 92.2049 9.06135 92.3068 9.18767C92.4118 9.30267 92.5531 9.38004 92.7083 9.40746C92.9594 9.42792 93.2119 9.42792 93.463 9.40746V10.6006Z" fill="white"/>
<path d="M96.3055 5.93791C96.3055 5.93791 96.3055 6.01641 96.3055 6.12631C96.3055 6.2362 96.3055 6.3461 96.3055 6.48739C96.3055 6.62868 96.3055 6.78567 96.4018 6.97406L96.4982 7.49214C96.4982 7.68053 96.4982 7.85322 96.4982 8.01021C96.4982 8.16721 96.4982 8.3242 96.4982 8.4498C96.506 8.77892 96.4403 9.10576 96.3055 9.40745C96.1905 9.6605 96.0269 9.88966 95.8237 10.0825C95.6222 10.2483 95.3944 10.3808 95.1492 10.475C94.9055 10.5535 94.651 10.5958 94.3944 10.6006H93.2543V9.37605H94.9083C95.0233 9.35951 95.1322 9.31487 95.2248 9.24626C95.3174 9.17766 95.3909 9.0873 95.4383 8.98357C95.5261 8.83081 95.5653 8.65586 95.5507 8.48119C95.5563 8.3766 95.5563 8.2718 95.5507 8.16721V7.77473C95.5507 7.63343 95.5507 7.49214 95.5507 7.33515L95.4543 6.91127C95.4635 6.79631 95.4635 6.68084 95.4543 6.56589C95.4624 6.48759 95.4624 6.4087 95.4543 6.3304L96.3055 5.93791Z" fill="white"/>
<path d="M101.284 10.3337C101.269 10.7968 101.171 11.2537 100.995 11.6839C100.848 12.0758 100.611 12.4301 100.304 12.72C100.002 13.0104 99.6412 13.2351 99.2443 13.3794C98.7888 13.5284 98.3113 13.6026 97.8311 13.5992H97.0442V12.3746H97.8311C98.1612 12.3825 98.4909 12.3455 98.8107 12.2647C99.0694 12.1974 99.3067 12.0678 99.5012 11.8879C99.6843 11.7007 99.8216 11.4752 99.9027 11.2286C99.9919 10.9009 100.035 10.5629 100.031 10.2238V6.73859H101.284V10.3337Z" fill="white"/>
<path d="M104.785 10.6476H103.741L103.339 10.4593L102.89 10.3651L102.504 10.1924L101.958 9.89409L102.585 8.82654L103.131 9.12482C103.276 9.20906 103.433 9.2725 103.596 9.31322L104.206 9.40741H105.443C105.632 9.39222 105.817 9.34438 105.989 9.26612C106.117 9.26612 106.182 9.15622 106.198 9.10912C106.205 9.07816 106.205 9.0459 106.198 9.01493C106.209 8.94211 106.209 8.86795 106.198 8.79514C106.132 8.64125 106.052 8.49402 105.957 8.35556L105.058 7.03682L104.496 6.22046L104.223 5.82798V5.71809L103.869 5.20001L104.913 4.52494L105.266 5.04302V5.15291C105.266 5.15291 105.411 5.3413 105.539 5.54539L106.069 6.33036L106.969 7.64909C107.163 7.93339 107.309 8.24605 107.402 8.57535C107.417 8.71102 107.417 8.84786 107.402 8.98353C107.407 9.18274 107.369 9.38069 107.29 9.5644C107.142 9.86571 106.9 10.1132 106.599 10.2709C106.282 10.4428 105.932 10.5496 105.571 10.5849C105.422 10.6011 105.271 10.6011 105.122 10.5849L104.785 10.6476Z" fill="white"/>
<path d="M2.98697 5.16867C3.45703 5.16867 3.83809 4.79615 3.83809 4.33661C3.83809 3.87708 3.45703 3.50455 2.98697 3.50455C2.5169 3.50455 2.13584 3.87708 2.13584 4.33661C2.13584 4.79615 2.5169 5.16867 2.98697 5.16867Z" fill="white"/>
<path d="M14.1158 2.90798C14.5859 2.90798 14.9669 2.53545 14.9669 2.07591C14.9669 1.61638 14.5859 1.24386 14.1158 1.24386C13.6457 1.24386 13.2647 1.61638 13.2647 2.07591C13.2647 2.53545 13.6457 2.90798 14.1158 2.90798Z" fill="white"/>
<path d="M45.7519 5.16867C46.222 5.16867 46.603 4.79615 46.603 4.33661C46.603 3.87708 46.222 3.50455 45.7519 3.50455C45.2819 3.50455 44.9008 3.87708 44.9008 4.33661C44.9008 4.79615 45.2819 5.16867 45.7519 5.16867Z" fill="white"/>
<path d="M65.7132 5.16867C66.1832 5.16867 66.5643 4.79615 66.5643 4.33661C66.5643 3.87708 66.1832 3.50455 65.7132 3.50455C65.2431 3.50455 64.8621 3.87708 64.8621 4.33661C64.8621 4.79615 65.2431 5.16867 65.7132 5.16867Z" fill="white"/>
<path d="M74.9471 6.83279C75.4171 6.83279 75.7982 6.46026 75.7982 6.00073C75.7982 5.54119 75.4171 5.16867 74.9471 5.16867C74.477 5.16867 74.0959 5.54119 74.0959 6.00073C74.0959 6.46026 74.477 6.83279 74.9471 6.83279Z" fill="white"/>
<path d="M76.7457 6.83279C77.2157 6.83279 77.5968 6.46026 77.5968 6.00073C77.5968 5.54119 77.2157 5.16867 76.7457 5.16867C76.2756 5.16867 75.8946 5.54119 75.8946 6.00073C75.8946 6.46026 76.2756 6.83279 76.7457 6.83279Z" fill="white"/>
<path d="M84.6306 3.83418C85.1007 3.83418 85.4817 3.46165 85.4817 3.00212C85.4817 2.54258 85.1007 2.17006 84.6306 2.17006C84.1605 2.17006 83.7795 2.54258 83.7795 3.00212C83.7795 3.46165 84.1605 3.83418 84.6306 3.83418Z" fill="white"/>
<path d="M53.5405 39.2203C54.1757 39.2203 54.7967 39.4044 55.3249 39.7495C55.8531 40.0945 56.2647 40.5848 56.5078 41.1586C56.7509 41.7323 56.8145 42.3636 56.6906 42.9727C56.5667 43.5818 56.2608 44.1412 55.8116 44.5804C55.3624 45.0195 54.7901 45.3185 54.1671 45.4397C53.5441 45.5608 52.8983 45.4986 52.3114 45.261C51.7245 45.0233 51.2229 44.6209 50.87 44.1046C50.5171 43.5882 50.3287 42.9812 50.3287 42.3601C50.3287 41.5274 50.6671 40.7288 51.2694 40.1399C51.8718 39.5511 52.6887 39.2203 53.5405 39.2203ZM61.9233 39.2203C62.7751 39.2203 63.592 39.5511 64.1943 40.1399C64.7967 40.7288 65.1351 41.5274 65.1351 42.3601C65.1351 42.9812 64.9467 43.5882 64.5938 44.1046C64.2409 44.6209 63.7392 45.0233 63.1524 45.261C62.5655 45.4986 61.9197 45.5608 61.2967 45.4397C60.6737 45.3185 60.1014 45.0195 59.6522 44.5804C59.203 44.1412 58.8971 43.5818 58.7732 42.9727C58.6493 42.3636 58.7129 41.7323 58.956 41.1586C59.1991 40.5848 59.6107 40.0945 60.1389 39.7495C60.6671 39.4044 61.288 39.2203 61.9233 39.2203ZM68.3468 39.2203C68.9821 39.2203 69.603 39.4044 70.1312 39.7495C70.6594 40.0945 71.0711 40.5848 71.3142 41.1586C71.5572 41.7323 71.6208 42.3636 71.4969 42.9727C71.373 43.5818 71.0671 44.1412 70.6179 44.5804C70.1687 45.0195 69.5965 45.3185 68.9734 45.4397C68.3504 45.5608 67.7046 45.4986 67.1177 45.261C66.5309 45.0233 66.0293 44.6209 65.6763 44.1046C65.3234 43.5882 65.1351 42.9812 65.1351 42.3601C65.1351 41.5274 65.4734 40.7288 66.0758 40.1399C66.6781 39.5511 67.495 39.2203 68.3468 39.2203ZM32.3266 39.2203C33.1785 39.2203 33.9954 39.5511 34.5977 40.1399C35.2 40.7288 35.5384 41.5274 35.5384 42.3601C35.5384 42.9812 35.3501 43.5882 34.9971 44.1046C34.6442 44.6209 34.1426 45.0233 33.5557 45.261C32.9689 45.4986 32.3231 45.5608 31.7001 45.4397C31.077 45.3185 30.5047 45.0195 30.0556 44.5804C29.6064 44.1412 29.3005 43.5818 29.1766 42.9727C29.0526 42.3636 29.1162 41.7323 29.3593 41.1586C29.6024 40.5848 30.0141 40.0945 30.5423 39.7495C31.0704 39.4044 31.6914 39.2203 32.3266 39.2203ZM25.9031 39.2203C26.7549 39.2203 27.5718 39.5511 28.1741 40.1399C28.7765 40.7288 29.1149 41.5274 29.1149 42.3601C29.1149 42.9812 28.9265 43.5882 28.5736 44.1046C28.2207 44.6209 27.719 45.0233 27.1322 45.261C26.5453 45.4986 25.8995 45.5608 25.2765 45.4397C24.6535 45.3185 24.0812 45.0195 23.632 44.5804C23.1828 44.1412 22.8769 43.5818 22.753 42.9727C22.6291 42.3636 22.6927 41.7323 22.9358 41.1586C23.1789 40.5848 23.5905 40.0945 24.1187 39.7495C24.6469 39.4044 25.2678 39.2203 25.9031 39.2203ZM38.7502 39.2203C39.3855 39.2203 40.0064 39.4044 40.5346 39.7495C41.0628 40.0945 41.4744 40.5848 41.7175 41.1586C41.9606 41.7323 42.0242 42.3636 41.9003 42.9727C41.7764 43.5818 41.4705 44.1412 41.0213 44.5804C40.5721 45.0195 39.9998 45.3185 39.3768 45.4397C38.7538 45.5608 38.108 45.4986 37.5211 45.261C36.9342 45.0233 36.4326 44.6209 36.0797 44.1046C35.7268 43.5882 35.5384 42.9812 35.5384 42.3601C35.5384 41.5301 35.8746 40.7339 36.4735 40.1455C37.0723 39.5571 37.8851 39.2244 38.7342 39.2203H38.7502ZM55.9975 20.1614C56.195 20.1614 56.3845 20.2369 56.5256 20.372C56.6667 20.5069 56.7481 20.6906 56.7523 20.8836V34.2279C56.7328 35.0231 56.4053 35.7814 55.8359 36.3497C55.2666 36.9179 54.4979 37.2537 53.685 37.2893H51.0674C50.8728 37.2853 50.6873 37.2079 50.5496 37.0733C50.412 36.9388 50.3328 36.7574 50.3287 36.5671V20.8679C50.3328 20.6776 50.412 20.4962 50.5496 20.3617C50.6873 20.2271 50.8728 20.1497 51.0674 20.1457L55.9975 20.1614ZM64.3963 20.1614C64.591 20.1654 64.7765 20.2428 64.9142 20.3774C65.0518 20.5119 65.131 20.6933 65.1351 20.8836V30.3031C65.1393 30.4961 65.2206 30.6798 65.3617 30.8148C65.5028 30.9498 65.6924 31.0253 65.8898 31.0253H106.342C106.441 31.0232 106.538 31.0403 106.63 31.0757C106.721 31.111 106.805 31.1639 106.875 31.2312C106.945 31.2984 107.001 31.3788 107.039 31.4674C107.077 31.5561 107.097 31.6513 107.097 31.7475V34.2279C107.078 35.0205 106.753 35.7767 106.187 36.3445C105.621 36.9124 104.856 37.2499 104.046 37.2893H59.2093C59.1447 37.2893 59.0807 37.2766 59.0212 37.252C58.9616 37.2274 58.9078 37.1913 58.8628 37.1458C58.8179 37.1004 58.7827 37.0466 58.7595 36.9877C58.7363 36.9287 58.7254 36.8658 58.7275 36.8026V20.915C58.7275 20.7234 58.8054 20.5398 58.9439 20.4043C59.0824 20.2689 59.2703 20.1928 59.4663 20.1928L64.3963 20.1614ZM10.3901 20.1614C12.7033 20.1752 14.9458 20.942 16.7635 22.3408C18.5811 23.7396 19.8701 25.6905 20.427 27.8854C20.9409 29.8792 20.9087 31.0253 22.6431 31.0253H41.3839C41.5104 31.0214 41.6306 30.9705 41.7201 30.883C41.8096 30.7955 41.8616 30.678 41.8657 30.5543C41.8657 30.0833 41.8657 29.7851 41.8657 29.6595V29.5653C41.8657 28.7325 41.5273 27.9339 40.9249 27.3451C40.3226 26.7562 39.5057 26.4254 38.6539 26.4254H30.3193C29.393 26.4542 28.4714 26.2866 27.6176 25.9343C26.7639 25.5821 25.9982 25.0534 25.3731 24.3845C24.8173 23.3729 24.5043 22.2508 24.4578 21.1034V20.9778C24.4444 20.7887 24.5077 20.602 24.6339 20.4581C24.76 20.3142 24.939 20.2245 25.1322 20.2085H38.4772C40.8534 20.0206 43.2247 20.6236 45.2059 21.9197C46.2347 22.7776 47.0562 23.8475 47.6116 25.0528C48.1669 26.258 48.4422 27.5686 48.4177 28.8902C48.4177 30.3816 48.4177 32.8778 48.4177 36.3944V36.5828C48.4136 36.7731 48.3345 36.9545 48.1968 37.089C48.0591 37.2236 47.8736 37.301 47.679 37.305H20.7321C18.9999 37.2638 17.3541 36.5567 16.1516 35.3371C14.9491 34.1175 14.2869 32.4836 14.3085 30.7898V29.8321C14.2844 29.354 14.162 28.8855 13.9486 28.4547C13.7352 28.0238 13.4352 27.6394 13.0665 27.3243C12.6978 27.0093 12.2679 26.7701 11.8026 26.6211C11.3372 26.472 10.8459 26.4162 10.358 26.4568C9.86892 26.425 9.37823 26.4886 8.91454 26.644C8.45086 26.7995 8.02346 27.0436 7.65726 27.3621C7.29105 27.6807 6.99337 28.0673 6.78157 28.4994C6.56976 28.9316 6.44807 29.4006 6.42358 29.8792V30.7898C6.42358 36.3316 3.45267 37.305 0.73871 37.305C0.0321164 37.305 0 37.0852 0 36.4415V30.1618C0.0462853 27.4965 1.16085 24.9554 3.10393 23.0852C5.04702 21.215 7.66335 20.1651 10.3901 20.1614Z" fill="white"/>
<path d="M148.866 14.7923C152.499 17.377 154.954 21.2476 155.707 25.5777C156.165 27.9473 156.085 30.3864 155.472 32.7223C154.858 35.0581 153.727 37.2336 152.158 39.0947L152.046 39.236C151.898 39.4155 151.684 39.5308 151.449 39.5572C151.215 39.5837 150.979 39.5191 150.793 39.3773C150.726 39.3167 150.667 39.2481 150.617 39.1732C149.069 37.1159 147.841 34.8465 146.971 32.4383C146.64 30.9314 146.468 29.3953 146.458 27.8541C146.372 26.567 145.951 25.3227 145.234 24.2399C144.517 23.1571 143.529 22.2719 142.363 21.6686C141.388 21.1544 140.314 20.8459 139.21 20.7628C138.106 20.6797 136.996 20.824 135.953 21.1863C134.909 21.5486 133.955 22.1209 133.152 22.8661C132.349 23.6114 131.715 24.5131 131.29 25.513C130.866 26.5128 130.66 27.5886 130.688 28.6708C130.715 29.753 130.974 30.8176 131.449 31.7958C131.923 32.7739 132.602 33.6439 133.442 34.3495C134.282 35.0551 135.264 35.5806 136.324 35.8921C138.31 36.4286 140.429 36.2215 142.266 35.3112C142.467 35.2225 142.693 35.2087 142.903 35.2723C143.113 35.336 143.292 35.4727 143.406 35.6566L147.277 42.1875C147.393 42.3854 147.425 42.6204 147.365 42.8411C147.304 43.0617 147.157 43.2501 146.955 43.3649C143.02 45.4277 138.442 45.9872 134.108 44.9349C129.813 43.7681 126.122 41.0676 123.766 37.3678C121.624 33.9098 120.81 29.8197 121.47 25.8289C123.284 13.5992 138.589 7.19387 148.866 14.7923ZM151.388 0.662986H151.58C151.696 0.670855 151.808 0.701242 151.912 0.752356C152.015 0.803469 152.107 0.874274 152.182 0.960597C152.256 1.04692 152.313 1.14701 152.347 1.25498C152.382 1.36295 152.394 1.4766 152.383 1.58924C152.4 1.67746 152.4 1.76791 152.383 1.85613C151.442 4.22275 149.755 6.23514 147.566 7.60205C145.069 8.992 142.175 9.54347 139.327 9.17198H139.135C139.018 9.16423 138.904 9.13337 138.799 9.08128C138.695 9.02918 138.602 8.95693 138.527 8.86888C138.452 8.78084 138.396 8.67883 138.362 8.56902C138.329 8.45921 138.318 8.34389 138.332 8.23002C138.324 8.15169 138.324 8.07287 138.332 7.99453C139.233 5.6333 140.881 3.61482 143.037 2.23291C145.56 0.802667 148.498 0.233773 151.388 0.615888V0.662986Z" fill="white"/>
</g>
</svg>
